<svg xmlns="http://www.w3.org/2000/svg" width="445.46609mm" height="125.03172mm" viewBox="0 0 445.46609 125.03172"><g transform="matrix(1.08117 0 0 -1.08117 -115.512 678.573)"><circle cx="164.66249" cy="-569.80841" r="57.822662" style="fill:#f9f9f9;stroke-width:1.22614" transform="scale(1 -1)"/><path d="M0 0c0 30.672 24.95 55.629 55.622 55.629 30.671 0 55.624-24.957 55.624-55.629 0-30.667-24.953-55.621-55.624-55.621C24.95-55.621 0-30.667 0 0m-.836 0c0-31.133 25.322-56.461 56.458-56.461 31.131 0 56.462 25.328 56.462 56.461 0 31.136-25.331 56.464-56.462 56.464C24.486 56.464-.836 31.136-.836 0" style="fill:#4f9d9d;fill-opacity:1;fill-rule:nonzero;stroke:none" transform="translate(109.155 569.82)"/><path d="M0 0c0 27.661 22.509 50.164 50.171 50.164 27.661 0 50.166-22.503 50.166-50.164 0-27.664-22.505-50.166-50.166-50.166C22.509-50.166 0-27.664 0 0m-2.379 0c0-28.971 23.574-52.548 52.55-52.548 28.976 0 52.548 23.577 52.548 52.548 0 28.975-23.572 52.549-52.548 52.549-28.976 0-52.55-23.574-52.55-52.549" style="fill:#4f9d9d;fill-opacity:1;fill-rule:nonzero;stroke:none" transform="translate(114.6 569.824)"/><path d="M0 0a31.972 31.972 0 0 0-2.554 12.559c0 17.743 14.438 32.187 32.185 32.187 17.746 0 32.182-14.444 32.182-32.187 0-2.547-.296-5.028-.859-7.407l.648-.69a32.775 32.775 0 0 1 1.003 8.097c0 18.184-14.787 32.975-32.974 32.975-18.183 0-32.974-14.791-32.974-32.975 0-4.551.922-8.879 2.594-12.825z" style="fill:#4f9d9d;fill-opacity:1;fill-rule:nonzero;stroke:none" transform="translate(135.14 557.264)"/><path d="M0 0v8.328h-.934V.024H-2.82v13.275h1.886V9.682H0v3.612h1.888V0Z" style="fill:#4f9d9d;fill-opacity:1;fill-rule:nonzero;stroke:none" transform="translate(177.442 529.248)"/><path d="M0 0h-1.683v-4.336h-2.155v8.554h2.155V1.343H0Z" style="fill:#4f9d9d;fill-opacity:1;fill-rule:nonzero;stroke:none" transform="translate(193.028 538.325)"/><path d="M0 0h-1.678v-4.336h-2.158v8.554h2.158V1.343H0Z" style="fill:#4f9d9d;fill-opacity:1;fill-rule:nonzero;stroke:none" transform="translate(167.093 538.325)"/><path d="M0 0h-1.681v-7.678h-2.157V5.609h2.157V1.341H0Z" style="fill:#4f9d9d;fill-opacity:1;fill-rule:nonzero;stroke:none" transform="translate(154.182 536.934)"/><path d="M0 0c-2.583 0-3.445-2.972-3.445-5.116 0-2.146.862-5.119 3.445-5.119 2.581 0 3.448 2.973 3.448 5.119C3.448-2.972 2.581 0 0 0m1.257-5.116c0-1.544-.182-3.698-1.257-3.698-1.069 0-1.252 2.154-1.252 3.698 0 1.541.183 3.695 1.252 3.695 1.075 0 1.257-2.154 1.257-3.695" style="fill:#4f9d9d;fill-opacity:1;fill-rule:nonzero;stroke:none" transform="translate(145.72 542.51)"/><path d="M0 0c.111-.383 1.614-1.988 2.83-2.592l.939 1.139A5.587 5.587 0 0 0 1.732.667c-.476.871-.704 1.971-.699 3.312v.914h-2.21v-.914c.011-1.341-.22-2.441-.692-3.312a5.643 5.643 0 0 0-2.044-2.12l.94-1.139C-1.753-1.988-.107-.383 0 0" style="fill:#4f9d9d;fill-opacity:1;fill-rule:nonzero;stroke:none" transform="translate(158.905 537.522)"/><path d="M0 0c.514-1.509 2.256-2.924 2.454-3.042l1.032 1.055c-.564.399-1.299 1.085-1.751 1.936C1.278.803.824 1.788.824 3.266v.776h1.741v1.341h-5.508V4.042h1.595v-.776c0-1.478-.153-2.463-.607-3.317-.454-.851-1.015-1.537-1.575-1.936l1.035-1.055C-2.301-2.924-.507-1.509 0 0" style="fill:#4f9d9d;fill-opacity:1;fill-rule:nonzero;stroke:none" transform="translate(171.328 537.028)"/><path d="M0 0a.607.607 0 0 0-.607.605v3.983h2.15v-3.2h5.931V0Z" style="fill:#4f9d9d;fill-opacity:1;fill-rule:nonzero;stroke:none" transform="translate(158.143 529.545)"/><path d="M0 0a.607.607 0 0 0-.606.605v3.983h2.153v-3.2h5.925V0Z" style="fill:#4f9d9d;fill-opacity:1;fill-rule:nonzero;stroke:none" transform="translate(183.692 529.545)"/><path d="M0 0v-6.045a.61.61 0 0 1 .613-.607h5.773v1.388H2.153v3.919h3.588V.004z" style="fill:#4f9d9d;fill-opacity:1;fill-rule:nonzero;stroke:none" transform="translate(181.747 542.415)"/><path d="m0 0-.077 2.028-2.149.358-.081 2.08 2.113.519-.078 2.027-10.216-2.822.086-2.176zm-3.904 2.621-3.75.589v.021l3.692.862z" style="fill:#4f9d9d;fill-opacity:1;fill-rule:nonzero;stroke:none" transform="translate(128.777 564.9)"/><path d="M0 0c.941.718 1.315 1.173 1.411 1.721.09.492-.195.9-.685.99-1.48.268-3.109-2.36-5.559-1.915-1.448.266-2.364 1.599-2.091 3.079.118.653.421 1.244.976 1.87l1.893-.349c-.723-.798-.963-1.173-1.043-1.623-.09-.489.128-.888.54-.961 1.198-.22 3.196 2.451 5.59 2.014C2.647 4.534 3.65 3.179 3.375 1.68 3.245.969 2.888.351 2.174-.396Z" style="fill:#4f9d9d;fill-opacity:1;fill-rule:nonzero;stroke:none" transform="translate(125.936 574.51)"/><path d="m0 0 .796 1.869L-.99 3.112l.816 1.919 2.131-.437.796 1.866-10.448 1.816-.852-2.002Zm-2.406 4.047-3.147 2.127.012.022 3.712-.794z" style="fill:#4f9d9d;fill-opacity:1;fill-rule:nonzero;stroke:none" transform="translate(130.127 580.802)"/><path d="m0 0 1.186 1.542L7.31.003l.017.022-4.6 3.523 1.197 1.569 8.142-6.241-1.107-1.445L4.561-.976 4.54-.989l4.806-3.683L8.15-6.241Z" style="fill:#4f9d9d;fill-opacity:1;fill-rule:nonzero;stroke:none" transform="translate(125.934 595.486)"/><path d="m0 0 4.198 2.446L5.09.918 2.71-.474l1.214-2.09 2.299 1.343.899-1.532-2.304-1.341 2.166-3.712-1.806-1.056Z" style="fill:#4f9d9d;fill-opacity:1;fill-rule:nonzero;stroke:none" transform="translate(139.487 608.866)"/><path d="M0 0c1.103-3.688 3.316-4.605 5.022-4.095 1.503.457 3.124 2.243 1.97 6.085-1.108 3.682-3.358 4.494-5 4.002C.266 5.475-1.009 3.333 0 0m2.068.524c-.581 1.928-.585 3.213.504 3.542 1.192.356 1.859-.98 2.369-2.678.71-2.359.436-3.268-.499-3.551-1.097-.331-1.786.731-2.374 2.687" style="fill:#4f9d9d;fill-opacity:1;fill-rule:nonzero;stroke:none" transform="translate(149.304 608.43)"/><path d="m0 0 .204-7.06c.022-.811.429-1.383 1.175-1.365.812.023 1.116.618 1.09 1.55L2.272.065l2.096.061.189-6.745c.068-2.25-.932-3.677-3.125-3.739-1.917-.058-3.261.972-3.334 3.525l-.193 6.769z" style="fill:#4f9d9d;fill-opacity:1;fill-rule:nonzero;stroke:none" transform="translate(162.166 616.199)"/><path d="m0 0 1.896-.441L3.008-6.66l.028-.007 1.321 5.649 1.92-.448-2.334-9.993-1.781.417L.987-4.549l-.025.004-1.38-5.895-1.919.45z" style="fill:#4f9d9d;fill-opacity:1;fill-rule:nonzero;stroke:none" transform="translate(172.16 615.754)"/><path d="m0 0 2.5-1.345c2.512-1.35 4.771.68 5.89 2.751C9.572 3.61 9.812 6.374 7.268 7.744l-2.407 1.29Zm2.665.534 3.221 5.988.54-.289c1.274-.681.94-2.209.022-3.916C5.475.505 4.438-.426 3.11.292Z" style="fill:#4f9d9d;fill-opacity:1;fill-rule:nonzero;stroke:none" transform="translate(178.978 603.202)"/><path d="m0 0 1.506-1.351L3.262-.057l1.553-1.389-1.1-1.882L5.23-4.679l5.071 9.308-1.62 1.454zm4.595.984 3.031 2.29.02-.013L5.697 0Z" style="fill:#4f9d9d;fill-opacity:1;fill-rule:nonzero;stroke:none" transform="translate(186.133 599.152)"/><path d="m0 0-1.247 1.707L.188 2.749 3.912-2.35 2.478-3.39 1.239-1.691l-6.854-5.008-1.237 1.695Z" style="fill:#4f9d9d;fill-opacity:1;fill-rule:nonzero;stroke:none" transform="translate(200.095 597.02)"/><path d="m0 0 .896-1.892-9.269-4.401-.896 1.897z" style="fill:#4f9d9d;fill-opacity:1;fill-rule:nonzero;stroke:none" transform="translate(206.166 590.67)"/><path d="M0 0c-3.744-.887-4.795-3.038-4.381-4.775.361-1.525 2.053-3.254 5.954-2.323 3.74.881 4.688 3.083 4.292 4.748C5.449-.596 3.39.807 0 0m.401-2.099c1.959.461 3.243.391 3.503-.714.287-1.207-1.086-1.793-2.807-2.205-2.402-.571-3.297-.246-3.52.706-.268 1.117.837 1.744 2.824 2.213" style="fill:#4f9d9d;fill-opacity:1;fill-rule:nonzero;stroke:none" transform="translate(204.098 582.952)"/><path d="m0 0-.07-1.944-5.876-2.307v-.024l5.795-.199-.062-1.972-10.256.342.063 1.829 6.133 2.417v.025l-6.046.204.06 1.973z" style="fill:#4f9d9d;fill-opacity:1;fill-rule:nonzero;stroke:none" transform="translate(211.16 571.57)"/><path d="M0 0a13.4 13.4 0 0 1-9.513 3.943 13.26 13.26 0 0 1-7.184-2.082c-1.914-1.124-4.084-2.868-6.682-5.59-3.512-3.693-12.418-17.133-15.936-22.068-2.538-3.551-6.801-9.748-8.644-12.916-2.262-3.902-4.161-6.141-3.073-7.343 1.884-2.079 4.101 3.546 4.553 1.284.17-.859-4.035-7.371-7.052-12.742-1.55-2.768-.07-7.13 5.827-3.523 0 0 3.423 2.918 6.536 6.048 4.349 4.362 8.246 9.454 13.186 13.521 3.586 2.941 9.168 9.334 12.778 12.815 2.61 2.519 1.537 3.713 3.788 6.414 1.163 1.411 2.465 2.636 3.798 3.737 2.251 1.276 3.471.164 5.207-1.685 2.53-2.694 6.444-7.566 8.954-9.887 3.46-3.198 8.536-8.363 11.545-11.76.308-.351 3.162-3.505 5.912-.888 1.173 1.126.629 2.888-.418 4.683l.007.014s.185-.181.373-.023l.012.011c.762.764-2.137 4.461-3.479 7.475C9.919-10.227 2.976-2.243-.992.924" style="fill:#006769;fill-opacity:1;fill-rule:nonzero;stroke:none" transform="translate(177.046 594.027)"/><path d="M0 0c-.372-1.194-4.51-1.208-8.273-1.58-3.263-.322-12.356-1.089-15.025-1.176-3.594-.131-9.58-.699-12.279-.318-5.415.776-6.822 2.901-7.861 4.751-1.966 3.52-1.663 9.295.294 10.345 2.015 1.085 4.31-.48 8.548-.392 1.849.038 3.246-.055 5.207-.263 2.785-.303 5.654-.445 8.451-.992 3.999-.772 9.865-1.29 14.055-1.656 3.121-.267 6.445-1.256 6.445-1.256 5.194-1.738 3.312-4.288 1.779-4.859-.422-.157-2.351-.841-2.351-1.253C-1.01.941.081.272 0 0" style="fill:#f68b1e;fill-opacity:1;fill-rule:nonzero;stroke:none" transform="translate(183.759 553.506)"/><path d="M0 0h5.12l-6.826 21.27H-7.19L-14.26 0h4.815l1.462 4.752h6.672zm-2.285 8.349h-4.784l2.529 8.838h.061z" style="fill:#006769;fill-opacity:1;fill-rule:nonzero;stroke:none" transform="translate(257.545 528.437)"/><path d="M0 0c-1.278.519-2.468.853-3.869.853-1.25 0-1.797-.61-1.797-1.157 0-.976.699-1.31 3.32-2.287C-.7-3.2.976-4.236.976-7.222c0-3.533-2.65-4.905-5.851-4.905-1.401 0-3.534.152-5.211.761l.122 3.718c1.158-.703 2.621-1.098 3.962-1.098 2.255 0 2.407.793 2.407 1.494 0 .702-1.249 1.006-3.321 1.859-1.676.7-3.322 2.04-3.322 4.874 0 1.707 1.219 4.754 5.942 4.754 1.981 0 3.626-.365 4.419-.639z" style="fill:#006769;fill-opacity:1;fill-rule:nonzero;stroke:none" transform="translate(273.664 540.32)"/><path d="M0 0c1.89 1.128 3.198 1.402 4.418 1.402.702 0 2.957 0 2.957-3.047H5.912c-1.677 0-7.862-.031-7.862-5.332 0-2.895 1.95-4.815 4.906-4.815 2.285 0 4.144 1.463 4.357 2.437h.062l.121-2.193h4.388c-.091 1.067-.122 2.133-.122 4.48v5.79c0 3.533-1.28 5.849-6.857 5.849-1.736 0-3.869-.609-5.118-1.004zm7.375-4.814c0-3.87-2.438-3.931-2.865-3.931-.396 0-2.072 0-2.072 2.073 0 2.651 3.016 2.772 4.937 2.772z" style="fill:#006769;fill-opacity:1;fill-rule:nonzero;stroke:none" transform="translate(278.205 539.985)"/><path d="M0 0c0 1.98-.884 2.498-1.858 2.498-1.554 0-2.104-1.341-2.104-3.381v-8.899h-4.814V2.773c0 1.522-.03 2.498-.121 3.32h4.387c.062-.7.122-1.583.122-2.65h.062c.73 1.738 1.95 2.894 4.478 2.894 3.505 0 4.661-2.558 4.661-5.728V-9.782H0Z" style="fill:#006769;fill-opacity:1;fill-rule:nonzero;stroke:none" transform="translate(301.728 538.219)"/><path d="M0 0h-.062l-4.784-16.82h-3.292L-12.738 0h-.062v-16.82h-4.57V4.45h7.527l3.444-13.682h.059L-2.62 4.45h7.19v-21.27H0Z" style="fill:#006769;fill-opacity:1;fill-rule:nonzero;stroke:none" transform="translate(334.913 545.257)"/><path d="M0 0c0 8.288-5.455 8.288-6.887 8.288-4.54 0-7.038-3.869-7.038-8.136 0-4.845 2.467-8.227 8.044-8.227 1.645 0 3.474.333 5.027.914l-.091 3.625c-1.188-.638-2.834-1.248-4.479-1.248-2.712 0-3.931 1.736-3.931 3.627H0Zm-9.355 1.461c0 .855 0 3.901 2.468 3.901 1.98 0 2.498-1.888 2.498-3.901z" style="fill:#006769;fill-opacity:1;fill-rule:nonzero;stroke:none" transform="translate(356.394 536.268)"/><path d="M0 0h-4.814v-9.323h-.062c-.579 1.433-1.857 2.589-4.082 2.589-3.993 0-5.578-3.535-5.578-7.8 0-5.06 2.012-8.563 5.578-8.563 2.771 0 3.839 1.798 4.325 2.773h.061c0-1.097.063-1.919.124-2.529h4.57C.06-22.122 0-21.299 0-19.289Zm-9.538-14.931c0 2.531.183 4.908 2.316 4.908 1.949 0 2.408-2.377 2.408-4.908 0-1.829-.428-4.691-2.408-4.691-2.195 0-2.316 3.046-2.316 4.691" style="fill:#006769;fill-opacity:1;fill-rule:nonzero;stroke:none" transform="translate(373.062 551.29)"/><path d="M372.11 541.328h4.814v-4.266h-4.814zm0-6.979h4.814v-15.875h-4.814z" style="fill:#006769;fill-opacity:1;fill-rule:nonzero;stroke:none" transform="translate(4.15 9.962)"/><path d="M0 0c-1.403-.364-2.834-.67-4.358-.67-6.125 0-7.496 5.12-7.496 8.013 0 4.876 2.803 8.35 7.862 8.35 1.585 0 2.438-.398 3.84-.761l-.245-3.627c-.884.336-1.798.671-2.802.671-3.658 0-3.658-4.023-3.658-4.633 0-3.35 2.073-4.417 3.9-4.417 1.006 0 1.922.364 2.805.701z" style="fill:#006769;fill-opacity:1;fill-rule:nonzero;stroke:none" transform="translate(395.489 528.863)"/><path d="M0 0c1.891 1.128 3.199 1.402 4.419 1.402.701 0 2.956 0 2.956-3.047H5.912c-1.676 0-7.861-.031-7.861-5.332 0-2.895 1.949-4.815 4.906-4.815 2.285 0 4.145 1.463 4.356 2.437h.062l.121-2.193h4.39c-.092 1.067-.122 2.133-.122 4.48v5.79c0 3.533-1.283 5.849-6.856 5.849-1.739 0-3.872-.609-5.121-1.004zm7.375-4.814c0-3.87-2.437-3.931-2.863-3.931-.399 0-2.074 0-2.074 2.073 0 2.651 3.018 2.772 4.937 2.772z" style="fill:#006769;fill-opacity:1;fill-rule:nonzero;stroke:none" transform="translate(398.808 539.985)"/><path d="M409.56 541.328h4.813v-22.853h-4.813z" style="fill:#006769;fill-opacity:1;fill-rule:nonzero;stroke:none" transform="translate(4.15 9.962)"/><path d="M0 0c-.762.426-2.041 1.216-4.326 1.216-3.354 0-5.486-2.709-5.486-7.007 0-4.143 2.41-6.948 5.576-6.948 2.438 0 3.871.915 4.358 1.129l.183-4.45c-.852-.274-2.619-.761-5.332-.761-5.822 0-9.903 4.356-9.903 11.092 0 7.8 5.242 10.909 9.568 10.909 3.169 0 4.784-.701 5.607-1.037z" style="fill:#006769;fill-opacity:1;fill-rule:nonzero;stroke:none" transform="translate(443.998 544.892)"/><path d="M0 0c0 8.288-5.451 8.288-6.885 8.288-4.541 0-7.041-3.869-7.041-8.136 0-4.845 2.469-8.227 8.045-8.227 1.646 0 3.475.333 5.028.914l-.089 3.625c-1.191-.638-2.836-1.248-4.482-1.248-2.712 0-3.93 1.736-3.93 3.627H0Zm-9.354 1.461c0 .855 0 3.901 2.469 3.901 1.98 0 2.497-1.888 2.497-3.901z" style="fill:#006769;fill-opacity:1;fill-rule:nonzero;stroke:none" transform="translate(460.055 536.268)"/><path d="M0 0c0 1.98-.884 2.498-1.859 2.498-1.554 0-2.104-1.341-2.104-3.381v-8.899h-4.814V2.773c0 1.522-.03 2.498-.121 3.32h4.389c.06-.7.12-1.583.12-2.65h.062c.731 1.738 1.949 2.894 4.479 2.894 3.504 0 4.662-2.558 4.662-5.728V-9.782H0Z" style="fill:#006769;fill-opacity:1;fill-rule:nonzero;stroke:none" transform="translate(471.36 538.219)"/><path d="M0 0h2.743v3.262l4.691 1.493V0h3.109v-3.381H7.434v-7.284c0-1.552.702-1.978 1.616-1.978.67 0 1.096.121 1.584.332v-3.38c-.488-.184-1.797-.427-3.353-.427-2.497 0-4.662 1.22-4.662 4.692v8.045H0Z" style="fill:#006769;fill-opacity:1;fill-rule:nonzero;stroke:none" transform="translate(477.973 544.311)"/><path d="M0 0c0 8.288-5.455 8.288-6.889 8.288-4.539 0-7.038-3.869-7.038-8.136 0-4.845 2.47-8.227 8.046-8.227 1.644 0 3.474.333 5.027.914l-.091 3.625c-1.189-.638-2.834-1.248-4.479-1.248-2.714 0-3.931 1.736-3.931 3.627H0Zm-9.355 1.461c0 .855 0 3.901 2.466 3.901 1.982 0 2.5-1.888 2.5-3.901z" style="fill:#006769;fill-opacity:1;fill-rule:nonzero;stroke:none" transform="translate(504.301 536.268)"/><path d="M0 0c0 1.522-.031 2.498-.123 3.319h4.39c.03-.943.091-1.918.121-2.864h.061c.976 1.707 1.645 3.109 4.42 3.109h.699v-4.45a6.266 6.266 0 0 1-1.614.184c-2.805 0-3.139-2.438-3.139-4.753v-7.1H0Z" style="fill:#006769;fill-opacity:1;fill-rule:nonzero;stroke:none" transform="translate(506.829 540.992)"/><path d="M455.847 589.82h6.824v-4.345h-6.824zm-6.63-9.164h-10.396v6.969h10.396zm13.454 14.005h-6.824v5.031h-6.63v-7.171H438.82v7.171h-6.551v-21.738c0-1.206 1.046-2.184 2.327-2.184h21.251v4.863h6.824v-6.921h6.554v26.445h-6.554z" style="fill:#006769;fill-opacity:1;fill-rule:nonzero;stroke:none" transform="translate(4.15 9.962)"/><path d="M0 0v-10.914c0-1.207 1.051-2.185 2.327-2.185l29.09.002v4.987H6.704V0Z" style="fill:#006769;fill-opacity:1;fill-rule:nonzero;stroke:none" transform="translate(487.324 576.504)"/><path d="M0 0h6.704v6.293h18.272V4.246h-9.955V-.779h9.955v-4.773h6.564v35.931h-6.564V11.311H-6.586V6.293H0Z" style="fill:#006769;fill-opacity:1;fill-rule:nonzero;stroke:none" transform="translate(487.324 579.61)"/><path d="M0 0h-7.374v-31.381H0v15.902h6.704v4.933H0Z" style="fill:#006769;fill-opacity:1;fill-rule:nonzero;stroke:none" transform="translate(424.526 610.128)"/><path d="M0 0h-7.37v-47.688H0v29.258h6.701v4.942H0Z" style="fill:#006769;fill-opacity:1;fill-rule:nonzero;stroke:none" transform="translate(376.6 610.128)"/><path d="M0 0c4.136 0 4.82-7.518 4.82-12.896 0-5.367-.684-12.892-4.82-12.892-4.135 0-4.819 7.525-4.819 12.892C-4.819-7.518-4.135 0 0 0m0-30.73c9.006 0 12.026 10.366 12.026 17.834C12.026-5.422 9.006 4.945 0 4.945c-9.004 0-12.02-10.367-12.02-17.841 0-7.468 3.016-17.834 12.02-17.834" style="fill:#006769;fill-opacity:1;fill-rule:nonzero;stroke:none" transform="translate(351.709 605.064)"/><path d="M0 0c.386-1.4 5.613-7.281 9.856-9.501l3.279 4.18C10.049-3.336 7.686-.75 6.03 2.46 4.375 5.654 3.569 9.703 3.607 14.608v2.821H-4.11v-2.821c.043-4.905-.776-8.954-2.425-12.148-1.656-3.21-4.028-5.796-7.105-7.781l3.275-4.18C-6.121-7.281-.384-1.4 0 0" style="fill:#006769;fill-opacity:1;fill-rule:nonzero;stroke:none" transform="translate(400.093 592.229)"/><path d="M0 0v-14.619a2.232 2.232 0 0 1 2.231-2.23l27.417.002v5.089H7.359V0Z" style="fill:#006769;fill-opacity:1;fill-rule:nonzero;stroke:none" transform="translate(395.075 580.355)"/><path d="M0 0c0 3.773 4.187 5.692 9.342 5.692 5.159 0 9.337-1.977 9.337-5.692 0-3.719-4.178-5.692-9.337-5.692C4.187-5.692 0-3.773 0 0m26.178 0c0 6.42-7.536 10.181-16.839 10.181C.033 10.181-7.502 6.415-7.502 0c0-6.411 7.535-10.183 16.841-10.183 9.303 0 16.839 3.762 16.839 10.183" style="fill:#006769;fill-opacity:1;fill-rule:nonzero;stroke:none" transform="translate(447.02 571.681)"/><path d="M0 0c3.076 0 5.564-1.666 5.564-4.971S3.076-9.942 0-9.942c-3.075 0-5.568 1.715-5.568 4.971C-5.568-1.711-3.075 0 0 0m0-13.814c7.145 0 12.937 3.207 12.937 8.843C12.937.669 7.145 3.87 0 3.87c-7.142 0-12.924-3.238-12.924-8.841 0-5.604 5.782-8.843 12.924-8.843" style="fill:#006769;fill-opacity:1;fill-rule:nonzero;stroke:none" transform="translate(495.104 606.856)"/><path d="M0 0H-14.429v-4.971h28.151v-2.861h-28.151l-.009-10.549c0-1.207 1.043-2.185 2.322-2.185l33.937-.011v5.005H-7.043v3.132h28.147V0H7.376v2.994H25.27v5.027h-43.161V2.994H0Z" style="fill:#006769;fill-opacity:1;fill-rule:nonzero;stroke:none" transform="translate(308.409 584.27)"/><path d="M0 0h10.3v-30.835h7.393v47.746H10.3V4.834H0Z" style="fill:#006769;fill-opacity:1;fill-rule:nonzero;stroke:none" transform="translate(265.46 593.217)"/><path d="M0 0c0-2.745-4.286-4.174-9.587-4.174-5.297 0-9.595 1.401-9.595 4.174 0 2.776 4.298 4.183 9.595 4.183C-4.286 4.183 0 2.753 0 0m-27.629.004c0-5.492 8.081-8.609 18.042-8.609C.381-8.605 8.461-5.476 8.461.004c0 5.474-8.08 8.614-18.048 8.614-9.961 0-18.042-3.122-18.042-8.614" style="fill:#006769;fill-opacity:1;fill-rule:nonzero;stroke:none" transform="translate(321.68 602.618)"/><path d="M0 0c.403-1.399 6.355-7.883 10.665-9.503l3.444 4.183C10.875-3.331 8.388-.749 6.63 2.454c-1.732 3.198-2.999 8.335-2.955 13.234v11.199H-3.68V15.688c.05-4.899-1.211-10.036-2.949-13.234C-8.38-.749-10.871-3.331-14.11-5.32l3.448-4.183C-6.349-7.883-.4-1.399 0 0" style="fill:#006769;fill-opacity:1;fill-rule:nonzero;stroke:none" transform="translate(255.553 582.768)"/></g></svg>