<svg xmlns="http://www.w3.org/2000/svg" width="392.81229mm" height="104.99065mm" viewBox="0 0 392.81229 104.99065"><defs><radialGradient id="a" cx="0" cy="0" r="1" fx="0" fy="0" gradientTransform="translate(154.092 580.638) scale(58.79637)" gradientUnits="userSpaceOnUse" spreadMethod="pad"><stop offset="0" style="stop-opacity:1;stop-color:#fff"/><stop offset="0.258423" style="stop-opacity:1;stop-color:#fff"/><stop offset="0.88048946" style="stop-opacity:1;stop-color:#a3a3a7"/><stop offset="0.904495" style="stop-opacity:1;stop-color:#a3a3a7"/><stop offset="1" style="stop-opacity:1;stop-color:#a3a3a7"/></radialGradient><radialGradient id="b" cx="0" cy="0" r="1" fx="0" fy="0" gradientTransform="matrix(59.54822 0 0 59.54803 153.231 579.863)" gradientUnits="userSpaceOnUse" spreadMethod="pad"><stop offset="0" style="stop-opacity:1;stop-color:#96b1dc"/><stop offset="0.21818053" style="stop-opacity:1;stop-color:#2d5599"/><stop offset="0.247192" style="stop-opacity:1;stop-color:#2d5599"/><stop offset="0.567413" style="stop-opacity:1;stop-color:#144683"/><stop offset="0.90541913" style="stop-opacity:1;stop-color:#010030"/><stop offset="1" style="stop-opacity:1;stop-color:#010030"/></radialGradient><radialGradient id="d" cx="0" cy="0" r="1" fx="0" fy="0" gradientTransform="translate(153.892 580.828) scale(63.56755)" gradientUnits="userSpaceOnUse" spreadMethod="pad"><stop offset="0" style="stop-opacity:1;stop-color:#96b1dc"/><stop offset="0.21818053" style="stop-opacity:1;stop-color:#2d5599"/><stop offset="0.247192" style="stop-opacity:1;stop-color:#2d5599"/><stop offset="0.567413" style="stop-opacity:1;stop-color:#144683"/><stop offset="0.90541913" style="stop-opacity:1;stop-color:#010030"/><stop offset="1" style="stop-opacity:1;stop-color:#010030"/></radialGradient><radialGradient id="f" cx="0" cy="0" r="1" fx="0" fy="0" gradientTransform="translate(154.063 580.567) scale(58.75621)" gradientUnits="userSpaceOnUse" spreadMethod="pad"><stop offset="0" style="stop-opacity:1;stop-color:#fff"/><stop offset="0.258423" style="stop-opacity:1;stop-color:#fff"/><stop offset="0.88048946" style="stop-opacity:1;stop-color:#a3a3a7"/><stop offset="0.904495" style="stop-opacity:1;stop-color:#a3a3a7"/><stop offset="1" style="stop-opacity:1;stop-color:#a3a3a7"/></radialGradient><radialGradient id="g" cx="0" cy="0" r="1" fx="0" fy="0" gradientTransform="translate(155.913 577.917) scale(43.58873)" gradientUnits="userSpaceOnUse" spreadMethod="pad"><stop offset="0" style="stop-opacity:1;stop-color:#96b1dc"/><stop offset="0.21818053" style="stop-opacity:1;stop-color:#2d5599"/><stop offset="0.247192" style="stop-opacity:1;stop-color:#2d5599"/><stop offset="0.567413" style="stop-opacity:1;stop-color:#144683"/><stop offset="0.90541913" style="stop-opacity:1;stop-color:#010030"/><stop offset="1" style="stop-opacity:1;stop-color:#010030"/></radialGradient><radialGradient id="h" cx="0" cy="0" r="1" fx="0" fy="0" gradientTransform="matrix(58.92622 0 0 58.92622 152.564 578.627)" gradientUnits="userSpaceOnUse" spreadMethod="pad"><stop offset="0" style="stop-opacity:1;stop-color:#96b1dc"/><stop offset="0.21818053" style="stop-opacity:1;stop-color:#2d5599"/><stop offset="0.247192" style="stop-opacity:1;stop-color:#2d5599"/><stop offset="0.567413" style="stop-opacity:1;stop-color:#144683"/><stop offset="0.90541913" style="stop-opacity:1;stop-color:#010030"/><stop offset="1" style="stop-opacity:1;stop-color:#010030"/></radialGradient><radialGradient id="i" cx="0" cy="0" r="1" fx="0" fy="0" gradientTransform="translate(154.076 580.606) scale(58.72937)" gradientUnits="userSpaceOnUse" spreadMethod="pad"><stop offset="0" style="stop-opacity:1;stop-color:#fff"/><stop offset="0.10112" style="stop-opacity:1;stop-color:#fff"/><stop offset="0.31041043" style="stop-opacity:1;stop-color:#fff"/><stop offset="1" style="stop-opacity:1;stop-color:#96969a"/></radialGradient><radialGradient id="j" cx="0" cy="0" r="1" fx="0" fy="0" gradientTransform="matrix(63.64844 0 0 63.64844 154.409 580.445)" gradientUnits="userSpaceOnUse" spreadMethod="pad"><stop offset="0" style="stop-opacity:1;stop-color:#96b1dc"/><stop offset="0.21818053" style="stop-opacity:1;stop-color:#2d5599"/><stop offset="0.247192" style="stop-opacity:1;stop-color:#2d5599"/><stop offset="0.567413" style="stop-opacity:1;stop-color:#144683"/><stop offset="0.90541913" style="stop-opacity:1;stop-color:#010030"/><stop offset="1" style="stop-opacity:1;stop-color:#010030"/></radialGradient><radialGradient id="k" cx="0" cy="0" r="1" fx="0" fy="0" gradientTransform="matrix(63.628 0 0 63.628 154.45 580.48)" gradientUnits="userSpaceOnUse" spreadMethod="pad"><stop offset="0" style="stop-opacity:1;stop-color:#96b1dc"/><stop offset="0.21818053" style="stop-opacity:1;stop-color:#2d5599"/><stop offset="0.247192" style="stop-opacity:1;stop-color:#2d5599"/><stop offset="0.567413" style="stop-opacity:1;stop-color:#144683"/><stop offset="0.90541913" style="stop-opacity:1;stop-color:#010030"/><stop offset="1" style="stop-opacity:1;stop-color:#010030"/></radialGradient><radialGradient id="l" cx="0" cy="0" r="1" fx="0" fy="0" gradientTransform="matrix(64.41338 0 0 64.41338 154.365 580.947)" gradientUnits="userSpaceOnUse" spreadMethod="pad"><stop offset="0" style="stop-opacity:1;stop-color:#96b1dc"/><stop offset="0.21818053" style="stop-opacity:1;stop-color:#2d5599"/><stop offset="0.247192" style="stop-opacity:1;stop-color:#2d5599"/><stop offset="0.567413" style="stop-opacity:1;stop-color:#144683"/><stop offset="0.90541913" style="stop-opacity:1;stop-color:#010030"/><stop offset="1" style="stop-opacity:1;stop-color:#010030"/></radialGradient><radialGradient id="m" cx="0" cy="0" r="1" fx="0" fy="0" gradientTransform="translate(154.455 580.73) scale(64.06027)" gradientUnits="userSpaceOnUse" spreadMethod="pad"><stop offset="0" style="stop-opacity:1;stop-color:#96b1dc"/><stop offset="0.21818053" style="stop-opacity:1;stop-color:#2d5599"/><stop offset="0.247192" style="stop-opacity:1;stop-color:#2d5599"/><stop offset="0.567413" style="stop-opacity:1;stop-color:#144683"/><stop offset="0.90541913" style="stop-opacity:1;stop-color:#010030"/><stop offset="1" style="stop-opacity:1;stop-color:#010030"/></radialGradient><radialGradient id="n" cx="0" cy="0" r="1" fx="0" fy="0" gradientTransform="matrix(58.0478 .01523 .01523 -58.0478 152.133 577.338)" gradientUnits="userSpaceOnUse" spreadMethod="pad"><stop offset="0" style="stop-opacity:1;stop-color:#fff"/><stop offset="0.10112" style="stop-opacity:1;stop-color:#fff"/><stop offset="0.31041043" style="stop-opacity:1;stop-color:#fff"/><stop offset="1" style="stop-opacity:1;stop-color:#aeafb2"/></radialGradient><radialGradient id="o" cx="0" cy="0" r="1" fx="0" fy="0" gradientTransform="matrix(58.01695 .01521 .01521 -58.01694 152.152 577.338)" gradientUnits="userSpaceOnUse" spreadMethod="pad"><stop offset="0" style="stop-opacity:1;stop-color:#fff"/><stop offset="0.10112" style="stop-opacity:1;stop-color:#fff"/><stop offset="0.31041043" style="stop-opacity:1;stop-color:#fff"/><stop offset="1" style="stop-opacity:1;stop-color:#aeafb2"/></radialGradient><radialGradient id="p" cx="0" cy="0" r="1" fx="0" fy="0" gradientTransform="matrix(58.01208 0 0 -58.01208 152.158 577.334)" gradientUnits="userSpaceOnUse" spreadMethod="pad"><stop offset="0" style="stop-opacity:1;stop-color:#fff"/><stop offset="0.10112" style="stop-opacity:1;stop-color:#fff"/><stop offset="0.31041043" style="stop-opacity:1;stop-color:#fff"/><stop offset="1" style="stop-opacity:1;stop-color:#aeafb2"/></radialGradient><radialGradient id="q" cx="0" cy="0" r="1" fx="0" fy="0" gradientTransform="matrix(58.0327 0 0 -58.0327 152.154 577.346)" gradientUnits="userSpaceOnUse" spreadMethod="pad"><stop offset="0" style="stop-opacity:1;stop-color:#fff"/><stop offset="0.10112" style="stop-opacity:1;stop-color:#fff"/><stop offset="0.31041043" style="stop-opacity:1;stop-color:#fff"/><stop offset="1" style="stop-opacity:1;stop-color:#aeafb2"/></radialGradient><radialGradient id="r" cx="0" cy="0" r="1" fx="0" fy="0" gradientTransform="matrix(58.05302 0 0 -58.05302 152.155 577.36)" gradientUnits="userSpaceOnUse" spreadMethod="pad"><stop offset="0" style="stop-opacity:1;stop-color:#fff"/><stop offset="0.10112" style="stop-opacity:1;stop-color:#fff"/><stop offset="0.31041043" style="stop-opacity:1;stop-color:#fff"/><stop offset="1" style="stop-opacity:1;stop-color:#aeafb2"/></radialGradient><radialGradient id="s" cx="0" cy="0" r="1" fx="0" fy="0" gradientTransform="matrix(58.00735 0 0 -58.00735 152.153 577.325)" gradientUnits="userSpaceOnUse" spreadMethod="pad"><stop offset="0" style="stop-opacity:1;stop-color:#fff"/><stop offset="0.10112" style="stop-opacity:1;stop-color:#fff"/><stop offset="0.31041043" style="stop-opacity:1;stop-color:#fff"/><stop offset="1" style="stop-opacity:1;stop-color:#aeafb2"/></radialGradient><radialGradient id="t" cx="0" cy="0" r="1" fx="0" fy="0" gradientTransform="matrix(58.0283 0 0 -58.0283 152.153 577.342)" gradientUnits="userSpaceOnUse" spreadMethod="pad"><stop offset="0" style="stop-opacity:1;stop-color:#fff"/><stop offset="0.10112" style="stop-opacity:1;stop-color:#fff"/><stop offset="0.31041043" style="stop-opacity:1;stop-color:#fff"/><stop offset="1" style="stop-opacity:1;stop-color:#aeafb2"/></radialGradient><radialGradient id="u" cx="0" cy="0" r="1" fx="0" fy="0" gradientTransform="matrix(58.01776 0 0 -58.01776 152.159 577.336)" gradientUnits="userSpaceOnUse" spreadMethod="pad"><stop offset="0" style="stop-opacity:1;stop-color:#fff"/><stop offset="0.10112" style="stop-opacity:1;stop-color:#fff"/><stop offset="0.31041043" style="stop-opacity:1;stop-color:#fff"/><stop offset="1" style="stop-opacity:1;stop-color:#aeafb2"/></radialGradient><radialGradient id="v" cx="0" cy="0" r="1" fx="0" fy="0" gradientTransform="matrix(58.05637 0 0 -58.05637 152.17 577.374)" gradientUnits="userSpaceOnUse" spreadMethod="pad"><stop offset="0" style="stop-opacity:1;stop-color:#fff"/><stop offset="0.10112" style="stop-opacity:1;stop-color:#fff"/><stop offset="0.31041043" style="stop-opacity:1;stop-color:#fff"/><stop offset="1" style="stop-opacity:1;stop-color:#aeafb2"/></radialGradient><radialGradient id="w" cx="0" cy="0" r="1" fx="0" fy="0" gradientTransform="matrix(58.04054 0 0 -58.04053 152.155 577.355)" gradientUnits="userSpaceOnUse" spreadMethod="pad"><stop offset="0" style="stop-opacity:1;stop-color:#fff"/><stop offset="0.10112" style="stop-opacity:1;stop-color:#fff"/><stop offset="0.31041043" style="stop-opacity:1;stop-color:#fff"/><stop offset="1" style="stop-opacity:1;stop-color:#aeafb2"/></radialGradient><radialGradient id="x" cx="0" cy="0" r="1" fx="0" fy="0" gradientTransform="matrix(58.04378 0 0 -58.04376 152.13 577.343)" gradientUnits="userSpaceOnUse" spreadMethod="pad"><stop offset="0" style="stop-opacity:1;stop-color:#fff"/><stop offset="0.10112" style="stop-opacity:1;stop-color:#fff"/><stop offset="0.31041043" style="stop-opacity:1;stop-color:#fff"/><stop offset="1" style="stop-opacity:1;stop-color:#aeafb2"/></radialGradient><radialGradient id="y" cx="0" cy="0" r="1" fx="0" fy="0" gradientTransform="matrix(58.02873 0 0 -58.02872 152.159 577.35)" gradientUnits="userSpaceOnUse" spreadMethod="pad"><stop offset="0" style="stop-opacity:1;stop-color:#fff"/><stop offset="0.10112" style="stop-opacity:1;stop-color:#fff"/><stop offset="0.31041043" style="stop-opacity:1;stop-color:#fff"/><stop offset="1" style="stop-opacity:1;stop-color:#aeafb2"/></radialGradient><radialGradient id="z" cx="0" cy="0" r="1" fx="0" fy="0" gradientTransform="matrix(58.02504 0 0 -58.02504 152.158 577.345)" gradientUnits="userSpaceOnUse" spreadMethod="pad"><stop offset="0" style="stop-opacity:1;stop-color:#fff"/><stop offset="0.10112" style="stop-opacity:1;stop-color:#fff"/><stop offset="0.31041043" style="stop-opacity:1;stop-color:#fff"/><stop offset="1" style="stop-opacity:1;stop-color:#aeafb2"/></radialGradient><radialGradient id="A" cx="0" cy="0" r="1" fx="0" fy="0" gradientTransform="matrix(58.02068 0 0 -58.02066 152.152 577.332)" gradientUnits="userSpaceOnUse" spreadMethod="pad"><stop offset="0" style="stop-opacity:1;stop-color:#fff"/><stop offset="0.10112" style="stop-opacity:1;stop-color:#fff"/><stop offset="0.31041043" style="stop-opacity:1;stop-color:#fff"/><stop offset="1" style="stop-opacity:1;stop-color:#aeafb2"/></radialGradient><radialGradient id="B" cx="0" cy="0" r="1" fx="0" fy="0" gradientTransform="matrix(58.0308 0 0 -58.0308 152.15 577.345)" gradientUnits="userSpaceOnUse" spreadMethod="pad"><stop offset="0" style="stop-opacity:1;stop-color:#fff"/><stop offset="0.10112" style="stop-opacity:1;stop-color:#fff"/><stop offset="0.31041043" style="stop-opacity:1;stop-color:#fff"/><stop offset="1" style="stop-opacity:1;stop-color:#aeafb2"/></radialGradient><radialGradient id="C" cx="0" cy="0" r="1" fx="0" fy="0" gradientTransform="matrix(58.05502 0 0 -58.05502 152.157 577.345)" gradientUnits="userSpaceOnUse" spreadMethod="pad"><stop offset="0" style="stop-opacity:1;stop-color:#fff"/><stop offset="0.10112" style="stop-opacity:1;stop-color:#fff"/><stop offset="0.31041043" style="stop-opacity:1;stop-color:#fff"/><stop offset="1" style="stop-opacity:1;stop-color:#aeafb2"/></radialGradient><radialGradient id="D" cx="0" cy="0" r="1" fx="0" fy="0" gradientTransform="matrix(58.02965 0 0 -58.02965 152.157 577.342)" gradientUnits="userSpaceOnUse" spreadMethod="pad"><stop offset="0" style="stop-opacity:1;stop-color:#fff"/><stop offset="0.10112" style="stop-opacity:1;stop-color:#fff"/><stop offset="0.31041043" style="stop-opacity:1;stop-color:#fff"/><stop offset="1" style="stop-opacity:1;stop-color:#aeafb2"/></radialGradient><radialGradient id="E" cx="0" cy="0" r="1" fx="0" fy="0" gradientTransform="matrix(57.99924 0 0 -57.99924 152.153 577.342)" gradientUnits="userSpaceOnUse" spreadMethod="pad"><stop offset="0" style="stop-opacity:1;stop-color:#fff"/><stop offset="0.10112" style="stop-opacity:1;stop-color:#fff"/><stop offset="0.31041043" style="stop-opacity:1;stop-color:#fff"/><stop offset="1" style="stop-opacity:1;stop-color:#aeafb2"/></radialGradient><radialGradient id="F" cx="0" cy="0" r="1" fx="0" fy="0" gradientTransform="matrix(58.04318 0 0 -58.04317 152.154 577.338)" gradientUnits="userSpaceOnUse" spreadMethod="pad"><stop offset="0" style="stop-opacity:1;stop-color:#fff"/><stop offset="0.10112" style="stop-opacity:1;stop-color:#fff"/><stop offset="0.31041043" style="stop-opacity:1;stop-color:#fff"/><stop offset="1" style="stop-opacity:1;stop-color:#aeafb2"/></radialGradient><radialGradient id="G" cx="0" cy="0" r="1" fx="0" fy="0" gradientTransform="matrix(58.01683 0 0 -58.01683 152.157 577.34)" gradientUnits="userSpaceOnUse" spreadMethod="pad"><stop offset="0" style="stop-opacity:1;stop-color:#fff"/><stop offset="0.10112" style="stop-opacity:1;stop-color:#fff"/><stop offset="0.31041043" style="stop-opacity:1;stop-color:#fff"/><stop offset="1" style="stop-opacity:1;stop-color:#aeafb2"/></radialGradient><radialGradient id="H" cx="0" cy="0" r="1" fx="0" fy="0" gradientTransform="matrix(58.03435 0 0 -58.03435 152.155 577.339)" gradientUnits="userSpaceOnUse" spreadMethod="pad"><stop offset="0" style="stop-opacity:1;stop-color:#fff"/><stop offset="0.10112" style="stop-opacity:1;stop-color:#fff"/><stop offset="0.31041043" style="stop-opacity:1;stop-color:#fff"/><stop offset="1" style="stop-opacity:1;stop-color:#aeafb2"/></radialGradient><radialGradient id="I" cx="0" cy="0" r="1" fx="0" fy="0" gradientTransform="matrix(57.99468 0 0 -57.99468 152.165 577.34)" gradientUnits="userSpaceOnUse" spreadMethod="pad"><stop offset="0" style="stop-opacity:1;stop-color:#fff"/><stop offset="0.10112" style="stop-opacity:1;stop-color:#fff"/><stop offset="0.31041043" style="stop-opacity:1;stop-color:#fff"/><stop offset="1" style="stop-opacity:1;stop-color:#aeafb2"/></radialGradient><radialGradient id="J" cx="0" cy="0" r="1" fx="0" fy="0" gradientTransform="matrix(58.06493 0 0 -58.06491 152.138 577.344)" gradientUnits="userSpaceOnUse" spreadMethod="pad"><stop offset="0" style="stop-opacity:1;stop-color:#fff"/><stop offset="0.10112" style="stop-opacity:1;stop-color:#fff"/><stop offset="0.31041043" style="stop-opacity:1;stop-color:#fff"/><stop offset="1" style="stop-opacity:1;stop-color:#aeafb2"/></radialGradient><radialGradient id="K" cx="0" cy="0" r="1" fx="0" fy="0" gradientTransform="matrix(58.0606 0 0 -58.0606 152.141 577.333)" gradientUnits="userSpaceOnUse" spreadMethod="pad"><stop offset="0" style="stop-opacity:1;stop-color:#fff"/><stop offset="0.10112" style="stop-opacity:1;stop-color:#fff"/><stop offset="0.31041043" style="stop-opacity:1;stop-color:#fff"/><stop offset="1" style="stop-opacity:1;stop-color:#aeafb2"/></radialGradient><radialGradient id="L" cx="0" cy="0" r="1" fx="0" fy="0" gradientTransform="matrix(58.0739 0 0 -58.0739 152.13 577.345)" gradientUnits="userSpaceOnUse" spreadMethod="pad"><stop offset="0" style="stop-opacity:1;stop-color:#fff"/><stop offset="0.10112" style="stop-opacity:1;stop-color:#fff"/><stop offset="0.31041043" style="stop-opacity:1;stop-color:#fff"/><stop offset="1" style="stop-opacity:1;stop-color:#aeafb2"/></radialGradient><radialGradient id="M" cx="0" cy="0" r="1" fx="0" fy="0" gradientTransform="matrix(57.98996 0 0 -57.98994 152.174 577.342)" gradientUnits="userSpaceOnUse" spreadMethod="pad"><stop offset="0" style="stop-opacity:1;stop-color:#fff"/><stop offset="0.10112" style="stop-opacity:1;stop-color:#fff"/><stop offset="0.31041043" style="stop-opacity:1;stop-color:#fff"/><stop offset="1" style="stop-opacity:1;stop-color:#aeafb2"/></radialGradient><radialGradient id="N" cx="0" cy="0" r="1" fx="0" fy="0" gradientTransform="matrix(58.0543 0 0 -58.0543 152.136 577.34)" gradientUnits="userSpaceOnUse" spreadMethod="pad"><stop offset="0" style="stop-opacity:1;stop-color:#fff"/><stop offset="0.10112" style="stop-opacity:1;stop-color:#fff"/><stop offset="0.31041043" style="stop-opacity:1;stop-color:#fff"/><stop offset="1" style="stop-opacity:1;stop-color:#aeafb2"/></radialGradient><radialGradient id="O" cx="0" cy="0" r="1" fx="0" fy="0" gradientTransform="matrix(58.01654 0 0 -58.01653 152.16 577.34)" gradientUnits="userSpaceOnUse" spreadMethod="pad"><stop offset="0" style="stop-opacity:1;stop-color:#fff"/><stop offset="0.10112" style="stop-opacity:1;stop-color:#fff"/><stop offset="0.31041043" style="stop-opacity:1;stop-color:#fff"/><stop offset="1" style="stop-opacity:1;stop-color:#aeafb2"/></radialGradient><radialGradient id="P" cx="0" cy="0" r="1" fx="0" fy="0" gradientTransform="matrix(58.0644 0 0 -58.0644 152.128 577.343)" gradientUnits="userSpaceOnUse" spreadMethod="pad"><stop offset="0" style="stop-opacity:1;stop-color:#fff"/><stop offset="0.10112" style="stop-opacity:1;stop-color:#fff"/><stop offset="0.31041043" style="stop-opacity:1;stop-color:#fff"/><stop offset="1" style="stop-opacity:1;stop-color:#aeafb2"/></radialGradient><radialGradient id="Q" cx="0" cy="0" r="1" fx="0" fy="0" gradientTransform="matrix(58.06142 0 0 -58.06142 152.128 577.34)" gradientUnits="userSpaceOnUse" spreadMethod="pad"><stop offset="0" style="stop-opacity:1;stop-color:#fff"/><stop offset="0.10112" style="stop-opacity:1;stop-color:#fff"/><stop offset="0.31041043" style="stop-opacity:1;stop-color:#fff"/><stop offset="1" style="stop-opacity:1;stop-color:#aeafb2"/></radialGradient><radialGradient id="R" cx="0" cy="0" r="1" fx="0" fy="0" gradientTransform="matrix(58.05559 0 0 -58.05559 152.13 577.34)" gradientUnits="userSpaceOnUse" spreadMethod="pad"><stop offset="0" style="stop-opacity:1;stop-color:#fff"/><stop offset="0.10112" style="stop-opacity:1;stop-color:#fff"/><stop offset="0.31041043" style="stop-opacity:1;stop-color:#fff"/><stop offset="1" style="stop-opacity:1;stop-color:#aeafb2"/></radialGradient><radialGradient id="S" cx="0" cy="0" r="1" fx="0" fy="0" gradientTransform="matrix(57.97095 0 0 -57.97095 152.198 577.337)" gradientUnits="userSpaceOnUse" spreadMethod="pad"><stop offset="0" style="stop-opacity:1;stop-color:#fff"/><stop offset="0.10112" style="stop-opacity:1;stop-color:#fff"/><stop offset="0.31041043" style="stop-opacity:1;stop-color:#fff"/><stop offset="1" style="stop-opacity:1;stop-color:#aeafb2"/></radialGradient><linearGradient id="c" x1="0" x2="1" y1="0" y2="0" gradientTransform="rotate(-45 780.786 118.161) scale(68.7271)" gradientUnits="userSpaceOnUse" spreadMethod="pad"><stop offset="0" style="stop-opacity:1;stop-color:#c3c6c8"/><stop offset="0.74781451" style="stop-opacity:1;stop-color:#504f53"/><stop offset="1" style="stop-opacity:1;stop-color:#504f53"/></linearGradient><linearGradient id="e" x1="0" x2="1" y1="0" y2="0" gradientTransform="scale(-47.18775) rotate(-45 -15.936 -1.03)" gradientUnits="userSpaceOnUse" spreadMethod="pad"><stop offset="0" style="stop-opacity:1;stop-color:#fff"/><stop offset="0.74781451" style="stop-opacity:1;stop-color:#504f53"/><stop offset="1" style="stop-opacity:1;stop-color:#504f53"/></linearGradient></defs><path d="M133.591 562.603c0-19.708 15.982-35.685 35.685-35.685 19.704 0 35.678 15.977 35.678 35.685 0 19.709-15.974 35.687-35.678 35.687-19.703 0-35.685-15.978-35.685-35.687" style="fill:url(#a);stroke:none" transform="matrix(1.46537 0 0 -1.46537 -195.556 876.918)"/><path d="M133.452 562.603c0-19.75 16.067-35.822 35.824-35.822 19.748 0 35.818 16.072 35.818 35.822 0 19.753-16.07 35.826-35.818 35.826-19.757 0-35.824-16.073-35.824-35.826m.272 0c0 19.601 15.954 35.545 35.552 35.545 19.599 0 35.546-15.944 35.546-35.545 0-19.6-15.947-35.547-35.546-35.547-19.598 0-35.552 15.947-35.552 35.547" style="fill:url(#b);stroke:none" transform="matrix(1.46537 0 0 -1.46537 -195.556 876.918)"/><path d="M135.003 562.603c0-18.928 15.344-34.273 34.273-34.273 18.923 0 34.27 15.345 34.27 34.273 0 18.929-15.347 34.28-34.27 34.28-18.929 0-34.273-15.351-34.273-34.28" style="fill:url(#c);stroke:none" transform="matrix(1.46537 0 0 -1.46537 -195.556 876.918)"/><path d="M135.42 562.603c0-18.697 15.159-33.854 33.856-33.854 18.694 0 33.848 15.157 33.848 33.854 0 18.699-15.154 33.855-33.848 33.855-18.697 0-33.856-15.156-33.856-33.855" style="fill:url(#d);stroke:none" transform="matrix(1.46537 0 0 -1.46537 -195.556 876.918)"/><path d="M145.651 562.603c0-13.043 10.577-23.625 23.625-23.625 13.045 0 23.618 10.582 23.618 23.625 0 13.047-10.573 23.63-23.618 23.63-13.048 0-23.625-10.583-23.625-23.63" style="fill:url(#e);stroke:none" transform="matrix(1.46537 0 0 -1.46537 -195.556 876.918)"/><path d="M146.23 562.622c0-12.723 10.318-23.041 23.046-23.041 12.725 0 23.04 10.318 23.04 23.041 0 12.731-10.315 23.048-23.04 23.048-12.728 0-23.046-10.317-23.046-23.048" style="fill:url(#f);stroke:none" transform="matrix(1.46537 0 0 -1.46537 -195.556 876.918)"/><path d="M179.479 573.064v-1.138h-13.807v1.138h-3.3v-1.138h-8.669v-2.923h2.613c-1.814-.787-2.977-2.513-2.977-5.038 0-3.376 3.179-5.305 5.74-5.305h9.563v1.025h2.707v-1.025h13.673v2.92h-2.254v7.423h2.254v2.923h-2.254v1.138z" style="fill:url(#g);stroke:none" transform="matrix(1.46537 0 0 -1.46537 -195.556 876.918)"/><path d="M178.434 574.182v-1.191h-11.552v1.177l-5.551.014v-1.191h-8.788v-4.974h.857c-.874-1.11-1.302-2.422-1.302-4.128 0-1.386.597-2.911 1.598-4.085 1.17-1.518 3.224-2.459 5.356-2.459h10.738v1.074h.608v-1.046l15.883-.028-.01 5.158h-2.281v5.391h2.291l.009 5.097h-2.224v1.194zm.281-1.472v1.187l5.063.005v-1.192h2.22l-.008-4.534h-2.29v-5.961h2.286c.003-.259.004-4.327.004-4.587-.27.002-15.032.026-15.305.026v1.049h-1.176v-1.075h-10.457c-2.044 0-4.01.902-5.136 2.355-.963 1.127-1.533 2.585-1.533 3.906 0 1.753.442 3.08 1.401 4.179l.209.236-1.166-.004v4.41h8.79v1.184l4.977-.007v-1.177z" style="fill:url(#h);stroke:none" transform="matrix(1.46537 0 0 -1.46537 -195.556 876.918)"/><path d="M177.04 570.033v-5.46a3.664 3.664 0 0 1-1.542.334c-1.607 0-2.878-.964-2.888-2.139.01-1.188 1.281-2.144 2.888-2.144 1.599 0 2.869.956 2.879 2.144h.006v3.481h1.13v.767h-1.13v1.116h1.13v.77h-1.13v1.131zm-3.091-7.265c0 .87.739 1.393 1.549 1.393.809 0 1.542-.523 1.542-1.393 0-.866-.733-1.397-1.542-1.397-.81 0-1.549.531-1.549 1.397m-9.144 7.265v-6.296h1.334v3.279h1.092v.774h-1.092v2.243zm-4.588-.77h2.626v.769h-2.626zm11.132-1.548c0-1.203 1.15-2.175 2.657-2.175 1.522 0 2.662.972 2.662 2.175 0 1.195-1.14 2.168-2.662 2.168-1.507 0-2.657-.973-2.657-2.168m1.365 0c0 .897.575 1.504 1.292 1.504.716 0 1.301-.607 1.301-1.504 0-.927-.583-1.511-1.301-1.511-.713 0-1.292.584-1.292 1.511m-13.652 1.226v-.775h.932c-.561-.344-.913-.87-.913-1.461 0-1.033 1.058-1.871 2.449-1.871 1.384 0 2.435.838 2.435 1.871 0 .591-.342 1.117-.903 1.461h.929v.775zm1.281-2.236c0 .768.528 1.353 1.187 1.353.652 0 1.184-.585 1.184-1.353 0-.786-.532-1.353-1.184-1.353-.659 0-1.187.567-1.187 1.353m-.233-2.59v-1.79c0-.894.577-1.442 1.528-1.442l4.59-.003v.772h-4.666v2.463z" style="fill:url(#i);stroke:none" transform="matrix(1.46537 0 0 -1.46537 -195.556 876.918)"/><path d="M165.356 552.374a2.093 2.093 0 0 1-.646-.307 1.622 1.622 0 0 1-.468-.536c-.128-.211-.186-.472-.186-.773 0-.25.058-.468.159-.643.102-.18.238-.327.398-.438.164-.117.35-.193.553-.253.204-.047.406-.073.591-.073.252 0 .486.043.712.133.224.087.45.193.674.321-.052-.941-.495-1.409-1.328-1.409-.083 0-.186.008-.287.023-.113.01-.219.039-.322.079-.104.03-.196.081-.294.134a.802.802 0 0 0-.218.201.222.222 0 0 0-.039.104.668.668 0 0 0-.015.112l-.094.05-.483-.978.064-.064a.239.239 0 0 0 .149.056.35.35 0 0 0 .173-.069c.068-.048.159-.093.274-.144.104-.065.252-.111.418-.15.168-.033.379-.057.614-.057.348 0 .659.06.947.173.276.118.523.29.723.513.207.222.365.488.47.806.113.311.165.657.165 1.043 0 .33-.047.631-.145.904a2.015 2.015 0 0 1-.409.711 1.815 1.815 0 0 1-.629.462c-.246.11-.517.165-.811.165a2.75 2.75 0 0 1-.71-.096m.259-2.25a.962.962 0 0 0-.331.136.599.599 0 0 0-.229.248.867.867 0 0 0-.088.381c0 .158.039.283.088.392a.657.657 0 0 0 .229.242c.104.064.209.111.331.138.126.022.247.04.379.04.125 0 .249-.018.376-.04a.943.943 0 0 0 .332-.138.628.628 0 0 0 .227-.242.798.798 0 0 0 .083-.392.749.749 0 0 0-.083-.381.576.576 0 0 0-.227-.248.872.872 0 0 0-.332-.136 1.65 1.65 0 0 0-.755 0" style="fill:url(#j);stroke:none" transform="matrix(1.46537 0 0 -1.46537 -195.556 876.918)"/><path d="M174.064 552.374a2.029 2.029 0 0 1-.636-.307 1.612 1.612 0 0 1-.476-.536c-.123-.211-.18-.472-.18-.773 0-.25.051-.468.152-.643.104-.18.241-.327.403-.438.163-.117.35-.193.554-.253.21-.047.406-.073.598-.073.243 0 .481.043.703.133.229.087.457.193.683.321-.062-.941-.499-1.409-1.332-1.409-.091 0-.187.008-.293.023-.103.01-.214.039-.318.079-.112.03-.208.081-.295.134a.818.818 0 0 0-.215.201.34.34 0 0 0-.04.104.406.406 0 0 0-.014.112l-.097.05-.481-.978.061-.064a.239.239 0 0 0 .155.056c.037 0 .091-.022.165-.069.069-.048.162-.093.273-.144.11-.065.253-.111.42-.15.172-.033.376-.057.615-.057.346 0 .663.06.945.173.284.118.522.29.731.513.202.222.357.488.465.806.11.311.162.657.162 1.043 0 .33-.044.631-.138.904a2.096 2.096 0 0 1-.418.711 1.761 1.761 0 0 1-.629.462 1.95 1.95 0 0 1-.809.165 2.85 2.85 0 0 1-.714-.096m.264-2.25a.888.888 0 0 0-.331.136.656.656 0 0 0-.229.248.805.805 0 0 0-.081.381c0 .158.027.283.081.392a.729.729 0 0 0 .229.242c.1.064.203.111.331.138.125.022.251.04.376.04.136 0 .256-.018.379-.04a.874.874 0 0 0 .334-.138.705.705 0 0 0 .231-.242.913.913 0 0 0 .082-.392.856.856 0 0 0-.082-.381.638.638 0 0 0-.231-.248.814.814 0 0 0-.334-.136 1.662 1.662 0 0 0-.755 0" style="fill:url(#k);stroke:none" transform="matrix(1.46537 0 0 -1.46537 -195.556 876.918)"/><path d="M169.63 552.365a2.888 2.888 0 0 1-.538-.222 2.167 2.167 0 0 1-.31-.232c-.073-.068-.122-.103-.154-.103a.232.232 0 0 0-.134.041l-.095-.077.636-.913.075.054c-.013.028-.018.063-.023.094 0 .032-.005.062-.005.086 0 .067.034.143.113.214.084.07.188.137.314.192.117.064.259.114.406.145.156.039.296.057.438.057.123 0 .254-.008.366-.022a1.2 1.2 0 0 0 .33-.087.542.542 0 0 0 .239-.172.441.441 0 0 0 .095-.29.488.488 0 0 0-.105-.307.847.847 0 0 0-.254-.205 1.798 1.798 0 0 0-.312-.095 2.243 2.243 0 0 0-.3-.022.886.886 0 0 0-.346.057c-.104.036-.16.117-.177.238h-.091v-1.215h.091c.036.109.096.172.191.202.098.025.205.037.332.037.094 0 .205-.006.332-.022.114-.015.236-.049.35-.092a.824.824 0 0 0 .284-.2.54.54 0 0 0 .111-.352.523.523 0 0 0-.12-.359.842.842 0 0 0-.293-.219 1.464 1.464 0 0 0-.364-.116 2.304 2.304 0 0 0-.347-.031c-.117 0-.275.024-.45.059a2.41 2.41 0 0 0-.518.174 1.475 1.475 0 0 0-.423.271.495.495 0 0 0-.172.365v.063c0 .033.003.057.01.063l-.089.046-.469-1.28.07-.024c.023.011.043.024.063.037a.137.137 0 0 0 .07.018.674.674 0 0 0 .219-.083c.106-.061.24-.127.402-.189.157-.069.343-.13.548-.18a2.91 2.91 0 0 1 .678-.076c.212 0 .44.024.686.06.241.036.464.113.667.231.199.115.373.273.506.469.135.195.204.45.204.749 0 .268-.074.493-.22.665a.986.986 0 0 1-.565.352v.024a.71.71 0 0 1 .46.345 1.1 1.1 0 0 1 .168.591c0 .231-.057.428-.161.593-.105.167-.25.295-.424.401-.173.1-.359.179-.576.229a2.881 2.881 0 0 1-.63.068c-.309 0-.57-.037-.789-.105" style="fill:url(#l);stroke:none" transform="matrix(1.46537 0 0 -1.46537 -195.556 876.918)"/><path d="M162.238 552.47v-.105a.311.311 0 0 0 .137-.057c.037-.022.051-.074.051-.158a.304.304 0 0 0-.089-.226.316.316 0 0 0-.229-.098.365.365 0 0 0-.138.035c-.054.019-.073.059-.073.107h-.096v-1.123h.096a.21.21 0 0 0 .078.113.738.738 0 0 0 .288.094c.049.007.091.007.13.007v-2.982c0-.106-.021-.172-.056-.201a.208.208 0 0 0-.145-.052v-.106h1.327v.106a.216.216 0 0 0-.147.052c-.043.029-.059.095-.059.201v4.09c0 .06.016.104.059.138.045.028.1.047.16.06v.105z" style="fill:url(#m);stroke:none" transform="matrix(1.46537 0 0 -1.46537 -195.556 876.918)"/><path d="M201.382 563.5h-2.163l-.002 2.164h-1.955V563.5h-2.16l.002-1.952 2.161.003v-2.163h1.954v2.163h2.163z" style="fill:url(#n);stroke:none" transform="matrix(1.46537 0 0 -1.46537 -195.556 876.918)"/><path d="M143.432 563.5h-2.161v2.164h-1.954l.002-2.164h-2.163v-1.952l2.163.003v-2.163h1.952v2.163h2.161z" style="fill:url(#o);stroke:none" transform="matrix(1.46537 0 0 -1.46537 -195.556 876.918)"/><path d="m140.696 548.097.59-.962 1.6.873c.411.224 1.026.551 1.562.846l.009-.012a20.924 20.924 0 0 1-1.281-1.138l-1.317-1.274.504-.819 1.74.583c.342.118 1.035.364 1.605.603l.01-.016a25.334 25.334 0 0 1-1.48-.971l-1.504-1.032.614-1.003 4.75 3.336-.728 1.18-1.772-.654c-.678-.259-1.342-.512-1.923-.776l-.013.011c.511.426 1.007.897 1.546 1.399l1.388 1.289-.73 1.183z" style="fill:url(#p);stroke:none" transform="matrix(1.46537 0 0 -1.46537 -195.556 876.918)"/><path d="m145.099 541.68 1.88-2.008.841.786-.971 1.036.959.892.86-.922.807.75-.865.922.791.739.903-.965.84.789-1.814 1.939z" style="fill:url(#q);stroke:none" transform="matrix(1.46537 0 0 -1.46537 -195.556 876.918)"/><path d="M148.88 537.968c.169-.162.454-.426.772-.661.695-.518 1.268-.718 1.802-.674.732.044 1.487.575 2.151 1.463.643.87.924 1.625.796 2.312-.101.532-.428 1-1.055 1.467-.4.297-.803.531-1.071.661zm1.809-.086c-.047.037-.108.084-.13.124l2.197 2.958c.065-.014.113-.052.17-.089.46-.345.251-1.045-.39-1.909-.641-.859-1.144-1.192-1.515-1.192a.554.554 0 0 0-.332.108" style="fill:url(#r);stroke:none" transform="matrix(1.46537 0 0 -1.46537 -195.556 876.918)"/><path d="m153.676 534.701 1.178-.628 2.723 5.117-1.18.622z" style="fill:url(#s);stroke:none" transform="matrix(1.46537 0 0 -1.46537 -195.556 876.918)"/><path d="M157.717 535.792c-.523-1.411-.365-2.907 1.166-3.474.378-.137.708-.196.877-.186l.283 1.089a2.51 2.51 0 0 0-.512.116c-.624.229-.889.885-.469 2.023.442 1.21 1.105 1.534 1.719 1.307a.996.996 0 0 0 .424-.277l.583.978c-.083.104-.317.284-.712.426a2.35 2.35 0 0 1-.817.148c-.955 0-1.97-.601-2.542-2.15" style="fill:url(#t);stroke:none" transform="matrix(1.46537 0 0 -1.46537 -195.556 876.918)"/><path d="m161.371 531.58 1.266-.242.405 1.088.923-.177-.028-1.156 1.269-.239.034 5.89-1.585.298zm1.989 1.826.376 1.05c.105.294.312.911.435 1.255l.022-.005-.079-1.322-.061-1.109z" style="fill:url(#u);stroke:none" transform="matrix(1.46537 0 0 -1.46537 -195.556 876.918)"/><path d="m167.225 530.694 2.75-.077.027 1.126-1.417.04.128 4.666-1.332.036z" style="fill:url(#v);stroke:none" transform="matrix(1.46537 0 0 -1.46537 -195.556 876.918)"/><path d="M175.678 537.267c-1.182-.252-2.213-1.398-1.763-3.491.318-1.47 1.249-2.649 2.845-2.306.392.084.704.212.838.313l-.342 1.07a2.044 2.044 0 0 0-.494-.175c-.655-.145-1.229.27-1.483 1.458-.27 1.258.116 1.885.751 2.024.219.043.373.023.513-.007l-.037 1.137a.987.987 0 0 1-.309.039c-.14 0-.315-.017-.519-.062" style="fill:url(#w);stroke:none" transform="matrix(1.46537 0 0 -1.46537 -195.556 876.918)"/><path d="m177.726 537.806 2.143-5.384 2.557 1.015-.427 1.072-1.32-.523-.482 1.212 1.175.469-.404 1.023-1.177-.47-.401 1.008 1.229.487-.422 1.072z" style="fill:url(#x);stroke:none" transform="matrix(1.46537 0 0 -1.46537 -195.556 876.918)"/><path d="m183.613 540.716.492-.795c.578-.927 1.254-1.832 1.537-2.219l-.018-.009c-.361.304-.98.779-1.298 1.015l-1.792 1.334-1.029-.641 3.06-4.916.986.61-.529.85c-.597.961-1.15 1.75-1.435 2.16l.012.01c.314-.309.946-.818 1.34-1.1l1.693-1.247 1.026.642-3.061 4.919z" style="fill:url(#y);stroke:none" transform="matrix(1.46537 0 0 -1.46537 -195.556 876.918)"/><path d="m185.409 541.95.82-.926.755.669 3.024-3.405.995.885-3.026 3.405.76.675-.823.925z" style="fill:url(#z);stroke:none" transform="matrix(1.46537 0 0 -1.46537 -195.556 876.918)"/><path d="m188.653 544.984 4.466-3.682 1.753 2.122-.889.731-.9-1.095-1.009.833.802.973-.85.698-.801-.973-.834.691.841 1.02-.887.732z" style="fill:url(#A);stroke:none" transform="matrix(1.46537 0 0 -1.46537 -195.556 876.918)"/><path d="M193.044 550.648c-.514-.172-.885-.666-1.202-1.219a8.255 8.255 0 0 1-.566-1.226l4.964-2.817.653 1.153-1.93 1.093.065.111c.142.253.366.309 1.003.044.567-.237 1.163-.412 1.327-.428l.689 1.213c-.249.009-1.045.267-1.599.459-.54.191-.931.194-1.27-.049l-.018.008c.057.653-.312 1.186-.806 1.466-.299.17-.571.272-.861.272-.144 0-.292-.025-.449-.08m-.286-1.768a.68.68 0 0 0 .092.229c.216.349.573.335.939.129.366-.209.582-.58.373-.954l-.085-.148z" style="fill:url(#B);stroke:none" transform="matrix(1.46537 0 0 -1.46537 -195.556 876.918)"/><path d="m139.602 572.872 1.935-.627-.32-.984-1.929.63-.308-.936 4.823-1.572.305.94-2.018.656.32.982 2.016-.657.307.938-4.822 1.569z" style="fill:url(#C);stroke:none" transform="matrix(1.46537 0 0 -1.46537 -195.556 876.918)"/><path d="m141.266 576.808 3.972-3.339.446.843-.92.743.426.804 1.126-.347.447.843-4.948 1.498zm2.024-.652c-.237.185-.666.496-.947.701l.014.021c.324-.117.798-.295 1.095-.392l1.015-.35-.337-.638z" style="fill:url(#D);stroke:none" transform="matrix(1.46537 0 0 -1.46537 -195.556 876.918)"/><path d="m144.814 582.314.884-.685c.74-.566 1.48-1.051 1.921-1.35l-.01-.015c-.436.158-1.099.357-1.502.474l-2.053.594-.551-.716 4.017-3.093.531.686-.902.691c-.811.625-1.455 1.074-1.873 1.367l.007.012a14.703 14.703 0 0 1 1.524-.526l1.999-.56.551.715-4.018 3.092z" style="fill:url(#E);stroke:none" transform="matrix(1.46537 0 0 -1.46537 -195.556 876.918)"/><path d="m148.265 585.98.595-1.077c.179-.324.373-.65.583-.961l-.012-.01a15.23 15.23 0 0 1-.927.606l-1.088.647-.763-.722 2.955-1.522 1.327-1.416.718.676-1.353 1.443-1.288 3.034z" style="fill:url(#F);stroke:none" transform="matrix(1.46537 0 0 -1.46537 -195.556 876.918)"/><path d="m150.927 588.128 1.999-4.787.78.547-.477 1.081.748.517.842-.824.784.549-3.707 3.596zm1.497-1.502c-.122.268-.363.745-.518 1.053l.024.012c.228-.251.573-.626.789-.851l.745-.774-.589-.414z" style="fill:url(#G);stroke:none" transform="matrix(1.46537 0 0 -1.46537 -195.556 876.918)"/><path d="m156.604 591.403.477-1.017c.393-.846.828-1.613 1.083-2.086l-.012-.002c-.32.339-.818.819-1.12 1.108l-1.549 1.468-.822-.383 2.154-4.592.782.366-.481 1.027a45.455 45.455 0 0 1-1.042 2.075l.017.008c.294-.37.781-.848 1.108-1.166l1.521-1.415.819.38-2.151 4.595z" style="fill:url(#H);stroke:none" transform="matrix(1.46537 0 0 -1.46537 -195.556 876.918)"/><path d="M161.638 593.185c-1.037-.283-1.853-1.298-1.391-3.085.211-.846.634-1.513 1.165-1.802.415-.238.88-.285 1.441-.133.351.098.78.305.966.453l-.708 2.61-1.317-.354.213-.776.438.117.319-1.184a.615.615 0 0 0-.184-.075c-.44-.119-1.015.179-1.332 1.356-.344 1.277.049 1.86.696 2.036.238.063.431.071.587.043l-.057.866c-.06.01-.135.017-.224.017a2.33 2.33 0 0 1-.612-.089" style="fill:url(#I);stroke:none" transform="matrix(1.46537 0 0 -1.46537 -195.556 876.918)"/><path d="m169.252 594.089.051-3.293c.016-.767-.181-.974-.468-.981-.256-.003-.485.219-.497.961l-.062 3.297-.986-.017.057-3.13c.024-1.274.449-1.997 1.512-1.973.978.013 1.452.732 1.433 2.032l-.057 3.124z" style="fill:url(#J);stroke:none" transform="matrix(1.46537 0 0 -1.46537 -195.556 876.918)"/><path d="m172.01 588.925.854-.135.178 1.124c.16 1.009.247 1.788.306 2.3l.012-.004c.038-.473.172-1.14.267-1.59l.465-2.022.893-.142.791 5.009-.857.138-.171-1.109c-.149-.924-.215-1.804-.272-2.334l-.015.001a33.537 33.537 0 0 1-.305 1.549l-.462 2.082-.893.145z" style="fill:url(#K);stroke:none" transform="matrix(1.46537 0 0 -1.46537 -195.556 876.918)"/><path d="m176.62 588.005.945-.287 1.486 4.85-.947.288z" style="fill:url(#L);stroke:none" transform="matrix(1.46537 0 0 -1.46537 -195.556 876.918)"/><path d="m179.833 586.859 1.006-.461 3.163 4.127-.983.45-1.218-1.824a44.816 44.816 0 0 1-.962-1.521l-.015.004a34.3 34.3 0 0 1 .495 1.713l.584 2.138-.991.458z" style="fill:url(#M);stroke:none" transform="matrix(1.46537 0 0 -1.46537 -195.556 876.918)"/><path d="m182.965 585.257 1.919-1.263.47.717-1.093.723.754 1.144.969-.64.452.687-.969.636.639.973 1.02-.671.472.717-1.841 1.21z" style="fill:url(#N);stroke:none" transform="matrix(1.46537 0 0 -1.46537 -195.556 876.918)"/><path d="m186.07 583.084.728-.662 1.363 1.503.106-.099c.242-.223.236-.461-.12-.99-.317-.466-.578-.918-.627-1.065l.762-.693c.061.199.379.755.683 1.236.295.471.387.826.217 1.156l.01.012c.545-.17 1.074.016 1.435.418.294.322.456.635.411 1.047-.039.445-.347.826-.753 1.191-.275.25-.594.487-.863.648zm2.728 1.282-.129.12 1.017 1.12a.772.772 0 0 0 .192-.136c.319-.308.242-.65-.049-.97-.174-.193-.391-.304-.605-.304a.63.63 0 0 0-.426.17" style="fill:url(#O);stroke:none" transform="matrix(1.46537 0 0 -1.46537 -195.556 876.918)"/><path d="M191.896 582.472c-.356-.288-.603-.829-.498-1.633.055-.508.055-.796-.233-1.029-.254-.209-.585-.186-.877.179-.177.223-.331.541-.372.772l-.753-.424c.029-.191.199-.567.454-.881.625-.775 1.529-.92 2.247-.339.417.335.659.849.552 1.627-.085.634-.06.853.173 1.041.212.17.538.174.804-.156.18-.221.253-.443.275-.61l.76.412c-.025.173-.155.475-.364.733-.371.46-.805.662-1.226.662-.335 0-.661-.128-.942-.354" style="fill:url(#P);stroke:none" transform="matrix(1.46537 0 0 -1.46537 -195.556 876.918)"/><path d="m191.47 577.019.524-.836 4.302 2.688-.526.835z" style="fill:url(#Q);stroke:none" transform="matrix(1.46537 0 0 -1.46537 -195.556 876.918)"/><path d="m196.468 576.761.379-.811-3.776-1.755.418-.895 3.773 1.755.384-.819.823.383-1.175 2.525z" style="fill:url(#R);stroke:none" transform="matrix(1.46537 0 0 -1.46537 -195.556 876.918)"/><path d="m196.434 570.953-1.863-.538.269-.945 1.901.545 3.285-.239-.278.982-1.227-.037a13.91 13.91 0 0 1-1.121-.079l-.002.012c.336.177.673.377.956.553l1.072.665-.291 1.012z" style="fill:url(#S);stroke:none" transform="matrix(1.46537 0 0 -1.46537 -195.556 876.918)"/><path d="M0 0h-3.861v-19.334H0v10.47h3.799v2.249H0Z" style="fill:#00407c;fill-opacity:1;fill-rule:nonzero;stroke:none" transform="matrix(1.46537 0 0 -1.46537 155.022 22.012)"/><path d="M0 0h-3.857v-9.869h17.088v2.285H0Z" style="fill:#00407c;fill-opacity:1;fill-rule:nonzero;stroke:none" transform="matrix(1.46537 0 0 -1.46537 136.291 47.037)"/><path d="M0 0c4.386 0 4.386-8.865 0-8.865C-4.417-8.865-4.417 0 0 0m4.231.678h3.496v2.281H1.935v2.176H-1.93V2.959h-5.784V.678h3.484C-8.508-2.618-7.097-10.883.01-10.883c7.073 0 8.471 8.265 4.221 11.561" style="fill:#00407c;fill-opacity:1;fill-rule:nonzero;stroke:none" transform="matrix(1.46537 0 0 -1.46537 256.632 28.228)"/><path d="M0 0h3.636v20.763h-18.689v-2.284H0Z" style="fill:#00407c;fill-opacity:1;fill-rule:nonzero;stroke:none" transform="matrix(1.46537 0 0 -1.46537 310.218 52.392)"/><path d="M0 0c4.381 0 4.381-8.865 0-8.865C-4.418-8.865-4.418 0 0 0m4.227.678h3.492v2.281H1.93v2.176h-3.86V2.959h-5.792V.678h3.484C-8.511-2.618-7.102-10.883 0-10.883c7.078 0 8.481 8.265 4.227 11.561" style="fill:#00407c;fill-opacity:1;fill-rule:nonzero;stroke:none" transform="matrix(1.46537 0 0 -1.46537 135.131 28.228)"/><path d="M0 0v11.689h-3.564V0h-2.557v11.689h-3.567V0h-3.897v-2.284H7.539V0Z" style="fill:#00407c;fill-opacity:1;fill-rule:nonzero;stroke:none" transform="matrix(1.46537 0 0 -1.46537 306.702 55.523)"/><path d="M0 0h-1.792v8.343h-3.632V-7.026h-7.21V6.058h5.322v2.285h-9.185V-9.315h11.073v-9.322h3.632v16.351H0v-16.351h3.626v26.98H0Z" style="fill:#00407c;fill-opacity:1;fill-rule:nonzero;stroke:none" transform="matrix(1.46537 0 0 -1.46537 233.087 34.237)"/><path d="M0 0h-3.887v-14.386H0v3.786h3.805v2.287H0v3.262h3.805v2.259H0Z" style="fill:#00407c;fill-opacity:1;fill-rule:nonzero;stroke:none" transform="matrix(1.46537 0 0 -1.46537 195.336 22.055)"/><path d="M0 0h13.484v-7.613h3.86v9.869H0Z" style="fill:#00407c;fill-opacity:1;fill-rule:nonzero;stroke:none" transform="matrix(1.46537 0 0 -1.46537 251.113 50.343)"/><path d="M0 0c4.672 0 4.672-9.691 0-9.691C-4.694-9.691-4.694 0 0 0m0 2.156c-9.557 0-9.557-13.976 0-13.976 9.538 0 9.538 13.976 0 13.976" style="fill:#00407c;fill-opacity:1;fill-rule:nonzero;stroke:none" transform="matrix(1.46537 0 0 -1.46537 175.83 24.313)"/><path d="M0 0h-3.859v-15.831H0v6.967h3.794v2.249H0Z" style="fill:#00407c;fill-opacity:1;fill-rule:nonzero;stroke:none" transform="matrix(1.46537 0 0 -1.46537 276.527 22.012)"/><path d="M0 0c-4.821 0-4.821 9.136 0 9.136C4.791 9.136 4.791 0 0 0m0 11.21c-9.853 0-9.886-13.352 0-13.352 9.887 0 9.822 13.352 0 13.352" style="fill:#00407c;fill-opacity:1;fill-rule:nonzero;stroke:none" transform="matrix(1.46537 0 0 -1.46537 185.02 59.72)"/><path d="M375.112 583.433h-3.767v-14.745h3.767z" style="fill:#00407c;fill-opacity:1;fill-rule:nonzero;stroke:none" transform="matrix(1.46537 0 0 -1.46537 -195.556 876.918)"/><path d="M0 0c-4.567 0-4.567 8.811 0 8.811C4.538 8.811 4.538 0 0 0m0 10.81c-9.33 0-9.364-12.873 0-12.873 9.366 0 9.305 12.873 0 12.873" style="fill:#00407c;fill-opacity:1;fill-rule:nonzero;stroke:none" transform="matrix(1.46537 0 0 -1.46537 342.452 59.54)"/><path d="M0 0h-3.684v-2.466H0" style="fill:#00407c;fill-opacity:1;fill-rule:nonzero;stroke:none" transform="matrix(1.46537 0 0 -1.46537 348.829 33.477)"/><path d="M0 0h-3.688v-2.255H0" style="fill:#00407c;fill-opacity:1;fill-rule:nonzero;stroke:none" transform="matrix(1.46537 0 0 -1.46537 348.986 26.953)"/><path d="M359.257 576.98h5.035v-5.064h-5.035zm5.035 6.484v-4.267h-5.035v4.267h-3.739v-13.559h12.516v13.559z" style="fill:#00407c;fill-opacity:1;fill-rule:nonzero;stroke:none" transform="matrix(1.46537 0 0 -1.46537 -195.556 876.918)"/><path d="M0 0v5.015h-3.736v-7.439h17.424V0Z" style="fill:#00407c;fill-opacity:1;fill-rule:nonzero;stroke:none" transform="matrix(1.46537 0 0 -1.46537 371.713 57.382)"/><path d="M0 0h3.74v3.373h8.317v-.857H6.203V.301h5.854v-2.006h3.738v20.283h-3.738V5.534H-4.525V3.373H0Z" style="fill:#00407c;fill-opacity:1;fill-rule:nonzero;stroke:none" transform="matrix(1.46537 0 0 -1.46537 367.927 49.087)"/><path d="M0 0c4.091 0 4.091-8.592 0-8.592C-4.12-8.592-4.12 0 0 0m0-10.475c8.646 0 8.646 12.391 0 12.391-8.671 0-8.671-12.391 0-12.391" style="fill:#00407c;fill-opacity:1;fill-rule:nonzero;stroke:none" transform="matrix(1.46537 0 0 -1.46537 371.545 24.66)"/><path d="M0 0v-3.375h1.714V0h1.64v-8.427h-1.64v3.526H0v-3.526h-1.638V0Z" style="fill:#00407c;fill-opacity:1;fill-rule:nonzero;stroke:none" transform="matrix(1.46537 0 0 -1.46537 132.714 70.42)"/><path d="m0 0-.274 1.764c-.089.513-.2 1.361-.276 1.912h-.037c-.089-.563-.214-1.426-.3-1.912L-1.199 0Zm-1.363-1.275L-1.737-3.2h-1.589l1.824 8.427H.463L2.1-3.2H.512L.15-1.275Z" style="fill:#00407c;fill-opacity:1;fill-rule:nonzero;stroke:none" transform="matrix(1.46537 0 0 -1.46537 144.255 78.08)"/><path d="M0 0v8.427h1.502L2.8 5.126c.263-.649.663-1.738.902-2.463h.025c-.051.887-.163 2.35-.163 3.9v1.864h1.438V0h-1.5l-1.29 3.2a25.058 25.058 0 0 0-.86 2.537h-.028c.052-.849.114-2.148.114-3.849V0Z" style="fill:#00407c;fill-opacity:1;fill-rule:nonzero;stroke:none" transform="matrix(1.46537 0 0 -1.46537 149.235 82.769)"/><path d="M0 0v3.226l-1.851 5.201h1.75l.563-2.013c.163-.538.326-1.163.45-1.787h.026c.1.612.237 1.224.387 1.823l.5 1.977h1.7l-1.887-5.14V0Z" style="fill:#00407c;fill-opacity:1;fill-rule:nonzero;stroke:none" transform="matrix(1.46537 0 0 -1.46537 160.61 82.769)"/><path d="m0 0-.275 1.764c-.087.513-.2 1.361-.275 1.912h-.037C-.675 3.113-.8 2.25-.888 1.764L-1.199 0Zm-1.363-1.275L-1.738-3.2h-1.588l1.825 8.427H.462L2.101-3.2H.513L.15-1.275Z" style="fill:#00407c;fill-opacity:1;fill-rule:nonzero;stroke:none" transform="matrix(1.46537 0 0 -1.46537 170.539 78.08)"/><path d="M0 0v8.427h1.501L2.8 5.126c.263-.649.664-1.738.901-2.463h.025c-.05.887-.163 2.35-.163 3.9v1.864h1.439V0H3.501L2.213 3.2a24.818 24.818 0 0 0-.861 2.537h-.027c.051-.849.113-2.148.113-3.849V0Z" style="fill:#00407c;fill-opacity:1;fill-rule:nonzero;stroke:none" transform="matrix(1.46537 0 0 -1.46537 175.519 82.769)"/><path d="M0 0c-.363-.15-1.125-.3-1.738-.3-.975 0-1.713.276-2.264.839-.725.7-1.111 1.951-1.088 3.399.039 3.066 1.777 4.339 3.59 4.339.637 0 1.1-.125 1.361-.248l-.273-1.414c-.251.126-.564.188-.964.188-1.125 0-2.013-.762-2.013-2.95 0-2.027.787-2.763 1.563-2.763.15 0 .263.012.326.036v2.038h-.764v1.338H0Z" style="fill:#00407c;fill-opacity:1;fill-rule:nonzero;stroke:none" transform="matrix(1.46537 0 0 -1.46537 192.372 82.441)"/><path d="M0 0v-5.477C0-6.713.362-7.09.8-7.09c.474 0 .812.338.812 1.613V0H3.25v-5.189c0-2.164-.825-3.338-2.437-3.338-1.763 0-2.452 1.214-2.452 3.326V0Z" style="fill:#00407c;fill-opacity:1;fill-rule:nonzero;stroke:none" transform="matrix(1.46537 0 0 -1.46537 201.565 70.42)"/><path d="M0 0v8.427h1.502l1.299-3.301c.262-.649.664-1.738.902-2.463h.025c-.05.887-.163 2.35-.163 3.9v1.864h1.438V0H3.501L2.213 3.2a25.314 25.314 0 0 0-.861 2.537h-.026c.05-.849.112-2.148.112-3.849V0Z" style="fill:#00407c;fill-opacity:1;fill-rule:nonzero;stroke:none" transform="matrix(1.46537 0 0 -1.46537 208.943 82.769)"/><path d="M284.501 541.946h-1.637v8.427h1.637z" style="fill:#00407c;fill-opacity:1;fill-rule:nonzero;stroke:none" transform="matrix(1.46537 0 0 -1.46537 -195.556 876.918)"/><path d="m0 0-1.876 8.427h1.812l.602-3.638c.135-.912.312-1.94.423-2.925h.027c.111 1 .248 2.013.398 2.961l.575 3.602h1.803L1.836 0Z" style="fill:#00407c;fill-opacity:1;fill-rule:nonzero;stroke:none" transform="matrix(1.46537 0 0 -1.46537 225.76 82.769)"/><path d="M0 0h-1.912v-2.274H.251V-3.7H-3.55v8.427H.113V3.301h-2.025V1.364H0Z" style="fill:#00407c;fill-opacity:1;fill-rule:nonzero;stroke:none" transform="matrix(1.46537 0 0 -1.46537 238.069 77.347)"/><path d="M0 0h.302c.711 0 1.111.575 1.111 1.313 0 .725-.288 1.223-1.013 1.249-.15 0-.312-.013-.4-.049Zm-1.638 3.675a9.723 9.723 0 0 0 1.79.162c.9 0 1.711-.137 2.249-.624.514-.462.677-1.025.677-1.751 0-.899-.45-1.713-1.301-2.102v-.024c.576-.238.863-.763 1.026-1.674.162-.939.385-1.976.535-2.289H1.627c-.113.239-.3 1.087-.425 2.026C1.052-1.563.789-1.264.25-1.264H0v-3.363h-1.638z" style="fill:#00407c;fill-opacity:1;fill-rule:nonzero;stroke:none" transform="matrix(1.46537 0 0 -1.46537 243.03 75.988)"/><path d="M0 0c.337-.188.925-.325 1.387-.325.764 0 1.15.401 1.15.952 0 .611-.374.912-1.087 1.373C.3 2.701-.138 3.589-.138 4.351c0 1.352.9 2.475 2.651 2.475.562 0 1.089-.15 1.324-.3l-.26-1.411a1.994 1.994 0 0 1-1.064.287c-.701 0-1.038-.424-1.038-.877 0-.499.251-.761 1.151-1.312C3.751 2.539 4.149 1.688 4.149.801c0-1.539-1.135-2.552-2.775-2.552-.674 0-1.325.177-1.612.339z" style="fill:#00407c;fill-opacity:1;fill-rule:nonzero;stroke:none" transform="matrix(1.46537 0 0 -1.46537 249.514 80.314)"/><path d="M310.85 541.946h-1.637v8.427h1.637z" style="fill:#00407c;fill-opacity:1;fill-rule:nonzero;stroke:none" transform="matrix(1.46537 0 0 -1.46537 -195.556 876.918)"/><path d="M0 0h-1.489v1.514h4.626V0H1.638v-6.913H0Z" style="fill:#00407c;fill-opacity:1;fill-rule:nonzero;stroke:none" transform="matrix(1.46537 0 0 -1.46537 263.985 72.638)"/><path d="M0 0v3.226l-1.852 5.201h1.751l.563-2.013c.163-.538.327-1.163.45-1.787h.027c.098.612.236 1.224.386 1.823l.501 1.977h1.699l-1.888-5.14V0Z" style="fill:#00407c;fill-opacity:1;fill-rule:nonzero;stroke:none" transform="matrix(1.46537 0 0 -1.46537 272.389 82.769)"/><path d="M0 0c.336-.188.924-.325 1.386-.325.764 0 1.151.401 1.151.952 0 .611-.374.912-1.087 1.373C.299 2.701-.139 3.589-.139 4.351c0 1.352.901 2.475 2.651 2.475.563 0 1.09-.15 1.325-.3l-.261-1.411a1.991 1.991 0 0 1-1.064.287c-.7 0-1.037-.424-1.037-.877 0-.499.251-.761 1.15-1.312C3.751 2.539 4.149 1.688 4.149.801c0-1.539-1.135-2.552-2.775-2.552-.674 0-1.325.177-1.613.339z" style="fill:#00407c;fill-opacity:1;fill-rule:nonzero;stroke:none" transform="matrix(1.46537 0 0 -1.46537 283.179 80.314)"/><path d="M0 0h-1.912v-2.274H.251V-3.7H-3.55v8.427H.113V3.301h-2.025V1.364H0Z" style="fill:#00407c;fill-opacity:1;fill-rule:nonzero;stroke:none" transform="matrix(1.46537 0 0 -1.46537 296.42 77.347)"/><path d="M0 0c0-1.912.364-2.889 1.025-2.889.701 0 .964 1.252.964 2.963 0 1.475-.226 2.815-.976 2.815C.364 2.889 0 1.812 0 0m3.688.15c0-3.176-1.124-4.464-2.724-4.464-1.913 0-2.665 2.025-2.665 4.338 0 2.302.914 4.289 2.79 4.289 2.023 0 2.599-2.239 2.599-4.163" style="fill:#00407c;fill-opacity:1;fill-rule:nonzero;stroke:none" transform="matrix(1.46537 0 0 -1.46537 300.87 76.594)"/><path d="M0 0v-5.477C0-6.713.364-7.09.802-7.09c.474 0 .811.338.811 1.613V0H3.25v-5.189c0-2.164-.823-3.338-2.437-3.338-1.761 0-2.45 1.214-2.45 3.326V0Z" style="fill:#00407c;fill-opacity:1;fill-rule:nonzero;stroke:none" transform="matrix(1.46537 0 0 -1.46537 310.667 70.42)"/><path d="M0 0h1.637v-7.04h2.15v-1.387H0Z" style="fill:#00407c;fill-opacity:1;fill-rule:nonzero;stroke:none" transform="matrix(1.46537 0 0 -1.46537 318.05 70.42)"/><path d="M0 0v-3.375h1.713V0h1.641v-8.427H1.713v3.526H0v-3.526h-1.638V0Z" style="fill:#00407c;fill-opacity:1;fill-rule:nonzero;stroke:none" transform="matrix(1.46537 0 0 -1.46537 332.48 70.42)"/><path d="M0 0c0-1.912.363-2.889 1.025-2.889.701 0 .963 1.252.963 2.963 0 1.475-.225 2.815-.975 2.815C.363 2.889 0 1.812 0 0m3.688.15c0-3.176-1.124-4.464-2.724-4.464-1.913 0-2.665 2.025-2.665 4.338 0 2.302.914 4.289 2.79 4.289 2.023 0 2.599-2.239 2.599-4.163" style="fill:#00407c;fill-opacity:1;fill-rule:nonzero;stroke:none" transform="matrix(1.46537 0 0 -1.46537 341.951 76.594)"/><path d="M0 0c.336-.188.924-.325 1.387-.325.763 0 1.15.401 1.15.952 0 .611-.374.912-1.087 1.373C.3 2.701-.138 3.589-.138 4.351c0 1.352.9 2.475 2.65 2.475.563 0 1.09-.15 1.325-.3l-.261-1.411a1.991 1.991 0 0 1-1.064.287c-.7 0-1.037-.424-1.037-.877 0-.499.251-.761 1.15-1.312C3.751 2.539 4.149 1.688 4.149.801c0-1.539-1.135-2.552-2.775-2.552-.674 0-1.325.177-1.612.339z" style="fill:#00407c;fill-opacity:1;fill-rule:nonzero;stroke:none" transform="matrix(1.46537 0 0 -1.46537 349.149 80.314)"/><path d="M0 0c.089-.014.175-.014.275-.014.827 0 1.188.59 1.188 1.376 0 .738-.3 1.314-1.063 1.314-.149 0-.299-.026-.4-.063Zm-1.638 3.838A8.502 8.502 0 0 0 .076 4c.974 0 1.75-.137 2.286-.648.502-.438.726-1.139.726-1.852 0-.912-.275-1.563-.713-2.025-.524-.563-1.362-.815-2.051-.815-.112 0-.211 0-.324.013v-3.137h-1.638z" style="fill:#00407c;fill-opacity:1;fill-rule:nonzero;stroke:none" transform="matrix(1.46537 0 0 -1.46537 359.588 76.227)"/><path d="M384.93 541.946h-1.638v8.427h1.638z" style="fill:#00407c;fill-opacity:1;fill-rule:nonzero;stroke:none" transform="matrix(1.46537 0 0 -1.46537 -195.556 876.918)"/><path d="M0 0h-1.49v1.514h4.627V0h-1.5v-6.913H0Z" style="fill:#00407c;fill-opacity:1;fill-rule:nonzero;stroke:none" transform="matrix(1.46537 0 0 -1.46537 372.54 72.638)"/><path d="m0 0-.275 1.764c-.086.513-.2 1.361-.274 1.912h-.039c-.086-.563-.211-1.426-.3-1.912L-1.2 0Zm-1.362-1.275L-1.738-3.2h-1.588L-1.5 5.227H.462L2.102-3.2H.514L.149-1.275z" style="fill:#00407c;fill-opacity:1;fill-rule:nonzero;stroke:none" transform="matrix(1.46537 0 0 -1.46537 382.28 78.08)"/><path d="M0 0h1.638v-7.04h2.15v-1.387H0Z" style="fill:#00407c;fill-opacity:1;fill-rule:nonzero;stroke:none" transform="matrix(1.46537 0 0 -1.46537 387.261 70.42)"/></svg>