<svg xmlns="http://www.w3.org/2000/svg" xml:space="preserve" width="932.60181" height="300" viewBox="0 0 932.60179 300"><defs><clipPath id="a" clipPathUnits="userSpaceOnUse"><path d="M0 0h841.89v595.28H0Z"/></clipPath></defs><path d="m0 0-2.892 5.371L-4.749 3.1V0h-1.445v11.155h1.445V5.576l4.336 5.579h1.858l-3.303-4.337L1.857 0Z" style="fill:#55514f;fill-opacity:1;fill-rule:nonzero;stroke:none" transform="matrix(1.82137 0 0 -1.82137 12.489 292.008)"/><path d="M0 0v-4.543h-1.443V0l-3.306 6.612h1.86l2.065-4.959L1.45 6.612h1.647z" style="fill:#55514f;fill-opacity:1;fill-rule:nonzero;stroke:none" transform="matrix(1.82137 0 0 -1.82137 25.27 283.734)"/><g clip-path="url(#a)" transform="matrix(1.82137 0 0 -1.82137 -300.397 733.415)"><path d="M0 0c-2.064 0-3.717 1.648-3.717 3.926v7.434h1.653V3.926c0-1.445.828-2.278 2.064-2.278 1.24 0 2.273.833 2.273 2.278v7.434h1.444V3.926C3.717 1.648 2.066 0 0 0" style="fill:#55514f;fill-opacity:1;fill-rule:nonzero;stroke:none" transform="translate(187.267 242.144)"/><path d="m0 0-4.75 7.846V0H-6.4v11.155h1.445L0 3.307v7.848h1.443V0Z" style="fill:#55514f;fill-opacity:1;fill-rule:nonzero;stroke:none" transform="translate(200.275 242.349)"/><path d="M0 0c-.825-.819-1.648-1.237-2.887-1.237-1.032 0-2.067.418-2.686 1.237-1.034 1.034-1.034 2.275-1.034 4.544 0 2.066 0 3.309 1.034 4.544.619.623 1.654 1.035 2.686 1.035 2.27 0 3.512-1.448 3.92-3.309h-1.65c-.208 1.039-1.031 1.861-2.27 1.861-.622 0-1.032-.206-1.446-.618-.621-.619-.621-1.243-.621-3.513 0-2.269 0-2.889.621-3.51.414-.413.824-.623 1.446-.623.82 0 1.239.21 1.65.623.412.621.62 1.034.62 1.86v.617h-2.27v1.448h3.92V3.306C1.033 1.86.625.828 0 0" style="fill:#55514f;fill-opacity:1;fill-rule:nonzero;stroke:none" transform="translate(211.008 243.38)"/><path d="m0 0-3.094 5.371L-4.745 3.1V0h-1.656v11.155h1.656V5.576l4.332 5.579h1.858l-3.508-4.337L1.86 0Z" style="fill:#55514f;fill-opacity:1;fill-rule:nonzero;stroke:none" transform="translate(250.027 242.349)"/><path d="m0 0-4.749 7.846V0h-1.649v11.155h1.446l4.748-7.848v7.848h1.648V0Z" style="fill:#55514f;fill-opacity:1;fill-rule:nonzero;stroke:none" transform="translate(263.859 242.349)"/><path d="m0 0-.825 2.276h-4.13L-5.571 0h-1.658l3.719 11.155h1.238L1.652 0Zm-2.887 8.674-1.656-4.953h3.308z" style="fill:#55514f;fill-opacity:1;fill-rule:nonzero;stroke:none" transform="translate(274.39 242.349)"/><path d="M0 0v-9.707h-1.654V0h-2.894v1.448h7.229V0Z" style="fill:#55514f;fill-opacity:1;fill-rule:nonzero;stroke:none" transform="translate(281.41 252.056)"/><path d="m0 0-4.746 7.846V0h-1.653v11.155h1.444L0 3.307v7.848h1.445V0Z" style="fill:#55514f;fill-opacity:1;fill-rule:nonzero;stroke:none" transform="translate(307.005 242.349)"/><path d="m0 0-.617 2.276h-4.13L-5.574 0h-1.649l3.717 11.155h1.443L1.654 0Zm-2.685 8.674-1.649-4.953h3.096z" style="fill:#55514f;fill-opacity:1;fill-rule:nonzero;stroke:none" transform="translate(317.536 242.349)"/><path d="M0 0c-2.274 0-3.72 1.648-3.72 3.926v7.434h1.446V3.926c0-1.445.83-2.278 2.274-2.278 1.237 0 2.067.833 2.067 2.278v7.434h1.651V3.926C3.718 1.648 2.067 0 0 0" style="fill:#55514f;fill-opacity:1;fill-rule:nonzero;stroke:none" transform="translate(337.149 242.144)"/><path d="m0 0-4.747 7.846V0H-6.4v11.155h1.443l4.749-7.848v7.848h1.655V0Z" style="fill:#55514f;fill-opacity:1;fill-rule:nonzero;stroke:none" transform="translate(350.154 242.349)"/><path d="M0 0h-1.24l-3.303 11.155h1.652l2.269-8.262 2.477 8.262h1.654z" style="fill:#55514f;fill-opacity:1;fill-rule:nonzero;stroke:none" transform="translate(362.543 242.349)"/><path d="M0 0v11.155h6.811V9.707H1.65v-3.3h4.335V4.749H1.65V1.443h5.161V0Z" style="fill:#55514f;fill-opacity:1;fill-rule:nonzero;stroke:none" transform="translate(367.704 242.349)"/><path d="m0 0-2.268 4.749h-2.063V0h-1.445v11.155h3.921c2.069 0 3.306-1.448 3.306-3.309 0-1.65-.827-2.678-2.071-2.888L1.862 0Zm-1.855 9.707h-2.476V6.196h2.476c1.033 0 1.654.622 1.654 1.65 0 1.038-.621 1.861-1.654 1.861" style="fill:#55514f;fill-opacity:1;fill-rule:nonzero;stroke:none" transform="translate(382.769 242.349)"/><path d="M0 0v-9.707h-1.442V0h-2.89v1.448h7.226V0Z" style="fill:#55514f;fill-opacity:1;fill-rule:nonzero;stroke:none" transform="translate(403.829 252.056)"/><path d="M0 0v-4.543h-1.654V0l-3.098 6.612h1.86l2.065-4.959 2.268 4.959h1.655z" style="fill:#55514f;fill-opacity:1;fill-rule:nonzero;stroke:none" transform="translate(412.295 246.892)"/><path d="M0 0v4.874h-4.21V0h-1.576v11.163h1.576V6.396H0v4.767h1.575V0Z" style="fill:#55514f;fill-opacity:1;fill-rule:nonzero;stroke:none" transform="translate(426.676 242.348)"/><path d="M0 0a2.06 2.06 0 0 1-1.548.69A2.058 2.058 0 0 1-3.095 0c-.507-.596-.612-1.223-.612-3.464 0-2.241.105-2.871.612-3.465a2.056 2.056 0 0 1 1.547-.692c.611 0 1.182.268 1.548.692.511.594.608 1.224.608 3.465C.608-1.223.511-.596 0 0m1.191-7.951a3.616 3.616 0 0 0-2.739-1.19c-1.109 0-2.014.425-2.727 1.19-1.015 1.103-1.002 2.337-1.002 4.487 0 2.148-.013 3.387 1.002 4.486.713.764 1.618 1.191 2.727 1.191a3.62 3.62 0 0 0 2.739-1.191c1.024-1.099.994-2.338.994-4.486 0-2.15.03-3.384-.994-4.487" style="fill:#55514f;fill-opacity:1;fill-rule:nonzero;stroke:none" transform="translate(435.807 251.392)"/><path d="M0 0c-.362.423-.931.69-1.543.69A2.051 2.051 0 0 1-3.087 0c-.512-.596-.612-1.223-.612-3.464 0-2.241.1-2.871.612-3.465a2.05 2.05 0 0 1 1.544-.692A2.04 2.04 0 0 1 0-6.929c.512.594.617 1.224.617 3.465C.617-1.223.512-.596 0 0m1.2-7.951a3.634 3.634 0 0 0-2.743-1.19c-1.106 0-2.009.425-2.725 1.19-1.02 1.103-1.003 2.337-1.003 4.487 0 2.148-.017 3.387 1.003 4.486.716.764 1.619 1.191 2.725 1.191 1.108 0 2.027-.427 2.743-1.191 1.02-1.099.988-2.338.988-4.486 0-2.15.032-3.384-.988-4.487" style="fill:#55514f;fill-opacity:1;fill-rule:nonzero;stroke:none" transform="translate(295.79 251.392)"/><path d="M0 0c-.366.423-.937.69-1.55.69A2.046 2.046 0 0 1-3.091 0c-.513-.596-.615-1.223-.615-3.464 0-2.241.102-2.871.615-3.465a2.045 2.045 0 0 1 1.541-.692A2.06 2.06 0 0 1 0-6.929c.51.594.61 1.224.61 3.465C.61-1.223.51-.596 0 0m1.193-7.951a3.628 3.628 0 0 0-2.743-1.19c-1.103 0-2.008.425-2.722 1.19-1.021 1.103-1.005 2.337-1.005 4.487 0 2.148-.016 3.387 1.005 4.486.714.764 1.619 1.191 2.722 1.191 1.109 0 2.03-.427 2.743-1.191 1.02-1.099.993-2.338.993-4.486 0-2.15.027-3.384-.993-4.487" style="fill:#55514f;fill-opacity:1;fill-rule:nonzero;stroke:none" transform="translate(229.072 251.392)"/><path d="M0 0c-.359.423-.933.69-1.545.69A2.054 2.054 0 0 1-3.088 0C-3.597-.596-3.7-1.223-3.7-3.464c0-2.241.103-2.871.612-3.465a2.052 2.052 0 0 1 1.543-.692c.612 0 1.186.268 1.545.692.513.594.619 1.224.619 3.465C.619-1.223.513-.596 0 0m1.199-7.951a3.627 3.627 0 0 0-2.744-1.19c-1.102 0-2.008.425-2.719 1.19-1.025 1.103-1.011 2.337-1.011 4.487 0 2.148-.014 3.387 1.011 4.486.711.764 1.617 1.191 2.719 1.191a3.631 3.631 0 0 0 2.744-1.191c1.02-1.099.989-2.338.989-4.486 0-2.15.031-3.384-.989-4.487" style="fill:#55514f;fill-opacity:1;fill-rule:nonzero;stroke:none" transform="translate(238.779 251.392)"/><path d="M0 0c-1.561 0-2.685.394-3.673 1.472l1.049 1.113c.76-.814 1.59-1.064 2.651-1.064 1.357 0 2.143.623 2.143 1.707 0 .488-.125.892-.403 1.159-.264.268-.528.375-1.139.472L-.6 5.048c-.845.122-1.514.437-1.966.89-.509.521-.76 1.228-.76 2.136 0 1.944 1.313 3.279 3.471 3.279 1.369 0 2.332-.379 3.224-1.274L2.361 9.016c-.641.658-1.385.863-2.26.863-1.223 0-1.895-.757-1.895-1.74 0-.409.116-.773.393-1.037.261-.251.684-.439 1.169-.52l1.179-.185c.961-.159 1.498-.411 1.942-.834.563-.532.841-1.333.841-2.289C3.73 1.222 2.17 0 0 0" style="fill:#55514f;fill-opacity:1;fill-rule:nonzero;stroke:none" transform="translate(443.022 242.151)"/><path d="M0 0c-1.57 0-2.701.393-3.696 1.478l1.057 1.128C-1.88 1.78-1.044 1.53.027 1.53c1.365 0 2.158.629 2.158 1.717 0 .488-.136.899-.409 1.165-.271.274-.531.379-1.15.475l-1.228.19c-.853.128-1.527.442-1.982.898-.513.524-.76 1.233-.76 2.148 0 1.958 1.316 3.297 3.488 3.297 1.379 0 2.345-.383 3.242-1.278L2.374 9.07c-.645.659-1.395.864-2.271.864-1.237 0-1.909-.757-1.909-1.749 0-.411.117-.774.395-1.039.264-.254.687-.444 1.174-.52l1.186-.192c.971-.159 1.513-.412 1.952-.835.57-.537.852-1.342.852-2.303C3.753 1.229 2.185 0 0 0" style="fill:#55514f;fill-opacity:1;fill-rule:nonzero;stroke:none" transform="translate(389.558 242.115)"/><path d="M0 0h-2.275v-3.717H0c1.096 0 1.836.676 1.836 1.852C1.836-.688 1.096 0 0 0m.09-5.252h-2.365v-4.39h-1.574V1.521H.09c2.021 0 3.32-1.444 3.32-3.386 0-1.948-1.299-3.387-3.32-3.387" style="fill:#55514f;fill-opacity:1;fill-rule:nonzero;stroke:none" transform="translate(452.656 251.99)"/><path d="M0 0h-2.276v-3.717H0c1.094 0 1.836.676 1.836 1.852C1.836-.688 1.094 0 0 0m.087-5.252h-2.363v-4.39h-1.571V1.521H.087c2.026 0 3.322-1.444 3.322-3.386 0-1.948-1.296-3.387-3.322-3.387" style="fill:#55514f;fill-opacity:1;fill-rule:nonzero;stroke:none" transform="translate(218.456 251.99)"/><path d="M0 0v-9.642h-1.572V0h-2.859v1.521h7.29V0Z" style="fill:#55514f;fill-opacity:1;fill-rule:nonzero;stroke:none" transform="translate(465.66 251.99)"/><path d="m0 0-1.618-4.953h3.189zm2.726-8.637-.716 2.24h-4.097l-.714-2.24h-1.675L-.671 2.526H.595L4.402-8.637Z" style="fill:#55514f;fill-opacity:1;fill-rule:nonzero;stroke:none" transform="translate(473.492 250.984)"/><path d="M0 0v11.163h1.575V1.518h4.999V0Z" style="fill:#55514f;fill-opacity:1;fill-rule:nonzero;stroke:none" transform="translate(479.309 242.348)"/><path d="M0 0v11.163h1.574V1.518h5.001V0Z" style="fill:#55514f;fill-opacity:1;fill-rule:nonzero;stroke:none" transform="translate(321.026 242.348)"/><path d="M457.919 253.504h1.577v-11.199h-1.577zM395.711 253.504h1.584v-11.199h-1.584zM354.495 253.504h1.584v-11.155h-1.584zM286.292 253.504h1.585v-11.155h-1.585z" style="fill:#55514f;fill-opacity:1;fill-rule:nonzero;stroke:none"/><path d="M0 0v-15.305h-6.494v12.962h-30.803v5.412h15.116v4.514h-17.668v5.229H2.524V7.583h-18.215V3.069h12.806S0 3.069 0 0" style="fill:#55514f;fill-opacity:1;fill-rule:nonzero;stroke:none" transform="translate(250.688 275.773)"/><path d="M0 0h34.982v17.499h-6.494v-3.605H3.968v3.605h-6.31V2.707S-2.526.183 0 0m28.488 5.415H3.967v3.426h24.521z" style="fill:#55514f;fill-opacity:1;fill-rule:nonzero;stroke:none" transform="translate(215.706 292.193)"/><path d="M0 0h14.783v5.411H2.161v25.258H14.06v5.597H-4.328V4.149S-4.509 0 0 0" style="fill:#55514f;fill-opacity:1;fill-rule:nonzero;stroke:none" transform="translate(262.975 273.07)"/><path d="M0 0h-6.131v13.17h-6.31v-38.067h6.31v19.304H0v-19.304h6.311V13.17H0Z" style="fill:#55514f;fill-opacity:1;fill-rule:nonzero;stroke:none" transform="translate(293.086 296.705)"/><path d="M0 0v16.423h-6.491V0h-7.033v16.423h-6.495V0h-8.652v-5.591h44.357V0Z" style="fill:#55514f;fill-opacity:1;fill-rule:nonzero;stroke:none" transform="translate(380.59 277.94)"/><path d="M0 0v-19.845h-6.488V-1.8h-32.098v5.409h34.804S0 3.971 0 0" style="fill:#55514f;fill-opacity:1;fill-rule:nonzero;stroke:none" transform="translate(392.847 305.364)"/><path d="M0 0h-33.537v-5.598h30.113v-12.085h6.308V-2.53C2.884.356 0 0 0 0m2.884 20.386V31.75h-6.488V3.244h6.488v11.549h5.772v5.593zm-29.571 2.885c-4.865-1.444-8.654-5.414-8.654-10.104 0-5.954 5.588-10.643 12.081-10.643 6.493 0 12.082 4.689 12.082 10.643 0 4.69-3.968 9.024-9.379 10.287v1.442h10.283v5.411h-10.102v3.249h-6.311v-3.249h-9.194v-5.411h9.556v-1.442zm3.427-4.873c3.247 0 5.773-2.342 5.773-5.231 0-2.885-2.526-5.233-5.773-5.233-3.065 0-5.771 2.348-5.771 5.233 0 2.889 2.706 5.231 5.771 5.231" style="fill:#55514f;fill-opacity:1;fill-rule:nonzero;stroke:none" transform="translate(342.18 278.125)"/><path d="M0 0c0 6.493-7.207 11.726-16.225 11.726-9.021 0-16.23-5.233-16.23-11.726 0-6.497 7.209-11.729 16.23-11.729C-7.207-11.729 0-6.497 0 0m-16.225-6.676c-5.232 0-9.739 2.889-9.739 6.676 0 3.605 4.507 6.676 9.739 6.676 4.508 0 9.915-2.527 9.915-6.676 0-4.33-5.407-6.676-9.915-6.676" style="fill:#55514f;fill-opacity:1;fill-rule:nonzero;stroke:none" transform="translate(205.68 271.128)"/><path d="M0 0h-19.832v-5.054H-5.23c0-.717 0-2.164-.716-3.965-3.43-10.106-14.612-12.406-14.612-12.406v-4.867C2.706-23.044 1.622-1.803 1.622-1.803 1.622-.18 0 0 0 0m13.341.719v-5.05H3.248v-5.592h10.093v-4.615H3.066v-5.411h10.275v-6.166h6.676V.719Z" style="fill:#55514f;fill-opacity:1;fill-rule:nonzero;stroke:none" transform="translate(185.487 309.334)"/><path d="M0 0h22.373v24.384h-6.494v-8.505H3.7v8.505h-6.49V2.754S-2.79 0 0 0m15.879 5.312H3.7v5.522h12.179z" style="fill:#55514f;fill-opacity:1;fill-rule:nonzero;stroke:none" transform="translate(402.641 284.753)"/><path d="M0 0c0 6.493-7.271 11.822-16.229 11.822-8.958 0-16.233-5.329-16.233-11.822 0-6.497 7.275-11.694 16.233-11.694S0-6.497 0 0m-16.229-6.418c-5.322 0-9.632 2.774-9.632 6.418 0 3.637 4.31 6.542 9.632 6.542 4.417 0 9.764-2.388 9.764-6.542 0-4.159-5.347-6.418-9.764-6.418" style="fill:#55514f;fill-opacity:1;fill-rule:nonzero;stroke:none" transform="translate(440.052 271.173)"/><path d="M0 0v-5.053h-10.095v-5.59H0v-5.438h-10.275v-5.412H0v-6.493h6.678V0Z" style="fill:#55514f;fill-opacity:1;fill-rule:nonzero;stroke:none" transform="translate(433.927 309.808)"/><path d="M0 0c-3.433 0-6.493 2.335-6.493 5.191 0 2.876 3.06 5.318 6.493 5.318 3.571 0 6.633-2.442 6.633-5.318C6.633 2.335 3.571 0 0 0m-.075 15.934c-7.118 0-13.028-4.853-13.028-10.809 0-5.944 5.91-10.538 13.028-10.538 7.398 0 13.331 4.594 13.331 10.538 0 5.956-5.933 10.809-13.331 10.809" style="fill:#55514f;fill-opacity:1;fill-rule:nonzero;stroke:none" transform="translate(461.283 294.804)"/><path d="M0 0v7.923h-12.601v5.138h32.048V7.923H6.476V0Z" style="fill:#55514f;fill-opacity:1;fill-rule:nonzero;stroke:none" transform="translate(458.035 273.901)"/><path d="M0 0v-3.507h6.36v39.21H0V5.221h-12.605V0Z" style="fill:#55514f;fill-opacity:1;fill-rule:nonzero;stroke:none" transform="translate(479.56 274.128)"/><path d="M0 0h33.707v5.492H3.391v10.974h-6.373V2.424C-2.982-.246 0 0 0 0" style="fill:#55514f;fill-opacity:1;fill-rule:nonzero;stroke:none" transform="translate(452.235 260.484)"/><path d="m0 0-96.509.003c-18.83 0-34.096-15.263-34.104-34.091v-96.536c.009-18.824 15.27-34.08 34.092-34.084H.238c18.723.129 33.861 15.346 33.861 34.098l.005 96.514C34.104-15.264 18.831 0 0 0" style="fill:#db1f26;fill-opacity:1;fill-rule:nonzero;stroke:none" transform="translate(642.857 402.669)"/><path d="M0 0h12.736c.488 0 .945.475.945.945v.95c0 .47-.457.943-.945.943H0c-.474 0-.948-.473-.948-.943v-.95C-.948.475-.474 0 0 0" style="fill:#fff;fill-opacity:1;fill-rule:nonzero;stroke:none" transform="translate(588.291 317.41)"/><path d="M0 0v-.94c0-.715.483-.954.949-.954h16.975c.475 0 .943.239.943.954V0c0 .467-.468.945-.943.945H.949C.483.945 0 .467 0 0" style="fill:#fff;fill-opacity:1;fill-rule:nonzero;stroke:none" transform="translate(585.223 308.733)"/><path d="M0 0v1.173c0 .474-.228.946-.942.946h-16.043c-.461 0-.928-.472-.928-.946V0c0-.482.467-.947.928-.947H-.942C-.228-.947 0-.482 0 0" style="fill:#fff;fill-opacity:1;fill-rule:nonzero;stroke:none" transform="translate(603.613 323.528)"/><path d="M0 0v-.94c0-.477.468-.943.929-.943h16.043c.716 0 .942.466.942.943V0c0 .715-.226 1.183-.942 1.183H.929C.468 1.183 0 .715 0 0" style="fill:#fff;fill-opacity:1;fill-rule:nonzero;stroke:none" transform="translate(585.7 329.749)"/><path d="M0 0v-1.168c0-.49.248-.949.957-.949h14.381c.479 0 .947.459.947.949V0c0 .479-.468.938-.947.938H.957C.248.938 0 .479 0 0" style="fill:#fff;fill-opacity:1;fill-rule:nonzero;stroke:none" transform="translate(586.512 314.134)"/><path d="M0 0h-26.666c-.709 0-.94-.464-.94-.944v-.943c0-.458.231-.941.94-.941H0c.472 0 .941.483.941.941v.943C.941-.464.472 0 0 0" style="fill:#fff;fill-opacity:1;fill-rule:nonzero;stroke:none" transform="translate(607.988 293.817)"/><path d="M0 0h21.714c.482 0 .948.466.948.958v.93c0 .712-.466.929-.948.929H0c-.463 0-.695-.217-.695-.929v-.93C-.695.466-.463 0 0 0" style="fill:#fff;fill-opacity:1;fill-rule:nonzero;stroke:none" transform="translate(583.674 301.564)"/><path d="M0 0h24.522c.713 0 .951.448.951.933v1.181c0 .479-.238.949-.951.949H0c-.471 0-.954-.47-.954-.949V.933C-.954.448-.471 0 0 0" style="fill:#fff;fill-opacity:1;fill-rule:nonzero;stroke:none" transform="translate(582.398 296.156)"/><path d="m0 0 2.358 1.886 3.06-.962-.951 2.836 1.899 2.367H3.301l-1.88 2.598-.952-2.831-2.839-.96L0 3.056Z" style="fill:#fff;fill-opacity:1;fill-rule:nonzero;stroke:none" transform="translate(599.97 339.156)"/><path d="m0 0-1.639-2.592h-3.074l1.886-2.599-.938-2.836 2.827.943 2.363-1.648v3.074l2.596 1.641-3.077.952z" style="fill:#fff;fill-opacity:1;fill-rule:nonzero;stroke:none" transform="translate(575.66 339.377)"/><path d="m0 0 2.838-.942-.956 2.835 1.904 2.6H.727l-1.891 2.591-.951-3.064-2.833-.953 2.359-1.641v-3.073z" style="fill:#fff;fill-opacity:1;fill-rule:nonzero;stroke:none" transform="translate(614.824 332.292)"/><path d="M0 0h-3.063l-1.653 2.362-.937-2.826-3.075-.941 2.587-1.897v-3.071l2.374 1.91 3.058-.956-1.175 2.813z" style="fill:#fff;fill-opacity:1;fill-rule:nonzero;stroke:none" transform="translate(623.081 323.324)"/><path d="m0 0 2.834.961L5.437-.924l-.234 3.055 2.59 1.879-3.064.96-.957 2.83L2.13 5.203H-.938L.945 2.836Z" style="fill:#fff;fill-opacity:1;fill-rule:nonzero;stroke:none" transform="translate(584.154 340.08)"/><path d="m0 0-1.9-2.362h-3.052l1.883-2.606-.951-2.813 2.828.956 2.604-1.91v3.071l2.351 1.897-2.831.941z" style="fill:#fff;fill-opacity:1;fill-rule:nonzero;stroke:none" transform="translate(571.191 325.686)"/><path d="M0 0c.475-1.194.701-2.611.231-5.252-.947-6.192-7.151-7.863-7.39-7.863-.712-.233-1.419-.724-1.672-1.43-1.847-5.099-5.735-5.698-7.919-5.502a38.59 38.59 0 0 1 1.106 9.221c0 11.937-5.416 22.603-13.924 29.676 1.436 1.182 5.007 3.343 9.788.243.705-.487 1.429-.487 2.133-.247.245.247 6.199 2.625 10.727-1.92 1.667-1.898 2.398-3.087 3.091-4.51.954-1.935 1.924-3.583 4.782-5.248C-.486 4.294-.229 2.401 0 0m-13.357-46.99c-1.197-2.137-2.148-3.099-3.091-4.036-1.674-1.7-2.876-3.109-3.585-6.446-3.097.48-5.016-.242-6.91-1.432-1.428-.483-2.628-1.206-5.246-1.665-6.207-.968-9.539 4.521-9.764 4.521-.241.712-.974 1.2-1.922 1.2-5.098.223-6.831 3.416-7.358 5.565 15.062 1.143 27.699 10.935 32.962 24.428 1.671-1.22 4.641-3.837 2.998-9.019-.232-.932 0-1.662.719-2.375 0 0 4.049-5.015 1.197-10.741m-50.78-7.858c-.956 0-1.665-.488-2.14-1.2 0-.242-3.337-5.489-9.786-4.521-2.361.213-3.791.945-4.999 1.665-2.133 1.19-3.795 1.912-7.153 1.432-.473 3.075-1.648 4.533-3.33 6.2-.966.965-2.161 2.145-3.101 4.282-3.098 5.726.94 10.497 1.203 10.741.464.713.71 1.443.464 2.132-1.404 5.139 1.073 7.772 2.977 8.999 5.375-13.464 18.109-23.184 33.217-24.192-.534-2.144-2.247-5.315-7.352-5.538m-35.031 40.059c-.243.95-.957 1.441-1.684 1.674-.232 0-6.419 1.434-7.39 7.863-.477 2.404-.233 3.825 0 5.252.492 2.401.492 4.294-.94 7.168 3.08 1.665 4.043 3.103 4.994 5.248.732 1.188 1.193 2.612 3.104 4.288 4.534 4.53 10.265 2.142 10.5 2.142.954-.24 1.653-.24 2.369.247 4.48 2.816 7.784 1.221 9.474-.193A38.609 38.609 0 0 1-91.161.107a37.752 37.752 0 0 1-1.572-10.829V-10.826l.001-.131v-.103a38.619 38.619 0 0 1 1.103-8.978c-2.166-.216-5.657.547-7.539 5.249m27.41 45.804c.722.479.959 1.191.959 2.15 0 .247-.713 6.432 5.238 9.304 2.149 1.179 3.58 1.422 5.002 1.659 2.388.237 4.059.711 6.439 3.103 2.381-2.392 4.301-2.866 6.67-3.103 1.203-.237 2.621-.48 5.008-1.659 5.712-2.872 5.248-9.057 5.248-9.304-.24-.959.238-1.671.721-2.15 4.459-3.534 3.608-7.302 2.879-9.236a38.335 38.335 0 0 1-20.593 5.958 38.331 38.331 0 0 1-20.478-5.891c-.699 2.188-1.308 5.891 2.907 9.169m17.646-75.831c-18.818 0-34.094 15.265-34.094 34.109a34.014 34.014 0 0 0 3.728 15.526c5.657 11.024 17.128 18.564 30.358 18.564 18.832 0 34.087-15.263 34.087-34.105a33.996 33.996 0 0 0-3.725-15.526c-5.646-11.026-17.119-18.568-30.354-18.568M6.855 9.047c-.202.66-.709 1.162-1.442 1.434-2.393.915-3.443 1.636-4.107 2.507-.351.482-.571.966-.831 1.567-.704 1.438-1.666 3.335-4.063 5.718-5.474 5.496-11.917 4.319-14.534 3.597-3.809 1.899-7.376 1.899-10.019 1.176 0 2.865-1.178 5.969-4.297 8.838 0 2.857-.945 9.53-7.863 12.873-3.084 1.664-4.997 1.904-6.664 2.153-1.16.14-1.958.289-2.944 1.008-.477.372-.988.871-1.63 1.553-.211.237-.438.492-.676.783l-.25.25a2.885 2.885 0 0 1-.573.535s-.022.019-.05.028c-.052.03-.1.053-.152.079a.208.208 0 0 0-.059.028s-.001.002-.008.002a1.821 1.821 0 0 1-.922.172c-.68 0-1.308-.334-1.792-.963-1.025-1.319-1.807-2.124-2.514-2.615-.891-.612-1.665-.731-2.733-.86-1.67-.249-3.579-.489-6.681-2.153-6.676-3.343-7.626-10.016-7.863-12.873-3.103-2.869-4.042-5.973-4.042-9.082-2.864.967-6.211.967-10.009-1.187-2.648.977-9.075 1.895-14.551-3.587-2.401-2.138-3.336-4.035-4.061-5.473-.647-1.14-.967-1.944-2.253-2.805-.028-.018-.065-.045-.1-.065-.02 0-.029-.013-.035-.02-.617-.378-1.423-.757-2.526-1.2a2.418 2.418 0 0 1-.754-.363s-.022-.018-.043-.047c-.049-.038-.081-.072-.127-.104-.012-.021-.021-.034-.042-.045l-.005-.008c-.176-.184-.397-.471-.489-.813-.023-.085-.046-.167-.061-.252h-.006v-.017c-.118-.574.006-1.175.373-1.744 1.709-2.692 1.921-3.902 1.743-5.276a17.146 17.146 0 0 0-.19-.83c-.262-1.673-.474-3.814 0-6.927 1.18-7.633 7.145-10.49 9.754-11.447 1.922-4.052 4.541-5.966 7.398-6.917-1.665-2.402-2.857-5.476-1.906-9.792-1.667-2.376-4.77-8.089-1.194-15.01 1.435-3.105 2.86-4.521 4.053-5.491 1.442-1.43 2.152-2.135 2.374-5.951 0-.196.023-.527.128-.833 0 0 .006-.034.018-.063.019-.05.038-.103.066-.143.01-.017.02-.037.033-.057 0 0 0-.007.008-.007.12-.23.314-.525.618-.711.545-.423 1.244-.537 2.01-.344 3.809.951 4.773.468 6.435-.486 1.424-.7 3.096-1.661 6.421-2.136 7.643-1.191 12.162 3.573 14.08 5.725 4.278.47 6.913 2.632 8.806 5.006 1.673-2.374 4.288-4.286 8.59-4.769 1.665-2.15 6.423-7.153 14.073-5.962 3.052.703 4.946 1.645 6.383 2.347.01.002.031.011.047.027.017.007.024.013.038.022 1.729.916 2.798.971 6.458.124.177-.049.514-.139.833-.118 0 0 .019.003.055.003.057 0 .112.005.159.024.023 0 .045.005.07.005h.006v.007c.243.054.583.162.851.385.564.412.878 1.046.914 1.835.129 3.184.64 4.319 1.565 5.352.216.226.457.466.713.718.963 1.193 2.628 2.624 4.071 5.491 3.573 6.921.484 12.878-1.196 15.01.951 4.316-.247 7.651-1.912 9.792 2.863.951 5.486 3.101 7.394 6.917 2.632.957 8.582 3.814 9.785 11.447.47 3.35 0 5.254-.247 6.927-.124.98-.243 1.709-.038 2.596.268.89.826 1.91 1.797 3.519.117.141.301.434.393.741 0 0 0 .024.009.047.007.065.023.11.023.173.006.025.006.039.011.067v.011c.027.238.043.593-.102.927" style="fill:#fff;fill-opacity:1;fill-rule:nonzero;stroke:none" transform="translate(648.771 330.94)"/><path d="M0 0v-28.572h-22.315c-2.039 0-5.459 1.124-6.18 5.734V0h-23.702s4.731-1.76 4.731-8.257v-65.047h18.971v31.427L0-41.865v-31.45l19.136.011V0Z" style="fill:#db1f26;fill-opacity:1;fill-rule:nonzero;stroke:none" transform="translate(466.7 398.397)"/><path d="M0 0h19.113v50.61c0 23.677-18.146 22.705-20.092 22.705h-51.225s4.544-1.621 4.544-8.108V0h19.124v61.315H-6.49c2.261 0 6.49-1.622 6.49-7.785Z" style="fill:#db1f26;fill-opacity:1;fill-rule:nonzero;stroke:none" transform="translate(300.942 325.082)"/><path d="M0 0v73.315h-19.141V12.001h-22.368c-1.946 0-6.156 1.639-6.156 7.79v53.513h-23.663s4.858-.969 4.858-8.108V22.711C-66.47-1.294-46.371 0-46.371 0Z" style="fill:#db1f26;fill-opacity:1;fill-rule:nonzero;stroke:none" transform="translate(402.418 325.093)"/><path d="m0 0 32.263-43.307h22.368L20.263.162l32.731 29.837-19.467.016Z" style="fill:#db1f26;fill-opacity:1;fill-rule:nonzero;stroke:none" transform="translate(190.545 368.389)"/><path d="M0 0h-24.001s4.861-.971 4.861-8.108v-65.207H0V-.65Z" style="fill:#db1f26;fill-opacity:1;fill-rule:nonzero;stroke:none" transform="translate(189.745 398.397)"/></g></svg>