<svg xmlns="http://www.w3.org/2000/svg" xml:space="preserve" width="1313.5836" height="300" viewBox="0 0 1313.5836 299.99999"><path d="M157.926 160.63c33.744 15.115 43.814 32.29 43.814 59.164v59.596h-88.354v-59.596c0-26.874 10.081-44.049 43.822-59.163h.718" style="fill:#c69a58;fill-opacity:1;fill-rule:nonzero;stroke:none;stroke-width:.141112" transform="matrix(2.52611 0 0 -2.52611 -286.426 705.771)"/><path d="M157.898 163.403c31.759 14.227 41.405 30.393 41.405 55.682v57.892h-83.247v-57.892c0-25.289 9.41-41.455 41.17-55.682h.672" style="fill:#970022;fill-opacity:1;fill-rule:nonzero;stroke:none;stroke-width:.141112" transform="matrix(2.52611 0 0 -2.52611 -286.426 705.771)"/><path d="M140.042 193.573c.659-1.017 1.952-2.445 3.595-2.958 1.184-.367 2.353-.182 3.432.436a5.589 5.589 0 0 0 1.087-1.117c-.447-.187-.824-.498-.939-.988a4.627 4.627 0 0 1-.135-1.08c0-1.315.653-2.463 1.939-3.547.022-.11.035-.219.035-.219.062-.532.138-1.195.52-1.776.122-.2.311-.482.585-.713.202-.75.762-1.654 2.312-2.17.434-.273.955-.504 1.488-.719l.731-.307-.233.2c.161-.14.487-.39.69-.451.92-.3 2.066-.259 2.396-.237.055 0 .112.01.161.015 1.743.224 3.033 1.334 4.157 2.58.404.446.882.994 1.028 1.593.155.645.065 1.313.065 1.965 0 .8-.013 1.561.08 2.354.07.604.172 1.146.776 1.442.762.369 1.466.019 2.162-.3.332-.151.672-.3 1.012-.428.388-.145.725-.132 1.002-.475.179-.225.368-.288.642-.314.42-.032.515-.074.815-.392.31-.32.631-.522 1.012-.758.402-.254.82-.503 1.304-.614.302-.064.707 0 .98.16.265.154.33.437.534.648.26.27.635.395.95.585.21.13.46.17.643.335.219.199.236.465.356.718.27.55.995.426 1.32.955.303.496.17 1.236-.194 1.663-.237.275-.556.457-.783.739-.129.157-.302.257-.388.443-.088.192-.055.414-.171.597-.206.33-.676.553-.823.95-.37 1.018.024 2.28-.412 3.264-.194.44-.532.526-.427 1.082.138.73.122 1.582.482 2.25.417.775 1.25-1.077 1.414-1.274.34-.396.697-.832 1.094-1.17.473-.409.926-.678 1.566-.661.497.011.905.093 1.184.554.41.68-.172 1.265-.392 1.891-.282.817-.608 1.623-.748 2.482-.107.635-.258 1.276.131 1.864.158.235.487.188.673.411.19.22.19.618.568.66.318.031.551-.327.814-.438.522-.218.931.024 1.17.495.072.148.053.364.16.485.106.12.372.167.511.24.466.25.634.895.466 1.376-.195.533-.755.824-1.043 1.293-.212.34-.079.653-.048 1.045.041.494.048 1.032-.073 1.506-.075.274-.213.484-.393.715-.24.312-.165.372-.103.774.034.221-.045.81.103.982.182.209.696-.23.939-.308.588-.183 1.418-.283 2.023-.12.403.109.782.266.978.654.404.794-.152 1.57-.784 2.019-.398.278-.249.45.194.557.592.14 1.13.11 1.704.42.43.234.66.516.742 1.013.052.297.05.48.293.681.64.528 1.756.479 1.385 1.631-.187.578-.985 1.184-.77 1.84.183.54.946.837.812 1.495-.199.975-1.304 1.177-2.077 1.338-.77.16-1.578.357-2.338.557 0 0-.796.219-.819.227l-.65.339-1.177.564s-1.8.54-1.87.553l-.044.024s-.048.013-.006.006c-.052.027-.117.065-.117.065l-.546.307c-.025.01-1.254.403-1.254.403l-.98.32-.104.058-.354.164c-.008 0-.54.212-.54.212l-.253.087c-1.826.66-3.522.925-5.217.819l-.559-.006c-.659.01-1.56.02-2.649-.29 0-.007-1.027-.417-1.027-.417l-.4-.18c-.012-.006-.162-.05-.162-.05s-.75-.244-.75-.25l-.384-.17-.5-.201c-.519-.116-1.296-.1-2.047-.08-.802.015-1.638.032-2.429-.104-.989-.156-1.716-.581-2.297-.924l-.837-.427-.114-.023-.627-.16-.146-.046-.82-.316c.066.038-.465-.185-.465-.185l-.509-.199a27.035 27.035 0 0 1-.598-.329l-.195-.12c-.034-.015-.745-.457-.745-.457l-.14-.104-.217-.158c-.054-.04-.07-.046-.109-.095 0 0-.656-.614-.71-.667l-.426-.518-.145-.2c-.452-.52-1.116-1.145-1.596-1.5-.214-.118-.714-.406-.714-.406l-.318-.255-.269-.217c.03.022-.995-.582-.995-.582l-.442-.237c-.04-.02-.064-.04-.105-.06l-.369-.252-.664-.529-.275-.217c-.05-.031-.819-.786-.819-.786l-.126-.157c.043.04-.767-1.024-.767-1.024l-.09-.153c-.521-.765-.795-1.675-1.074-2.558l-.377-1.123c-.107-.203-.779-1.14-.992-1.35 0 0 .066.039.114.061a1.84 1.84 0 0 1-.247-.16s-.194-.185-.189-.178c0-.007-.286-.294-.3-.318l-.206-.156-.884-.864c0-.01-.412-.694-.412-.694l-.147-.273-.334-.484-.738-1.172a11.47 11.47 0 0 1-.188-.435c-.077-.113-.242-.406-.446-1.01a34.712 34.712 0 0 1-.268-.295c-.124-.114-.903-.886-1.019-1.416 0 0-2.73.307-4.831 1.382-2.082 1.065-.977-.645-.369-1.168.585-.5 1.286-1.048 3.129-1.57 0 0-1.332.151-3.402.983-2.058.832-.371-.9.183-1.273a5.855 5.855 0 0 1 2.166-.854s-3.06.172-4.94.8c-1.874.632-.909-.502-.374-.872.965-.663 3.164-.95 3.164-.95s-.625-.072-2.371.325c-1.717.385.175-.988 1.662-1.178 0 0-1.064-.293-1.885-.415-.814-.126.11-.535 1.185-.535.719 0 2.368.189 2.737.305 0 0 1.148-.223 2.27-.291l-.693-.423s-3.801-.44-4.544-.452c-.745-.011-.845-.744.532-.838.98-.068 1.565-.05 2.094 0 0 0-1.24-.737-1.845-1.054-.716-.37-.481-.84.914-.5 1.401.336 3.037.981 3.827 1.338 0 0 1.55.062 2.27.288 0 0-.896-1.432-1.875-2.201-.714-.554.026-.707.89-.48.871.227 2.168.901 2.9 2.159 0 0 .37-.107.71-.107 0 0 .337-1.045 1.749-1.509" style="fill:#d2ae7a;fill-opacity:1;fill-rule:nonzero;stroke:none;stroke-width:.141112" transform="matrix(2.52611 0 0 -2.52611 -286.426 705.771)"/><path d="M175.705 188.506c.021.024.021.024 0 0M175.705 188.499v.007-.007M174.273 219.985a.194.194 0 0 0 .018.046c-.018-.055-.032-.056-.018-.046M168.034 202.46s-.02 0-.022.006c.022-.02.022-.02.022-.006M170.21 218.382s.512-.223.977-.112c.312.084.921.356 1.225.41.182.049.438-.047.618 0 .498.158 1.416 1.128.324 1.234-.4.041-1.597-.409-1.963-.516-.375-.093-.61-.158-.911-.32-.086-.04-.508-.393-.453-.333 0 0-.287-.24.183-.363M156.618 207.494c.112.148.27.048.405 0 .127-.034.136-.278.202-.401.037-.095.28-.344.305-.418.202-.896 0-2.08-.398-2.768-.123-.208-.309-.326-.443-.328-.17-.014-.222.23-.282.328-.26.364-.065 1.229 0 1.628.067.528-.345 1.362-.082 1.741l.293.218M144.322 206.544c.217.068.53-.05.662 0l.293.111c.343.223.687.157 1.028.127.172-.025.692-.238.857-.252a86.21 86.21 0 0 0 2.941-.364c-.007.006.727.097.548.303.111-.134-.017.11-.298.206l-.104.107c.01.015-.236.205.207.359-.16-.047.294.063.374.168.18.185-.073.388-.073.388-.654.22-1.38-.196-2.363-.095-.475.04-1.158.315-1.836.21-.746-.138-1.83-.547-2.34-.955 0 0-.249-.427.104-.313M152.539 211.87c.672.033.695-.654.714-.582-.078-.49-1.283-.535-1.566-.916-.857-1.103-.494-2.154-2.493-2.26 0 0-.397.093-.245.248.123.14.605.265.785.374.263.152.235.566.405.824.038.062.268.138.318.196.555.757.63 1.52 1.606 1.974.041.02.4.126.476.142" style="fill:#750013;fill-opacity:1;fill-rule:nonzero;stroke:none;stroke-width:.141112" transform="matrix(2.52611 0 0 -2.52611 -286.426 705.771)"/><path d="M158.927 214.817c.229.133.459 0 .602-.128.09-.068.818-1.81.857-1.99.083-.632.154-2.09-.014-2.564-.248-.659-.848-1.16-.723-2.322.078-.686.379-1.225.654-1.82.043-.095.337-.672.354-.797.116-.63-.223-1.438-.271-1.947-.154-1.257.337-2.403.143-3.608-.087-.52-.256-.78-.535-1.097l-.227-.196c-.065-.118-.178-.166-.287-.252l-.148-.143c-.202-.052-.231-.175-.318-.188-.539-.12-.65.198-.608.125-.549 1.543.364 3.344-.107 4.836-.103.34-.518.68-.564 1.042-.19 1.34 1.058 2.046 1.04 2.943 0 .643-.837 1.473-1.025 2.11-.244.737-.4 2.15-.073 3.08.076.22.368.6.441.891.156.58.391 1.059.474 1.431.027.122.102.291.17.398.013.045.124.18.165.196M174.865 218.01c.902.112 1.306-.249.888-1.02l-.175-.169c-.079-.022-.315-.336-.365-.38-.434-.321-.848-.524-1.184-.93-.117-.135-.2-.482-.339-.6-.231-.166-1.096-.55-1.328-.582-1.078-.176-2.56.912-2.728 1.541-.138.54 0 1.07.239 1.188.357.19 1.342.093 1.675.126.833.063 1.357.018 2.008.241.387.129.844.532 1.31.584M162.35 216.526c-.31.05-.31.591-1.119.412-.574-.12-.72-.942-1.548-.921l-.4.199c-.359.087-.619-.043-.93.113-1.452.677 1.121 4.144 1.947 4.1.047 0 .471-.16.516-.208.271-.222.271-1.187.508-1.54.184-.243.477-.224.72-.412.264-.196.763-.878.827-1.233 0 0 .138-.594-.52-.51M156.133 216.275c-.556-.313-1.775-.799-2.038-1.338-.14-.286-.14-.527-.257-.87-.015-.041-.169-.096-.215-.206-.589 0-1.117.04-1.63-.1-.41-.113-.994-.548-1.434-.621-.914-.156-1.619.25-2.47.105-.38-.065-.626-.462-.934-.618-.27-.127-.378-.127-.592-.316l-.188-.223a2.524 2.524 0 0 0-.18-.388c-.18-.276-.259-.56-.3-.86-.046-.3-.217-.994-.37-1.282-.08-.147-.458-.454-.519-.583-.025-.089-.115-.18 0-.31-.124.138-.103-.143.634-.184.814-.012 2.582.528 2.582.528l.851.455c.165.128.826.629.97.801.619.766 2.274 3.566 3.563 2.838l.232-.17c.305-.516-.077-1.993-.31-2.324l-.294-.348c-.23-.083-.385-.68-.421-.948-.057-.446.074-.844.11-1.095.066-.53.12-1.203-.212-1.857-.065-.12-.261-.35-.205-.705.057-.413.628-.7.716-1.03.048-.17.19-.193 0-.518-.11-.173-.576-.468-.716-.612-.189-.199-.024-.485.098-.605.358-.326.649-.364.924-.737.392-.505.367-.937 1.236-1.023.68-.06 1.643-.097 1.23.828l-.208.342c-.232.605-.66 1.143-.716 1.807-.074.837.597 1.27.312 1.944-.224.527-1.257.464-1.337 1.143-.048.38.344 1.178.419 1.539.067.495-.057.807.101 1.236.099.295.552.64.604 1.012.092.679-.43 1.106-.199 1.851.113.38.704.338.923.623.29.375.13.897.3 1.439.026.055.164.377.193.435-.017.024.122.687.122.687-.077.413-.343.243-.375.258m-6.501-5.417c-.574-.134-.63 1.098-2.001.615-.078-.024-.469-.378-.504-.442-.154-.36-.066-1.29-.248-1.39 0 0-.538-.127-.438.55.164 1.083.374 1.282.918 1.74.069.059.287.208.386.23.65.153 1.854-.097 2.072-.426.183-.28-.21-.889-.185-.877" style="fill:#750013;fill-opacity:1;fill-rule:nonzero;stroke:none;stroke-width:.141112" transform="matrix(2.52611 0 0 -2.52611 -286.426 705.771)"/><path d="M187.231 218.986c-.103.5-1.467.467-2.012 1.13-.203.274-.055.42 0 .622.15.579 1.395.233 1.693.755.119.222.148.867.078.954-.778.956-2.433.498-3.593.961-.566.229-1.261.699-1.847.916-.735.29-1.31.332-2.055.618-.168.076-.498.316-.671.384-.824.333-1.472.4-2.3.745-.092.04-.352.19-.448.226-.327.147-.443.168-.78.29-1.277.46-2.892.864-4.729.751-.803-.04-1.735.107-2.98-.245-.422-.11-1.023-.479-1.43-.607-.287-.082-.523-.137-.79-.251-.351-.141-.666-.347-1.161-.47-1.399-.31-3.29.034-4.717-.202-1.235-.2-1.96-.986-2.982-1.338-.316-.103-.435-.067-.74-.178-.18-.062-.596-.177-.749-.254-.427-.221-.705-.289-1.178-.486-.243-.109-.522-.33-.757-.44-.35-.171-.364-.222-.654-.42l-.227-.172s-.506-.442-.565-.52c-.193-.201-.394-.49-.569-.713-.522-.603-1.302-1.368-1.95-1.839-.235-.17-.398-.131-.61-.313-.242-.195-.46-.387-.688-.57-.552-.381-1.082-.64-1.672-.964l-.384-.254c-.5-.325-.487-.457-1.006-.786-.333-.231-.483-.583-.799-.85-.207-.156-.444-.663-.58-.876-.639-.942-.889-2.331-1.346-3.495-.13-.34-1.252-1.957-1.534-2.058l-.203-.194c-.16-.137-.16-.178-.308-.32-.334-.294-.67-.466-.921-.825-.206-.278-.333-.598-.517-.917-.297-.478-.777-1.02-1.02-1.545-.11-.192-.17-.383-.25-.57l-.045-.064c-.125-.154-.346-.818-.346-.818-.227-.536-.764-.827-1.483-1.847-.836-.06-3.726.673-5.69 1.61.44-.501 2.641-1.981 5.223-2.262-.173-.251-.183-.511-.492-.593-1.033-.252-2.83.312-5.238 1.154.145-.334 2.26-1.574 5.4-1.77-.47-.544-4.768-.415-8.138.506-.13-.353 4.204-1.315 6.586-1.281-.397-.212-1.476-.45-2.163-.702-1.085.12-2.602.307-2.896.415.066-.217 1.142-.51 2.03-.714-.852-.3-2.123-.48-2.611-.59.355-.083 1.73.133 3.17.482 1.269-.24 3.21-.494 4.27-.445-.27-.133-1.27-.779-2.06-1.244-2.02-.194-4.227-.36-4.699-.417.266-.042 2.046-.067 3.936-.03-1.15-.672-2.388-1.371-2.989-1.642.888.219 2.448.823 4.054 1.678 1.586.058 3.072.19 3.69.41-.217-.458-1.494-2.676-2.695-3.19.52.085 2.186.56 3.18 3.066a3.504 3.504 0 0 1 1.233-.278c.264-.395.901-1.415 2.084-1.481.244-.688 2.43-4.266 5.522-2.872-.89.487-1.433.998-1.874 2.417 1.375.085 4.998-1.905 6.087-6.2-.854.29-1.932.789-2.046 1.213-.231-.994-.39-2.28 1.816-4.494.035-.464.03-1.04.137-1.575.357-.385.778-.663 1.17-.989.025-.625-.058-1.483 1.577-1.964.554-.45 2.341-.949 2.607-1.259.532-.17 1.32-.203 1.909-.17 0 0 .773.13.98.428.382.02.914.031 3.291 2.566.499.595 0 3.872.12 4.668.237.578.336 1.116.652 1.819 0 0 .326.698.929.98.042.027.087.027.134.038 1.364.312 3.147-.972 3.985-1.33.309-.126.474-.061.725-.205.117-.07.29-.344.407-.416.303-.175.594-.119.928-.3.497-.273 1.493-1.72 2.357-1.556.275.067.487.686.72.834.413.253.97.225 1.337.505.41.328.233.695.303 1.138 0 .02.194.223.214.312.2.022.646 0 .92.091.04.016.16.16.207.208.167.182.048.376 0 .526-.072.164-.481.366-.618.505-.3.304-.841.752-1.026 1.122-.099.193.021.233-.114.426-.13.212-.488.43-.593.704-.392.885-.244 2.844-.422 3.118-.154.27-.362.234-.52.477-.345.541.074 2.287.108 2.973.023.557-.516.214-.516.214-.44-1.109-.394-1.6-.513-3.187-.014-.133-.201-.981-.201-1.135-.007-.545.32-1.489.101-2.152-.075-.216-.52-.628-1.129-.617-.232 0-1.373.298-1.64.405-.054.034-.293.31-.31.32-.578.45-.698.029-.725-.194-.017-.239.08-.287.124-.422.023-.126.26-.62.229-.662 0-.048-.206-.587-1.269.043-.806.486-1.602 1.825-1.642 2.057-.11.514.049.899.146 1.078.4.356.877-.138 1.279-.357.1-.052.35-.223.472-.247.239-.044.613.04.66.04 1.563.09 3.177-.475 3.455.572.172.658-.474 1.012-.587 1.275-.148.338-.07.36-.156.726-.013.029-.12.267-.139.298-.165.274-.055.511-.204.814-.163.342-.631.54-.824.827-.261.383-.261.853-.62 1.133-.52.428-2.629 1.053-2.87 1.541-.4.782.083 2.206-.107 3.18-.102.573-.29.883-.637 1.229a.59.59 0 0 0-.15.53c.091.345.279.247.38 1.01.055.424-.043.9 0 1.331 0 .072.202.743.21.827.095 1.149-.059 2.34-.308 3.17-.12.407-.493.759-.621 1.136-.108.321.03.508-.108.83-.108.274-.455.476-.6.702-.277.412-.197 1.112-.62 1.345-.313.168-.426-.07-.41 0-.102-.383-.086-.745.1-1.23.078-.215.465-.516.521-.72.08-.386-.056-.848 0-1.232l.2-.42c.156-1.028-.4-2.394-.822-2.968-.295-.381-1.182-.868-1.228-1.44-.04-.354.1-.364.187-.513.14-.185.561-.438.626-.616.048-.13.098-.105.153-.235l.058-.282c.062-.722-.868-.878-.42-1.735.135-.252.573-.252.826-.417.459-.29 1.346-1.12 1.43-1.838.04-.307 0-1.964-.095-2.153-.209-.463-1.362-.64-1.23-1.544.145-.982 2.741-.711 3.478-1.226.35-.251.422-.78.52-1.246.064-.257-.19-.339-.303-.4-.28-.163-.468-.035-.824-.11-.85-.17-2.2-.554-2.555-1.237-.444-.785.08-1.856-.105-2.76-.185-.816-.794-1.81-1.243-2.47-.272-.403-.62-.794-.745-1.363-.3-1.2-.089-2.637-.188-4.06l-.013-.018s.054-.73-.437-1.264c-.567-.62-2.516-2.45-3.91-2.45-.508.011-.72.18-1.287.593-.353.028-1.164.226-1.633.718-.144.26-1.676 1.813-.71 2.254.904.421 2.361-.49 3.041-.93.28 0 2.258-.098 4.36 2.661-.098 1.44-.22 3.292-.37 3.62-.222.708-1.413 1.961-1.668 2.713-.158.605-.446 1.802-.266 2.628-.073.924-.666 1.119-.904 1.865-.064.19-.15.333-.188.398-.062.261-.125.508-.288.758-.37.553-.72.68-1.05 1.223-.352.566-.283 1.272-.824 1.647-.299.19-.695.216-1.024.405-.243.141-.545.49-.819.61-.327.144-.419.184-.743.333-.161.077-.453.21-.593.283-.148.084-.293.01-.412.112-.4.334-.109.642-.313 1.219-.021.068-.17.076-.203.21-.167.04-.453.31-.68.157-.303-.236-.389-.17-.58-.64-.105-.304-.322-1.219-.528-1.447-.18-.216-.42-.52-.711-.73-.27-.142-.504-.12-.504-.12l-.766-.11-.39-.591s-.42.06-.634.06c-.06-.15-.572-.533-.732-.668-.653-.387-1.05-.115-1.09.021-.035.121-.246.378.201.648 1.507.415 3.351 2.427 3.507 2.867-.194-.298-3.31-2.014-3.89-2.25.619 1.477 4.434 3.622 4.669 3.877-.973-.147-4.228-2.118-4.797-2.979-.535-.875-1.165-.63-1.774-.608-.58.018-.526-.603-.55-.988-.011-.372-.298-1.136-.056-1.271.4-.344 1.44 1.043 1.785.296.178-.834-1.983-.799-1.962-1.466-.098-.363 2-.48 2.38-.858-.675-.498-2.325-.65-2.814-.68a3.366 3.366 0 0 0-.74.015c-.273.044-.635.295-.948.81-.601 1.086.42 1.832.435 2.104.025.298-.122.139-.137.597-.02.453.498.534.626.627.14.1-.042.227-.006.664.267 1.004 1.89 2.15 1.48 2.476-.375.194-1.172-.678-1.474-1.074-1.123-1.441-2.43-.988-2.865-1.005-.993-.054-.814 1.03-.13.958.804.157.739 1.264 1.304 1.143.181-.797-.71-.917-.292-1.096.568-.22.628.53.809.838.164.313.96 1 .88 1.173-.238.08-.83-.342-1.092-.545-.65 1.621.98 2.855 1.067 3.333.538.845 3.54 1.935 3.591 3.22l.088.078s.05.035.144-.122h.008a2.15 2.15 0 0 1 .056-.242c.01-.106-.008-.208-.008-.208l.019.127c.018-.203.018-.375.018-.334v-.195c.032-.114.185-.17.205-.186a.74.74 0 0 1 .386.248c.027.024.192.19.192.227.294.215.344.24.549.53.52.752-.476 1.85-.205 2.86.195.678.819 1.473.819 1.473.175.382-.093.382-.093.382-.404.075-.675-.351-.616-.302-.51-.477-.659-.7-1.032-1.344 0 0-.305-.28-.397.105-.174.635.545 1.884.77 2.048.425.286.844.412 1.372.624.277.117.665.542.934.608.129.05.267.077.407 0 0 0 .197-.138.104-.608 0 0-.205-.553-.133-.757.051-.138.029-.265.332-.265.75-.023 2.39.157 2.87.415.11.045.222.202.318.293.152.16.115.387 0 .414l-.318.103c.249.03-1.383.046-1.126.096-.282-.05.394.76.312 1.14-.032.188-.357.258-.412.405-.03.092-.203.229 0 .312l.238.097c.08.057.168.15.273.21.518.236 1.44.118 1.85 0 .053-.026.704-.21.928-.826.052-.177.1-.366.202-.518.308-.424 1.21-.577 1.74-.075.106.097.241.343.319.477.52 1.212-.258 2.038-1.24 2.37-.397.137-1.042.184-1.537.308-.352.1-.138.397-.042.484l.148.139c.196.283.811.54 1.03.615.539.2 1.074.402 1.844.093.112-.038.418-.277.505-.302.582-.144.799-.184 1.337.09.217.107.186.134.207.205.186.547-.19.92-.18.855-.104.745 2-.174 2.324.286.314.427.115 1.23.527 1.541.036.029.283.195.3.202.395.082.737-.08 1.054-.202l.333-.16c.664-.274 1.237-.42 1.597-.966.23-.36.193-.875.41-1.24.097-.147.315-.251.424-.402.099-.124.28-.192.394-.261.192-.122.264-.168.51-.249.188-.072.45-.348.621-.413.625-.263 1.375-.22 2.056-.21.4.022.635-.22 1.02-.105.198.072.143.415.019.566-.243.312-.435.236-.837.463-.157.106-.36.416-.514.508-.47.306-1.147.353-1.436.828-.033.075-.092.208-.096.3l-.113.215c-.563 1.152-.753 1.833-.205 2.052.332.128 1.084.055 1.444.205.085.043.243.275.305.31.813.382 2.34.841 3.183.406.25-.12 0-.774.1-1.027.051-.113.245-.295.452-.365 1.754-.47 3.52-.397 4.818-1.005.766-.364 1.361-.936 2.051-1.535.597-.532-.104-1.126.507-1.304-.428-.055-.778-.106-.848.111a1.256 1.256 0 0 1-.209.3c-.453.443-.995 1.114-1.638 1.337-.325.122-.472.014-.827.1l-.402.143c-.458.124-.486.085-.926.18-.199.033-.635.27-.824.294-.878.127-1.362-.22-2.154 0-.372.109-.845.691-1.14.85-.372.207-.71.276-1.126.407-.166.05-.257.05-.374-.018-.23-.128-.15-.33-.035-.498.07-.092.126-.251.205-.295.29-.214.874-.214 1.027-.512.457-.896-.209-1.214-.304-1.48-.055-.159-.173-.286 0-.507.095-.116.295-.255.414-.3.42-.177.744-.106 1.13-.314.275-.141.565-.645.923-.722.817-.173 1.019.434 1.434.522.588.13.958-.185 1.642 0 .223.062.353.33.51.408.395.203.789.232 1.036.105 0 0 .26-.125-.11-.313-.216-.116-.394-.116-.609-.229-.148-.076-.288-.29-.306-.317a2.192 2.192 0 0 1-.123-.377.568.568 0 0 1 .216-.21c.714-.243 1.438.222 2.059.313.446.068 1.722 0 2.088-.282 0 0 .345-.073.119-.684-.138-.364-.72-.638-.943-.956-.127-.175-.279-.51-.402-.686-.223-.282-.26-.27-.474-.527l-.15-.219c-.084-.264-1.134-1.149-1.329-1.448-.113-.175-.176-.364-.295-.554-.19-.268-.326-.31-.422-.475-.304-.434-.89-1.31-1.378-1.536-.219-.085-.528.01-.826.073-.21.06-.426.433-.607.514-.72.33-1.52.24-2.157.62-.316.188-.596.739-.833 1.025-.144.195-.278.53-.502.625-.373.127-1.266.007-1.437-.306-.342-.652.544-2.304.617-2.991.054-.582-.213-.84 0-1.325.095-.246.488-.312.612-.514.556-.874.077-2.111.208-3.284.048-.358.268-.818.199-1.339-.086-.816-1.146-1.525-.72-2.766.024-.052.223-.203.243-.216.158-.08.413-.042.587.006.347.12.672.805 1.026 1.032a.43.43 0 0 0 .226.097c.038.065.132.072.183.105.154.113.215.113.305.302.148.336.096.664.206 1.134.107.395.464 1.092.516 1.54.13 1.261-.786 3.722-.13 4.123.257.155.497.45.926.515.192.047.809-.147 1.083-.14v-.007c-.34-.788.896-2.837.788-3.968-.24-2.761-2.034-4.29-3.59-5.761-.186-.175-.03-.377.102-.505.305-.3 1.06-.171 1.44-.11.567.118.818.37 1.23.517.15.057.341-.038.51 0 .427.105.791.688 1.03 1.032 0 0 .498.549.606-.172l.008-.045c0-.667-.117-1.393 0-2.042.126-.77 1.533-3.088 2.265-3.19 1.698-.255-.04 1.9-.117 2.055-.271.646-.552 1.81-.51 2.666.015.317.274.95.301 1.24.02.15-.052.488 0 .614.145.268 1.051.361 1.24.711.053.109-.018.296 0 .418.047.241.226.705.417.909.12.162.297.244.512 0 .175-.19.212-.66.516-.985l.25-.277c.304-.192.792.064.67.04.312.09.27.405.414.523.018.017.189.088.189.088.75.773-.906 1.457-.917 2.17-.01.782.179 1.69-.102 2.555-.063.226-.463.528-.504.724-.124.493.14 1.013.204 1.328.111.652-.112 1.668.1 1.957.13.156.313.271.714.202.262-.046.433-.473.62-.615.667-.546 1.443-.837 2.568-.716.144.01.254.22.275.273a.74.74 0 0 1-.075.653c-.408.535-1.966.954-2.053 1.217-.058.2-.3.47-.036.612-.145-.093.961.032 1.37.118.524.11.555.634.922.815.508.266 1.26.035 1.552.513.168.305.031.744.19 1.03.208.363.814.436 1.128.723.098.079.053.4.041.502m-41.26-24.003c-.207.22-.035.656.334.841.693.326.963-.046 1.114-.223.67-1.038 1.537-2.376 2.174-2.908-.592-.054-2.794.62-3.623 2.29m5.64-10.381c-.345 0-2.641 1.92-2.291 3.124.67-.504 2.194-1.565 2.387-1.545.197-.12.357-1.443-.096-1.58m2.66-.007c-.299.268-2.513 2.607-1.96 3.69.614-.606 2.296-2.165 2.906-2.315.166-.438.145-1.668-.946-1.375m.236 8.942c.388-.584.92-.919.899-2.182-.044-.296.052-.365.31-.334.232.066.105 1.508.806 1.414.587-.084.193-.917.488-1.846.1-.327.782-1.521.597-3.557-.012-.525-1.01-1.215-1.587-.812-.465.287-.465.634-.737 2.787-.111 1.276-1.668 1.706-2.32 2.292-.664.481-.283.727-.406 1.611-.381 1.275-1.874 1.874-1.376 2.722.165.212.31.414.78.233.033-.633 1.543-1.123 2.546-2.328m-10.578 4.027c-.038-.024-.043-.024.017.006-.008 0-.015 0-.017-.006.156.07.819.381.99.443.702.249 1.082-.127 1.724.233.156.096.323.344.464.46.123.105.335.088.487.193.357.246 1.026 1.01 1.479 1.09.27.045.267-.02.4-.035 0-.022.2.042.147-.356-.121-.756 1.668.015 2.831-.268.803-.185 1.582-.462 1.373-.974.03.06-.236-.154-.296-.193-.546-.401-.977.04-1.25.076-.483.058-.826-.092-1.317-.033 0 .016-.586.204-.586.204-.377.02-.908-.172-1.2-.204-.534-.033-.8.15-1.285.102-.225-.027-.62-.337-.783-.4a11.785 11.785 0 0 0-.508-.163c-.099-.027-.36-.17-.485-.224-.497-.243-.79-.243-1.387-.405l-.35-.093c-.753-.1-.683.417-.448.547m-1.829-2.932c.816.195 1.055-.016 1.434-.934.294-.545.892-1.272 1.122-1.602-.941-.116-2.407 1.157-2.826 1.85-.263.344.132.608.27.686m-10.282 3.86c1.065.288 2.002.599 2.403.826.138.006.28.006.42.017.062-.28.167-.57.339-.855.034-.055.076-.113.107-.16-.643-.018-1.949.067-3.27.173m2.216-1.863c.548.32 1.074.683 1.568 1.043.224-.264.474-.512.746-.748-.28-.08-1.185-.188-2.314-.295" style="fill:#750013;fill-opacity:1;fill-rule:nonzero;stroke:none;stroke-width:.141112" transform="matrix(2.52611 0 0 -2.52611 -286.426 705.771)"/><path d="M143.928 197.562c.003.004.008.004.017.004-.06-.027-.055-.027-.017-.004" style="fill:#750013;fill-opacity:1;fill-rule:nonzero;stroke:none;stroke-width:.141112" transform="matrix(2.52611 0 0 -2.52611 -286.426 705.771)"/><path d="M133.575 254.86c-.203.178-.428.379-.675.599-.242.217-.49.454-.732.696a198.48 198.48 0 0 0-2.156 2.365l-.838.915c-.278.302-.53.587-.762.858l-.631.696-.2.224c.022.029.047.06.077.094.152.186.344.417.573.698.23.28.487.6.776.957.286.357.576.718.866 1.086l2.337 2.887.83.832h-3.29l-4.746-5.926v5.926h-3.019v-14.354h3.019v6.46l4.878-5.423c.497-.689 1.391-1.037 2.657-1.037h2.97l-1.282.909c-.21.159-.426.34-.652.539" style="fill:#fff;fill-opacity:1;fill-rule:nonzero;stroke:none;stroke-width:.141112" transform="matrix(2.52611 0 0 -2.52611 -286.426 705.771)"/><path d="M143.647 267.786v-8.781c0-.598-.045-1.137-.128-1.602-.079-.424-.234-.779-.467-1.057-.229-.28-.559-.499-.984-.65-.44-.157-1.031-.239-1.757-.239-1.864.006-2.77 1.166-2.77 3.548v4.236c0 1.248.007 2.652.02 4.215l.003.33h-3.04v-8.781c0-1.034.04-1.751.122-2.2.162-.831.51-1.55 1.034-2.142.963-1.046 2.326-1.575 4.056-1.575h1.146c1.727 0 3.092.53 4.061 1.58.52.588.865 1.306 1.029 2.141.081.445.12 1.162.12 2.196v8.781h-2.444M132.899 247.03l-3.778-9.732h-.954l-4.145 9.682-1.253-9.682h-1.707l1.756 12.038h2.34l3.628-8.46 3.342 8.46h2.377l1.67-12.038h-2.122l-1.154 9.732M138.934 238.971h5.635v-1.673h-7.725v12.006h6.973v-1.606h-4.883v-3.11h3.846V243h-3.846v-4.029M154.181 247.732c1.217-1.059 1.824-2.497 1.824-4.314 0-1.805-.635-3.277-1.907-4.414-1.271-1.137-2.914-1.705-4.932-1.705h-3.594v12.022h3.694c2.063 0 3.702-.53 4.915-1.59m-1.954-7.824c.5.39.875.899 1.12 1.531a5.55 5.55 0 0 1 .366 2.014c0 .635-.102 1.22-.308 1.755a3.942 3.942 0 0 1-.894 1.387c-.793.77-1.93 1.153-3.411 1.153h-1.489v-8.91h1.17c1.415 0 2.565.357 3.446 1.07M157.091 249.304h2.073v-12.006h-2.073v12.006M170.4 237.883a11.56 11.56 0 0 0-.478-.217 7.367 7.367 0 0 0-.743-.267 11.602 11.602 0 0 0-1.029-.21 8.277 8.277 0 0 0-1.263-.091c-2.128 0-3.787.557-4.981 1.672-1.226 1.103-1.84 2.598-1.84 4.481 0 1.805.585 3.277 1.755 4.414a6.22 6.22 0 0 0 2.05 1.354c.784.323 1.663.512 2.632.568a7.441 7.441 0 0 0 1.564-.058c.451-.073.832-.153 1.146-.244.366-.121.685-.254.952-.4v-2.024c-.257.17-.508.319-.752.453-.244.133-.502.25-.77.351-.279.1-.576.175-.894.226-.317.05-.671.07-1.06.058-.704-.023-1.329-.167-1.873-.435a4.954 4.954 0 0 1-1.389-.986c-.735-.77-1.104-1.772-1.104-3.01 0-1.294.39-2.39 1.172-3.293.423-.48.892-.834 1.404-1.062a4.602 4.602 0 0 1 1.74-.376c.5-.023.956 0 1.368.067.413.065.782.15 1.104.25.312.102.576.21.787.327.21.116.379.214.501.293v-1.84M171.486 249.304h2.074v-12.006h-2.074v12.006M185.096 249.32h.133v-12.04l-1.722.018-7.04 8.979v-8.98h-1.57v12.024h1.804l6.939-8.828v8.828h1.456M188.656 238.971h5.633v-1.673h-7.723v12.006h6.973v-1.606h-4.883v-3.11h3.846V243h-3.846v-4.029" style="fill:#fff;fill-opacity:1;fill-rule:nonzero;stroke:none;stroke-width:.141112" transform="matrix(2.52611 0 0 -2.52611 -286.426 705.771)"/><path d="M448.238 227.309c.47 1.426 2.018 7.229 2.018 21.715v4.75l.056 4.97v.303h-31.856v-5.58h25.463v-9.976c0-2.8-.348-13.565-1.994-16.182h-3.161v14.272h-6.082v-14.272h-4.607v14.272h-6.1v-14.272h-7.803v-5.573h40.113v5.573h-6.047M353.178 259.445v-14.529h-4.041v14.53h-5.86v-27.84c-2.625-1.702-7.266-1.584-7.31-1.584h-7.468v23.766h9.64v5.364H322.13v-29.508c.054-4.634 4.34-5.122 4.38-5.13.065-.008 4.34-.098 8.739.106 4.271.205 6.68.874 8.026 1.476v-7.158h5.86v20.307h4.042v-20.307h5.852v40.507H353.178M228.897 221.627h40.218v5.583h-6.034c.496 1.584 2.004 7.527 2.004 21.515v6.646l-.02 3.373v.303H233.29v-5.599h25.45v-10.24c0-.125-.084-12.784-1.935-15.998h-9.092v14.49H241.6v-14.49h-12.704v-5.583M398.454 234.493h-28.189v-5.422h27.893v-10.133h6.306v15.555h-6.01M381.671 242.285c-2.929 0-5.31 2.389-5.31 5.327 0 2.945 2.381 5.332 5.31 5.332 2.923 0 5.308-2.387 5.308-5.332 0-2.938-2.385-5.327-5.308-5.327zm0-5.155c6.197 0 11.24 4.792 11.24 10.682 0 1.99-.632 3.874-1.78 5.52h3.822v5.185h-10.327v3.999h-6.155v-4H367.93v-5.184h4.148c-1.172-1.646-1.812-3.53-1.812-5.52 0-5.787 5.219-10.682 11.406-10.682M404.429 259.311h-6.314v-22.448h6.314v8.182h4.193v5.613h-4.193v8.653M305.5 259.548v-7.26h-6.826V247h6.825v-6.117h-6.825v-5.28h6.825v-4.445c-2.149-2.182-8.003-2.14-8.063-2.14h-14.205v10.544h12.897v19.523h-19.734v-5.372h13.631v-8.571h-13.2v-.103h-.101v-16.58c.19-4.467 4.352-4.95 4.391-4.954l15.586.109c4.926 0 7.993.928 8.798 1.35v-6.025h6.38v40.61h-6.38M605.407 232.81h-6.295v-9.664c0-1.464.307-2.512.923-3.203.55-.664 1.449-1.005 2.662-1.005h30.661v5.317h-27.951v8.554" style="fill:#950022;fill-opacity:1;fill-rule:nonzero;stroke:none;stroke-width:.141112" transform="matrix(2.52611 0 0 -2.52611 -286.426 705.771)"/><path d="M607.034 254.364c1.051 1.03 2.28 1.535 3.728 1.535 1.405 0 2.596-.505 3.646-1.535 1.146-1.11 1.702-2.429 1.702-4.012 0-1.55-.556-2.843-1.702-3.96-1.086-1.106-2.272-1.627-3.646-1.627-1.423 0-2.642.521-3.725 1.627-1.114 1.108-1.66 2.408-1.66 3.96 0 1.583.543 2.903 1.657 4.012zm13.552-10.02c1.214 1.723 1.84 3.736 1.84 5.998 0 3.261-1.22 5.98-3.64 8.073-2.277 1.986-4.96 2.99-8.024 2.99-3.112 0-5.834-1.004-8.087-2.99-2.39-2.094-3.599-4.812-3.599-8.073 0-2.262.618-4.273 1.824-5.998h-4.248v-5.375h11.518v-8.334h6.273v8.334h10.437v5.375h-4.294" style="fill:#950022;fill-opacity:1;fill-rule:nonzero;stroke:none;stroke-width:.141112" transform="matrix(2.52611 0 0 -2.52611 -286.426 705.771)"/><path d="M627.1 227.671h6.288v31.704H627.1v-22.989h-5.734v-5.346h5.734v-3.369M569.54 246.192h-9.566v4.296h9.566zm6.427 14.251h-6.31v-4.686h-9.683v4.686h-6.398v-15.127c0-1.578.287-2.693.872-3.394.556-.691 1.467-1.04 2.689-1.04h18.824l.006 19.561M571.033 231.735c1.24 1.139 2.67 1.694 4.389 1.694 1.647 0 3.048-.555 4.283-1.694 1.339-1.237 1.992-2.69 1.992-4.446 0-1.719-.653-3.155-1.992-4.394-1.275-1.218-2.674-1.805-4.283-1.805-1.678 0-3.106.587-4.382 1.795-1.306 1.244-1.944 2.68-1.944 4.404 0 1.755.638 3.209 1.937 4.446zm4.389-15.847c3.305 0 6.216 1.04 8.637 3.094 2.607 2.174 3.936 4.967 3.936 8.296 0 3.383-1.33 6.203-3.936 8.383-2.424 2.056-5.335 3.1-8.637 3.1-3.376 0-6.316-1.044-8.745-3.1-2.574-2.18-3.882-5-3.882-8.383 0-3.33 1.308-6.116 3.882-8.296 2.429-2.054 5.37-3.094 8.745-3.094M582.58 239.245h6.335v21.45h-6.336v-3.739h-5.084v-5.25h5.084v-2.941h-5.084v-5.196h5.084v-4.324M468.358 253.593c1.07 1.071 2.3 1.59 3.772 1.59 1.416 0 2.622-.519 3.688-1.59 1.148-1.162 1.706-2.533 1.706-4.184 0-1.611-.558-2.964-1.706-4.123-1.106-1.15-2.304-1.69-3.688-1.69-1.438 0-2.676.54-3.768 1.686-1.123 1.163-1.67 2.516-1.67 4.127 0 1.651.547 3.022 1.666 4.184zm3.814-15.241c3.103 0 5.838 1.019 8.12 3.004 2.445 2.115 3.695 4.82 3.695 8.046 0 3.288-1.25 6.023-3.695 8.141-2.286 1.993-5.018 3-8.12 3-3.167 0-5.93-1.007-8.214-3.004-2.415-2.118-3.646-4.849-3.646-8.137 0-3.224 1.231-5.928 3.646-8.043 2.284-1.988 5.047-3.007 8.214-3.007M470.436 233.685h-6.365v-10.511c0-1.472.307-2.526.938-3.227.546-.666 1.45-1.01 2.677-1.01h28.963v5.308h-26.213v9.44M496.706 259.822h-6.38v-28.435h6.38v15.539h4.834v5.603h-4.834v7.293M542.983 259.943h-6.395V231.79h6.395v13.957h4.248v5.649h-4.248v8.548M516.827 233.485h-6.261v-10.311c0-1.472.302-2.523.928-3.227.55-.663 1.456-1.01 2.674-1.01h28.795v5.308h-26.136v9.24M532.834 243.336l-.366.052c-7.581 2.385-9.658 11.506-9.658 15.953v.481H516.437v-.481c.004-4.84-2.08-13.568-9.653-15.953l-.41-.056 2.195-5.14c4.594.882 10.077 5.209 11.055 8.05 1.07-2.684 6.925-7.258 11.016-8.193l2.194 5.287M281.6 195.453l4.85-.008v1.99l-4.85-.01v3.934c1.063.028 5.933.003 5.988.003l.172-.003v2.03l-8.79.006v-.175l.002-14.977h9.725v2.12l-7.098-.007v5.098M370.17 195.453l4.848-.008v1.99l-4.847-.01v3.934c1.062.028 5.934.003 5.987.003l.168-.003v2.029l-8.787.007v-15.153h9.73l-.004 2.121-7.094-.008v5.099M346.133 203.394v-15.182h2.606l-.004 15.182h-2.602M406.731 203.394l-.007-15.182h2.614l-.004 15.182h-2.602M274.514 191.68s-2.507 3.14-3.14 3.925c.518.192 1.426.598 2.113 1.325.76.79 1.15 1.695 1.15 2.673 0 1.11-.422 2.022-1.254 2.718-.86.71-2.06 1.073-3.56 1.073h-5.025v-15.123h2.692v.225c-.064.506-.072 1.247-.072 3.082v9.931c2.47.026 3.451-.288 3.837-.56.513-.366.763-.896.763-1.62-.011-1.674-1.236-2.667-3.747-3.044l-.286-.048 5.309-6.84c.622-.785 1.543-1.185 2.73-1.185h2.16l-.444.31c-1.074.732-2.256 1.917-3.226 3.159M389.706 191.68s-2.51 3.14-3.14 3.925c.521.192 1.424.598 2.119 1.325.755.79 1.147 1.695 1.147 2.673 0 1.107-.426 2.022-1.257 2.718-.864.71-2.06 1.073-3.563 1.073h-5.024v-15.123h2.694v.225c-.068.506-.072 1.247-.072 3.082v9.931c2.474.026 3.453-.288 3.835-.56.518-.366.768-.896.764-1.62-.013-1.674-1.234-2.667-3.743-3.044l-.287-.048 5.304-6.84c.626-.785 1.545-1.185 2.735-1.185h2.16l-.446.31c-1.075.732-2.255 1.917-3.226 3.159M340.598 203.394l-.004-11.122-8.75 11.122h-2.273v-15.16h1.982v11.338l8.875-11.325 2.177-.014v15.161h-2.007M411.64 203.394v-.17l-.01-1.826s3.917 0 4.228-.003v-13.176h2.615l.003 13.176 4.313-.001v1.995l-11.15.006M298.87 195.869h-3.882c.152.387 1.702 4.302 1.96 4.964.257-.663 1.77-4.577 1.922-4.964zm-.43 7.57h-2.418l-6.17-15.197h2.334l2.075 5.62h5.444c.077-.214 2.119-5.62 2.119-5.62h2.9l-6.173 15.196h-.111M246.07 188.753c-.54.407-1.038.788-2.118 1.917 0 0-4.572 5.06-5.269 5.828.18.229 5.316 6.568 5.316 6.568l.303.323h-2.592l-5.773-7.211v7.21H233.322v-15.146h2.615v7.721l6.028-6.71c.499-.672 1.4-1.011 2.652-1.011h2.163l-.516.361-.194.15" style="fill:#950022;fill-opacity:1;fill-rule:nonzero;stroke:none;stroke-width:.141112" transform="matrix(2.52611 0 0 -2.52611 -286.426 705.771)"/><path d="M253.902 189.73c-1.578 0-2.904.668-3.941 1.962-.97 1.208-1.464 2.636-1.464 4.252 0 1.67.501 3.059 1.472 4.139.97 1.06 2.272 1.601 3.885 1.601 1.573 0 2.882-.653 3.895-1.937.923-1.191 1.394-2.656 1.394-4.338 0-1.647-.474-3.01-1.411-4.067-.977-1.068-2.264-1.613-3.83-1.613zm.103 13.918c-2.299.019-4.28-.757-5.876-2.298-1.606-1.534-2.416-3.418-2.416-5.61 0-2.298.805-4.231 2.39-5.741 1.547-1.478 3.458-2.23 5.688-2.23 2.236 0 4.162.776 5.747 2.306 1.59 1.534 2.396 3.49 2.396 5.783 0 2.106-.746 3.925-2.215 5.424-1.529 1.555-3.448 2.352-5.714 2.366M326.175 203.287h-1.815l.013-9.33c0-2.781-.649-4.286-4.068-4.286h.025c-2.266 0-3.42 1.442-3.42 4.286l.01 9.33h-2.626l-.01-9.336c0-1.132.05-1.91.138-2.373.157-.861.512-1.584 1.057-2.18.99-1.077 2.402-1.629 4.2-1.629h1.274c1.796 0 3.216.552 4.208 1.637.543.588.896 1.31 1.05 2.172.091.463.135 1.237.135 2.373l-.003 9.336h-.168M402.53 195.772l-2.029.997-1.735.855c-1.277.67-1.917 1.393-1.917 2.16 0 .647.284 1.123.884 1.451.454.267 1.109.39 1.922.362 1.322-.03 2.68-.427 3.38-.978l.273-.21v2.69l-.111.036c-1.067.334-2.22.5-3.415.5-1.568 0-2.894-.305-3.94-.92-1.247-.716-1.884-1.78-1.884-3.155 0-1.4.7-2.576 2.091-3.472.014-.012.75-.373.75-.373l3.022-1.486c1.273-.66 1.915-1.443 1.915-2.321 0-.662-.344-1.191-1.04-1.612a3.741 3.741 0 0 0-2.014-.553 9.057 9.057 0 0 0-4.543 1.22l-.3.169-.04-2.475.532-.2c1.232-.456 2.612-.688 4.095-.688 1.855 0 3.444.481 4.582 1.389 1.075.869 1.617 2.027 1.617 3.429 0 1.234-.7 2.296-2.094 3.185M434.999 203.37s-3.872-5.97-4.143-6.38c-.261.416-4.053 6.399-4.053 6.399h-3.013s5.398-8.484 5.447-8.569l-.015-6.6h2.634v6.598c.06.087 5.682 8.552 5.682 8.552h-2.539M362.881 203.421s-4.055-11.098-4.348-11.912c-.296.818-4.274 11.912-4.274 11.912h-2.989l5.67-15.209 2.377.007 5.87 15.202h-2.306M472.303 203.373l-.012-11.12-8.74 11.12h-2.278v-15.157h1.978l.013 11.337 8.864-11.325 2.179-.016v15.161h-2.004M453.12 195.85h-3.883c.155.387 1.702 4.304 1.964 4.968.252-.666 1.767-4.58 1.92-4.969zm-.431 7.57h-2.418l-6.17-15.197h2.336s1.996 5.408 2.073 5.62h5.446l2.117-5.62h2.9l-6.17 15.197h-.114M517.75 203.373l-.012-11.12-8.74 11.12h-2.278v-15.157h1.982l.008 11.337 8.864-11.325 2.182-.016v15.161h-2.007M498.565 195.85h-3.88c.152.387 1.7 4.304 1.961 4.968.254-.666 1.773-4.58 1.92-4.969zm-.43 7.57h-2.417l-6.17-15.197h2.334l2.076 5.62h5.444c.078-.212 2.118-5.62 2.118-5.62h2.899l-6.171 15.197h-.113M486.313 195.755l-2.03.997-1.735.853c-1.279.673-1.914 1.392-1.914 2.161 0 .645.28 1.124.88 1.452.454.263 1.109.39 1.921.36 1.323-.03 2.68-.426 3.383-.978l.272-.208v2.688l-.113.034a11.29 11.29 0 0 1-3.414.502c-1.57 0-2.895-.305-3.94-.92-1.248-.713-1.884-1.78-1.884-3.155 0-1.402.701-2.576 2.093-3.473.012-.01.75-.37.75-.37l3.02-1.487c1.274-.66 1.916-1.444 1.916-2.32 0-.662-.343-1.19-1.04-1.61a3.73 3.73 0 0 0-2.012-.559 9.106 9.106 0 0 0-4.545 1.22l-.3.173-.04-2.475.53-.203c1.234-.455 2.611-.686 4.095-.686 1.857 0 3.448.482 4.58 1.387 1.078.87 1.622 2.028 1.622 3.43 0 1.236-.701 2.296-2.095 3.187M590.723 203.373l-.01-15.18h2.617l-.004 15.18h-2.603M615.618 195.793h-3.878c.15.392 1.702 4.316 1.956 4.967a1223.7 1223.7 0 0 0 1.922-4.967zm-.425 7.58h-2.425l-6.165-15.203h2.331l2.076 5.622h5.449l2.11-5.622h2.905l-6.168 15.203h-.113M623.596 203.366l.006-15.188h9.744l-.024 2.124-7.097-.003v13.074l-2.629-.007M596.223 203.373v-.17l-.003-1.824s3.919 0 4.226-.003v-13.175h2.617l.006 13.175 4.316-.004v1.998l-11.162.003M553.883 189.71c-1.572 0-2.903.67-3.937 1.962-.971 1.211-1.467 2.638-1.467 4.253 0 1.671.501 3.057 1.474 4.14.968 1.059 2.272 1.6 3.884 1.6 1.575 0 2.88-.651 3.894-1.94.925-1.19 1.394-2.652 1.394-4.333 0-1.647-.474-3.013-1.411-4.068-.974-1.07-2.26-1.613-3.831-1.613zm.105 13.921c-2.3.017-4.28-.76-5.877-2.298-1.606-1.536-2.414-3.42-2.414-5.61 0-2.3.804-4.233 2.389-5.747 1.548-1.475 3.457-2.225 5.687-2.225 2.236 0 4.165.779 5.747 2.307 1.593 1.532 2.398 3.487 2.398 5.781 0 2.107-.747 3.927-2.216 5.423-1.528 1.557-3.449 2.354-5.714 2.37M572.478 195.755l-2.027.997-1.738.853c-1.275.673-1.916 1.392-1.916 2.161 0 .645.284 1.124.884 1.452.452.263 1.109.39 1.919.36 1.323-.03 2.68-.426 3.385-.978l.27-.208v2.688l-.112.034c-1.065.338-2.22.502-3.415.502-1.57 0-2.897-.305-3.938-.92-1.25-.713-1.886-1.78-1.886-3.155 0-1.402.699-2.576 2.092-3.473.014-.01.749-.37.749-.37l3.023-1.487c1.272-.66 1.917-1.444 1.917-2.32 0-.662-.347-1.19-1.045-1.61a3.705 3.705 0 0 0-2.011-.559 9.092 9.092 0 0 0-4.543 1.22l-.302.173-.04-2.475.534-.203c1.232-.455 2.61-.686 4.094-.686 1.857 0 3.445.482 4.585 1.387 1.074.87 1.613 2.028 1.613 3.43 0 1.236-.699 2.296-2.092 3.187M540.532 203.358l.014-5.955h-7.8l-.01 5.955h-2.586v-15.164h2.586l.01 7.276h7.8l-.014-7.276h2.615v15.164h-2.615M586.36 202.312c-.953.692-2.09 1.046-3.636 1.046h-5.18v-15.164h2.612l-.015 13.2s1.504-.015 1.95-.015c2.059 0 3.185-1.233 3.185-2.7 0-1.541-1.164-2.426-1.984-2.669-1.032-.3-2.131-.28-3.751-.257 0 0-.459-1.97.515-1.975 3.46-.022 4.881.396 6.097 1.234 1.112.77 1.764 2.408 1.764 3.703 0 1.277-.525 2.848-1.556 3.597" style="fill:#950022;fill-opacity:1;fill-rule:nonzero;stroke:none;stroke-width:.141112" transform="matrix(2.52611 0 0 -2.52611 -286.426 705.771)"/></svg>