<svg xmlns="http://www.w3.org/2000/svg" width="433.82666mm" height="97.330856mm" viewBox="0 0 433.82666 97.330856"><path d="M0 0c0-13.736 11.159-24.908 24.889-24.908 13.725 0 24.895 11.172 24.895 24.908 0 13.72-11.17 24.887-24.895 24.887C11.159 24.887 0 13.72 0 0" style="fill:#fff;fill-opacity:1;fill-rule:nonzero;stroke:none" transform="matrix(1.95463 0 0 -1.95463 0 48.645)"/><path d="M0 0c0 13.314 10.848 24.151 24.153 24.151 13.322 0 24.159-10.837 24.159-24.151 0-13.33-10.837-24.171-24.159-24.171C10.848-24.171 0-13.33 0 0" style="fill:#00387f;fill-opacity:1;fill-rule:nonzero;stroke:none" transform="matrix(1.95463 0 0 -1.95463 1.438 48.645)"/><path d="M0 0c-9.725 0-17.605 7.877-17.605 17.603 0 9.725 7.88 17.603 17.605 17.603 9.718 0 17.605-7.878 17.605-17.603C17.605 7.877 9.718 0 0 0" style="fill:#fff;fill-opacity:1;fill-rule:nonzero;stroke:none" transform="matrix(1.95463 0 0 -1.95463 48.649 83.071)"/><path d="M0 0c0-.371.299-.675.677-.675a.674.674 0 1 1 0 1.35A.668.668 0 0 1 0 0" style="fill:#fff;fill-opacity:1;fill-rule:nonzero;stroke:none" transform="matrix(1.95463 0 0 -1.95463 8.856 59.836)"/><path d="M0 0a.695.695 0 0 0-.693-.691.686.686 0 0 0-.683.691A.687.687 0 1 0 0 0" style="fill:#fff;fill-opacity:1;fill-rule:nonzero;stroke:none" transform="matrix(1.95463 0 0 -1.95463 88.951 60.024)"/><path d="M0 0c-.246-.761-1.061-1.086-1.985-.792C-3.132-.431-3.091.269-2.977.655c.104.304.297.543.586.69.363.188.843.213 1.338.051.502-.163.837-.396.997-.695A.945.945 0 0 0 0 0m-.998 2.122c-.477.147-.926.126-1.309-.072-.412-.217-.731-.624-.906-1.187-.17-.543-.142-1.051.068-1.477.219-.421.615-.731 1.084-.883.835-.264 1.896.01 2.287 1.228C.391.249.36.762.137 1.198a1.942 1.942 0 0 1-1.135.924" style="fill:#fff;fill-opacity:1;fill-rule:nonzero;stroke:none" transform="matrix(1.95463 0 0 -1.95463 12.7 36.968)"/><path d="m0 0-.632.599.12.132s.215-.152.294-.192C.125.366.384.559.511.68c.25.269.205.584.045.741-.157.148-.35.239-.799.168l-.261-.036c-.605-.091-.983-.005-1.277.264-.373.366-.338.939.109 1.411.373.391.583.422.583.422l.544-.523-.132-.137s-.132.162-.359.188a.567.567 0 0 1-.469-.188c-.207-.224-.218-.482-.038-.665.129-.117.28-.162.774-.086l.152.025C.082 2.365.45 2.299.77 1.99a.94.94 0 0 0 .284-.888C1.013.863.889.645.681.431.493.233.194.005 0 0" style="fill:#fff;fill-opacity:1;fill-rule:nonzero;stroke:none" transform="matrix(1.95463 0 0 -1.95463 20.095 24.19)"/><path d="m0 0 .714.493L.818.34S.628.158.577.102c-.246-.3-.11-.599-.02-.741.217-.305.528-.336.718-.204.182.127.304.295.328.747l.014.259c.041.614.206.969.529 1.192.435.295.992.138 1.354-.39.308-.452.295-.66.295-.66l-.627-.427-.109.158s.191.091.259.315c.036.111.063.274-.087.497-.172.249-.418.32-.627.177C2.45.914 2.371.777 2.351.29L2.34.122c-.04-.701-.182-1.04-.555-1.294a.964.964 0 0 0-.927-.092c-.22.092-.411.249-.573.503C.127-.538-.04-.198 0 0" style="fill:#fff;fill-opacity:1;fill-rule:nonzero;stroke:none" transform="matrix(1.95463 0 0 -1.95463 78.442 25.767)"/><path d="M0 0c.182.138.236.077.378-.116l.129.096-.566.767-.132-.102c.145-.198.191-.259 0-.396l-.533-.406-.706.939s.42.32.533.396c.241.188.361.061.501-.127l.132.096-.432.574-1.807-1.35.1-.132c.118.092.342.289.542.025C-1.665 0-.355-1.75-.355-1.75c.225-.306.113-.351-.095-.514l.107-.136 1.84 1.375-.469.624-.127-.101c.2-.274.16-.447-.024-.589a68.118 68.118 0 0 0-.583-.431l-.83 1.116h-.005z" style="fill:#fff;fill-opacity:1;fill-rule:nonzero;stroke:none" transform="matrix(1.95463 0 0 -1.95463 25.276 15.29)"/><path d="M0 0c.19-.137.154-.198.018-.396l.136-.102.524.792L.546.38C.409.187.366.127.17.248l-.561.381.655.975s.434-.294.546-.366c.258-.172.177-.324.045-.523L.987.629l.402.594-1.876 1.254-.094-.138c.132-.081.391-.233.208-.496A414.624 414.624 0 0 0-1.769-.254c-.208-.315-.302-.224-.52-.076l-.094-.148 1.914-1.278.428.644-.134.101c-.188-.289-.375-.32-.566-.187-.124.086-.601.401-.601.401L-.558.37v.005z" style="fill:#fff;fill-opacity:1;fill-rule:nonzero;stroke:none" transform="matrix(1.95463 0 0 -1.95463 72.217 15.656)"/><path d="M0 0c-.106.193-.005.259.236.386L.163.528l-1.274-.65.079-.147s.317.228.454-.03C-.515-.432.66-2.715.66-2.715c.102-.198 0-.254-.241-.386l.071-.147 1.376.71-.074.143c-.209-.102-.431-.254-.556-.022C1.117-2.177 0 0 0 0" style="fill:#fff;fill-opacity:1;fill-rule:nonzero;stroke:none" transform="matrix(1.95463 0 0 -1.95463 29.074 9.962)"/><path d="m0 0-.271 1.396c-.046.223.058.248.327.304l-.028.163-1.221-.249.028-.163s.378.137.434-.147c.01-.055.3-1.477.3-1.477.091-.472.155-.853-.036-1.132-.162-.248-.442-.33-.54-.35a.845.845 0 0 0-.576.066c-.204.106-.412.304-.553 1.01L-2.441.958c-.046.219.061.25.335.305l-.036.168-1.401-.289.036-.158s.373.138.428-.152c.009-.061.313-1.568.313-1.568.117-.574.325-.93.65-1.122.41-.248.883-.158 1.075-.117.265.057.605.158.881.523C.163-1.051.104-.518 0 0" style="fill:#fff;fill-opacity:1;fill-rule:nonzero;stroke:none" transform="matrix(1.95463 0 0 -1.95463 43.48 8.304)"/><path d="M0 0c.051.218.16.203.427.142l.041.157-1.397.325-.035-.157s.396-.036.328-.32c-.029-.137-.609-2.649-.609-2.649-.053-.214-.166-.198-.44-.138l-.033-.152 1.5-.345.046.158c-.229.045-.498.075-.437.334L0 0" style="fill:#fff;fill-opacity:1;fill-rule:nonzero;stroke:none" transform="matrix(1.95463 0 0 -1.95463 59.383 6.617)"/><path d="M0 0c.208.102.254.005.381-.243l.147.071-.637 1.289-.142-.076S-.028.716-.287.584A424.465 424.465 0 0 1-2.721-.614c-.206-.097-.264.005-.383.259l-.145-.076.673-1.385.15.07c-.11.214-.247.427-.006.548A846.51 846.51 0 0 0 0 0" style="fill:#fff;fill-opacity:1;fill-rule:nonzero;stroke:none" transform="matrix(1.95463 0 0 -1.95463 87.918 30.281)"/><path d="m0 0-.71-.101.045-.183c.244.04.415.046.5-.249.013-.05.051-.167.196-.664l-2.683-.787c-.221-.066-.262.046-.337.31l-.155-.052.436-1.476.155.045c-.063.229-.173.472.084.544.234.071 2.337.69 2.685.797.147-.498.18-.61.198-.665.089-.295-.063-.372-.282-.478l.056-.177.657.299z" style="fill:#fff;fill-opacity:1;fill-rule:nonzero;stroke:none" transform="matrix(1.95463 0 0 -1.95463 90.194 33.516)"/><path d="M0 0c-.287-.289-.527-.304-.642-.289-.089.015-.137.046-.264.167l-.228.229 1.066 1.076.15-.152C.259.853.437.452 0 0m.813.427c-.059.304-.272.538-.468.74l-.964.95L-.731 2s.32-.233.117-.442A624.022 624.022 0 0 0-2.52-.375c-.165-.153-.246-.077-.441.121l-.12-.126 1.097-1.082.113.108c-.164.171-.372.334-.187.527l.724.736.292-.3-.128-.781c-.068-.452-.091-.716-.027-.934.04-.133.118-.239.296-.416l.328-.325.106.106-.079.092c-.035.061-.142.212-.137.558.008.34.056.761.11 1.295l.027.218c.534-.041.874.05 1.14.314a.81.81 0 0 1 .219.691" style="fill:#fff;fill-opacity:1;fill-rule:nonzero;stroke:none" transform="matrix(1.95463 0 0 -1.95463 79.023 19.566)"/><path d="M0 0a.972.972 0 0 0-.434.097c-.18.101-1.17.822-1.343.989-.111.102-.157.152-.195.244a.528.528 0 0 0-.035.188c.007.041.017.127.017.127l-.162.015-.107-1.147.165-.02s.013.086.013.121c.005.031.04.061.074.056a.659.659 0 0 0 .213-.086C-1.721.553-.68-.162-.68-.162s-1.234-.568-1.34-.61c-.034-.005-.107-.04-.143-.035-.022 0-.035.01-.042.03l-.003.026.003.102-.158.03-.114-1.305.155-.01s.005.173.081.274c.056.087.182.183.353.274.246.142 1.286.65 1.358.67a.828.828 0 0 0 .464.056s.464-.046.759-.07c.297-.021.284-.188.264-.402l.157-.015.132 1.528-.142.01c-.023-.254-.023-.493-.36-.467C.403-.04 0 0 0 0" style="fill:#fff;fill-opacity:1;fill-rule:nonzero;stroke:none" transform="matrix(1.95463 0 0 -1.95463 9.187 44.22)"/><path d="M0 0c.142.01.279.026.436-.025.193-.056 1.313-.579 1.507-.706a.907.907 0 0 0 .242-.213.43.43 0 0 0 .061-.182c.007-.041.007-.123.007-.123l.168.026-.109 1.142-.168-.02s.008-.087.008-.112a.065.065 0 0 0-.063-.071.508.508 0 0 0-.226.035C1.794-.223.629.28.629.28s1.109.791 1.216.852a.32.32 0 0 0 .127.056c.01.004.032-.005.043-.021l.005-.024c.01-.026.015-.112.015-.112l.162.035-.131 1.28-.158-.015s.023-.173-.03-.295c-.033-.087-.14-.208-.284-.325C1.376 1.528.444.823.383.802A.87.87 0 0 0-.061.65S-.528.604-.828.579c-.286-.035-.309.127-.332.35l-.155-.015.155-1.523.144.005c-.03.259-.071.498.265.528C-.414-.045 0 0 0 0" style="fill:#fff;fill-opacity:1;fill-rule:nonzero;stroke:none" transform="matrix(1.95463 0 0 -1.95463 88.191 45.62)"/><path d="m0 0-.129-.198-3.366-.757 1.644-1.015c.354-.213.471.056.584.254l.142-.091-.677-1.102-.142.087c.107.173.231.34-.091.543-.335.208-2.536 1.563-2.536 1.563l.114.188c.58.127 3.322.731 3.409.747 0 0-1.401.862-1.705 1.055-.298.187-.437-.061-.529-.213l-.141.082.629 1.019.145-.086c-.1-.158-.214-.305.091-.493L0 0" style="fill:#fff;fill-opacity:1;fill-rule:nonzero;stroke:none" transform="matrix(1.95463 0 0 -1.95463 18.374 26.66)"/><path d="m0 0-.23.015-2.262 2.61L-2.608.69c-.029-.406.269-.38.494-.401l-.008-.162-1.292.076.014.173c.2-.016.408-.046.428.345.026.386.18 2.964.18 2.964l.216-.015c.386-.447 2.214-2.589 2.275-2.65 0 0 .101 1.645.121 2.001.02.354-.259.354-.437.37l.011.152 1.189-.066-.006-.167C.389 3.319.203 3.351.186 3 .161 2.64 0 0 0 0" style="fill:#fff;fill-opacity:1;fill-rule:nonzero;stroke:none" transform="matrix(1.95463 0 0 -1.95463 53.02 11.619)"/><path d="m0 0 .045.163-1.051.462-.06-.158.116-.056c.044-.01.072-.05.067-.086C-.898.264-.955.198-1.016.127l-.971-.98s-.551-.553-.635-.629c.005.096.074 1.345.102 1.893l.018.483c.01.025.005.091.035.127.01.009.056.029.107.004l.127-.05.07.151-1.218.529-.071-.148s.17-.07.234-.161c.046-.067.068-.214.061-.371l-.049-3.264.135-.056 1.852 1.7.663.605s.219.192.444.091z" style="fill:#fff;fill-opacity:1;fill-rule:nonzero;stroke:none" transform="matrix(1.95463 0 0 -1.95463 69.345 9.912)"/><path d="M0 0v-1.066h-.285V0h-.725v-.088c.07 0 .136-.125.136-.258V-2.65h-1.497v2.072h.996v.486h-1.762v-.092c.071 0 .144-.121.144-.257v-2.707h2.119v-.75c.041-.016.549-.016.589-.016v2.35H0v-2.35h.624V0Z" style="fill:#fff;fill-opacity:1;fill-rule:nonzero;stroke:none" transform="matrix(1.95463 0 0 -1.95463 50.882 85.759)"/><path d="M0 0c-.51.416-2.386 1.975-2.413 2h-.003S-4.355-.336-4.38-.377c.025-.025.347-.283.375-.305.024.026 1.561 1.889 1.561 1.889L-.406-.488c-.17-.198-.307-.369-.307-.369S-1.743 0-1.771.02c-.026-.032-.363-.426-.381-.458l1.061-.882-.208-.244s-1.031.853-1.061.882a37.298 37.298 0 0 1-.446-.537.35.35 0 0 1 .066-.056c.04.056.181.021.286-.051l.797-.664-.445-.539c.027-.03.346-.289.372-.309C-1.703-2.813.589-.047.616-.021.582.006.269.264.239.295A7.244 7.244 0 0 0 0 0" style="fill:#fff;fill-opacity:1;fill-rule:nonzero;stroke:none" transform="matrix(1.95463 0 0 -1.95463 83.969 74.21)"/><path d="M0 0c-.022-.035-1.622-3.518-1.642-3.553.041-.019.536-.248.574-.258.017.03 1.613 3.518 1.642 3.553H.569S.033-.02 0 0" style="fill:#fff;fill-opacity:1;fill-rule:nonzero;stroke:none" transform="matrix(1.95463 0 0 -1.95463 34.169 82.884)"/><path d="M0 0a.508.508 0 0 0-.036-.082c.069-.033.072-.172.024-.293l-.305-.664s-.558.258-.596.273c-.018-.021-.188-.412-.208-.443.04-.014.601-.273.601-.273s-.967-2.102-.99-2.141c.038-.016.474-.219.516-.234C-.981-3.807.614-.334.634-.301v.006S.033-.025 0 0" style="fill:#fff;fill-opacity:1;fill-rule:nonzero;stroke:none" transform="matrix(1.95463 0 0 -1.95463 32.467 82.09)"/><path d="m0 0-.018.029.013.022c.441.33.753.736.992 1.232-.041.022-.797.36-.828.387-.005-.031-.028-.072-.033-.082.005-.006.163-.127.028-.42C.142 1.152-.295.188-1.625-.25c.016-.039.137-.344.145-.371h.005s.446.057 1.043.387l.018.021.013-.025c.09-.184.223-.463.35-1.184.053.031.492.285.515.295A4.967 4.967 0 0 1 0 0" style="fill:#fff;fill-opacity:1;fill-rule:nonzero;stroke:none" transform="matrix(1.95463 0 0 -1.95463 29.269 84.232)"/><path d="M0 0c.041.004 2.366 1.131 2.366 1.131l.362-.772c.036.02.53.26.569.284-.018.025-.556 1.162-.576 1.193C2.678 1.826-.173.445-.21.436-.193.395-.015.023 0 0" style="fill:#fff;fill-opacity:1;fill-rule:nonzero;stroke:none" transform="matrix(1.95463 0 0 -1.95463 64.484 88.844)"/><path d="M0 0c-.04-.014-.665-.309-.695-.328A.46.46 0 0 0-.66-.41c.066.035.183-.051.239-.162 0 0 .804-1.686.827-1.727.036.026.528.26.563.285l-.304.629.551.27c-.012.039-.178.369-.185.398a34.746 34.746 0 0 1-.562-.267S.013-.035 0 0" style="fill:#fff;fill-opacity:1;fill-rule:nonzero;stroke:none" transform="matrix(1.95463 0 0 -1.95463 67.619 80.712)"/><path d="M0 0c-.264-.137-.597-.01-.733.264-.137.295-.025.625.251.75.267.132.602.007.739-.274C.389.457.282.121 0 0m-1.241.02c.234-.493.873-.67 1.431-.401C.741-.123.997.492.769.98a.99.99 0 0 1-.608.502c.242.102.405.194.421.198-.02.029-.193.402-.213.437-.036-.015-.793-.381-.793-.381s-.126.262-.137.299c0 0-.672-.314-.695-.33.005-.025.02-.051.033-.076v.006c.058.019.157-.051.216-.147l.017-.025s-.809-.387-.845-.402c.016-.04.193-.413.206-.442 0 0 .168.082.388.182a.927.927 0 0 1 0-.781" style="fill:#fff;fill-opacity:1;fill-rule:nonzero;stroke:none" transform="matrix(1.95463 0 0 -1.95463 65.014 86.019)"/><path d="M0 0s-.483.555-.505.584C-.528.564-.557.539-.572.523c.044-.05 0-.189-.096-.275 0 0-.675-.582-.706-.613.026-.026 1.942-2.223 1.97-2.248.028.025.338.289.37.314L-.587-.512S-.036-.025 0 0" style="fill:#fff;fill-opacity:1;fill-rule:nonzero;stroke:none" transform="matrix(1.95463 0 0 -1.95463 15.563 74.749)"/><path d="M0 0c.264.227.637.223.853-.025.212-.239.172-.625-.094-.854-.259-.225-.645-.225-.852.025C-.309-.615-.259-.225 0 0m1.708-1.641-.251-.222s-.218.248-.401.451c.033.031.063.057.099.086a.864.864 0 0 1 .142.164c.178-.215.411-.479.411-.479m-1.152.073.523-.616S.351-2.832.32-2.852c.031-.031.396-.449.413-.472a832.72 832.72 0 0 1 2.13 1.861c-.029.025-.478.549-.51.584-.013-.019-.051-.051-.064-.064.051-.057 0-.19-.099-.276l-.109-.097s-.472.539-.579.666c.028.314-.073.65-.304.923C.764.756.056.838-.391.447-.839.061-.863-.666-.432-1.146c.265-.317.633-.459.988-.422" style="fill:#fff;fill-opacity:1;fill-rule:nonzero;stroke:none" transform="matrix(1.95463 0 0 -1.95463 16.797 71.94)"/><path d="M0 0a2.59 2.59 0 0 1-2.588-2.584A2.592 2.592 0 0 1 0-5.173a2.584 2.584 0 0 1 2.583 2.589A2.582 2.582 0 0 1 0 0" style="fill:#00387f;fill-opacity:1;fill-rule:nonzero;stroke:none" transform="matrix(1.95463 0 0 -1.95463 48.649 32.136)"/><path d="M0 0c1.619-1.406 3.665-2.75 6.248-3.943C8.836-2.75 10.88-1.406 12.501.006L6.248 6.269Z" style="fill:#00387f;fill-opacity:1;fill-rule:nonzero;stroke:none" transform="matrix(1.95463 0 0 -1.95463 36.436 73.489)"/><path d="M0 0a5.042 5.042 0 0 0-5.055 5.045A5.043 5.043 0 0 0 0 10.091c2.799 0 5.066-2.254 5.066-5.046C5.066 2.254 2.799 0 0 0m12.73 1.386v8.639S5.366 9.787 0 13.914c-5.36-4.127-12.72-3.889-12.72-3.889V1.386s-.053-1.853.269-3.883A68.316 68.316 0 0 0 0-1.365c4.269 0 8.426-.385 12.451-1.132.325 2.03.279 3.883.279 3.883" style="fill:#00387f;fill-opacity:1;fill-rule:nonzero;stroke:none" transform="matrix(1.95463 0 0 -1.95463 48.649 47.048)"/><path d="M0 0c.055-.264.118-.539.187-.802.599-2.279 1.665-4.908 3.846-7.457L12.318.05l8.289-8.309c2.178 2.549 3.247 5.178 3.85 7.457.068.263.127.538.183.802A68.237 68.237 0 0 1 0 0" style="fill:#00387f;fill-opacity:1;fill-rule:nonzero;stroke:none" transform="matrix(1.95463 0 0 -1.95463 24.571 53.338)"/><path d="M0 0h1.192c.038 0 .071.035.071.081v2.437a.07.07 0 0 1-.071.07H.231a.294.294 0 0 1-.302-.299V.081C-.071.035-.038 0 0 0" style="fill:#fff;fill-opacity:1;fill-rule:nonzero;stroke:none" transform="matrix(1.95463 0 0 -1.95463 31.764 41.144)"/><path d="M0 0h1.19a.08.08 0 0 1 .077.081v2.208a.297.297 0 0 1-.305.299H0a.068.068 0 0 1-.071-.07V.081C-.071.035-.042 0 0 0" style="fill:#fff;fill-opacity:1;fill-rule:nonzero;stroke:none" transform="matrix(1.95463 0 0 -1.95463 28.543 41.144)"/><path d="M0 0h-.254v-2.432h-1.503l-.005-.025a.289.289 0 0 0-.286-.259.296.296 0 0 0-.29.259v.025H-3.84V0h-.261c-.039 0-.071-.041-.071-.081v-2.568a.07.07 0 0 1 .071-.072h1.513a.606.606 0 0 1 .54-.324.62.62 0 0 1 .543.324H0c.035 0 .076.031.076.072v2.568C.076-.041.035 0 0 0" style="fill:#fff;fill-opacity:1;fill-rule:nonzero;stroke:none" transform="matrix(1.95463 0 0 -1.95463 35.325 36.898)"/><path d="M0 0h-.99c-.047 0-.091-.046-.08-.091l.319-2.056a.173.173 0 0 1 .172-.152h.168c.092 0 .155.07.168.152L.082-.091C.084-.046.051 0 0 0" style="fill:#fff;fill-opacity:1;fill-rule:nonzero;stroke:none" transform="matrix(1.95463 0 0 -1.95463 66.706 40.609)"/><path d="M0 0c.259.218.84.863.777 1.228-.064.396-1.165.96-1.218 1.385-.041.198.035.467.137.671.015.04-.026.045-.067.02-.022-.02-.918-.691-.923-1.153 0-.177.132-.385.35-.568.178-.146.411-.284.594-.467A.67.67 0 0 0-.147.832C-.061.583-.309.182-.467 0h-.355c.142.177.291.401.36.634.142.549-1.238.691-1.033 1.522.011.032-.018.041-.058.016-.01-.01-.545-.527-.545-.888-.008-.31.631-.599.926-1.02a.28.28 0 0 0 0-.264h-.564s-.137.015-.086-.117l.155-.472s.027-.061.124-.061H.271c.095 0 .12.061.12.061l.163.477C.589.01.462 0 .462 0Z" style="fill:#fff;fill-opacity:1;fill-rule:nonzero;stroke:none" transform="matrix(1.95463 0 0 -1.95463 66.974 38.852)"/><path d="M0 0c-.086-.063-.559-.365-.574-.377-.028-.01-.04-.041-.04-.064 0-.032.023-.063.051-.063l.045.016.076.029a.99.99 0 0 0 .193.082l.013-.051v-.724l-.013-.561c-.005-.076-.015-.086-.068-.096l-.188-.013c-.033 0-.058-.033-.058-.073 0 0 .013-.056.076-.056l.307.012H.046l.309-.012c.064 0 .072.035.072.035 0 .061-.026.094-.054.094l-.155.013c-.051.01-.071.02-.071.096l-.015.561v.457l.015.619v.029c0 .08-.045.086-.045.086z" style="fill:#fff;fill-opacity:1;fill-rule:nonzero;stroke:none" transform="matrix(1.95463 0 0 -1.95463 43.827 70.767)"/><path d="M0 0c0 .117.065.254.263.254.116 0 .239-.076.239-.264a.346.346 0 0 0-.211-.336C.075-.223 0-.139 0 0m-.335-.055c0-.234.172-.373.324-.457-.264-.123-.426-.322-.426-.554 0-.33.264-.528.665-.528.461 0 .703.289.703.584 0 .313-.242.461-.419.563.116.054.335.193.335.461C.847.27.628.426.291.426c-.459 0-.626-.289-.626-.481m.258-.996a.5.5 0 0 0 .256.436c.205-.121.388-.233.388-.451 0-.198-.124-.346-.319-.346-.183 0-.325.152-.325.361" style="fill:#fff;fill-opacity:1;fill-rule:nonzero;stroke:none" transform="matrix(1.95463 0 0 -1.95463 46.12 71.523)"/><path d="M0 0c0 .117.074.254.269.254.117 0 .233-.076.233-.264a.348.348 0 0 0-.203-.336C.082-.223 0-.139 0 0m-.33-.055c0-.234.167-.373.32-.457-.257-.123-.422-.322-.422-.554 0-.33.265-.528.665-.528.457 0 .701.289.701.584 0 .313-.246.461-.421.563.121.054.324.193.324.461C.837.27.629.426.296.426-.167.426-.33.137-.33-.055m.254-.996c0 .238.158.375.259.436.21-.121.385-.233.385-.451 0-.198-.127-.346-.319-.346-.175 0-.325.152-.325.361" style="fill:#fff;fill-opacity:1;fill-rule:nonzero;stroke:none" transform="matrix(1.95463 0 0 -1.95463 49.493 71.523)"/><path d="m0 0-.162-.008h-.61c-.068 0-.073-.041-.073-.041l-.073-.678c0-.029.004-.074.08-.089.166-.016.602-.166.602-.557 0-.316-.201-.424-.378-.424-.208 0-.304.098-.304.295 0 .076-.031.082-.057.082-.047 0-.061-.055-.066-.066l-.01-.289v-.036c0-.056.005-.101.066-.132h.007a.83.83 0 0 1 .245-.045c.588 0 .86.381.86.74 0 .416-.416.65-.823.715l.024.25h.428c.181 0 .181-.051.181-.102 0-.064.048-.072.058-.072.03 0 .056.031.056.062l.035.325c0 .021 0 .082-.053.082z" style="fill:#fff;fill-opacity:1;fill-rule:nonzero;stroke:none" transform="matrix(1.95463 0 0 -1.95463 54.037 70.752)"/><path d="M0 0a20.914 20.914 0 0 1 2.038-2.051l6.248 6.269 6.253-6.263A19.22 19.22 0 0 1 16.575 0L8.286 8.309Z" style="fill:#fff;fill-opacity:1;fill-rule:nonzero;stroke:none" transform="matrix(1.95463 0 0 -1.95463 32.454 69.48)"/><path d="M0 0c-4.258 0-8.417-.386-12.451-1.132.043-.234.084-.477.133-.721a68.254 68.254 0 0 0 24.64 0c.046.244.094.487.129.721A68.242 68.242 0 0 1 0 0" style="fill:#fff;fill-opacity:1;fill-rule:nonzero;stroke:none" transform="matrix(1.95463 0 0 -1.95463 48.649 49.716)"/><path d="M0 0a2.592 2.592 0 0 0-2.588 2.589A2.59 2.59 0 0 0 0 5.173a2.582 2.582 0 0 0 2.583-2.584A2.584 2.584 0 0 0 0 0m5.066 2.589c0 2.792-2.267 5.045-5.066 5.045a5.042 5.042 0 0 1-5.055-5.045A5.043 5.043 0 0 1 0-2.457c2.799 0 5.066 2.254 5.066 5.046" style="fill:#fff;fill-opacity:1;fill-rule:nonzero;stroke:none" transform="matrix(1.95463 0 0 -1.95463 48.649 42.247)"/><path d="M0 0c-2.348 0-3.986 2.006-3.986 4.873 0 3.527 1.982 4.061 3.172 4.061 2.23 0 3.789-1.944 3.789-4.737C2.975.418.891 0 0 0m-.428 9.822c-3.885 0-5.658-2.781-5.658-5.365 0-2.582 1.734-5.359 5.522-5.359 3.332 0 5.654 2.298 5.654 5.597 0 3.168-2.115 5.127-5.518 5.127" style="fill:#777576;fill-opacity:1;fill-rule:nonzero;stroke:none" transform="matrix(1.95463 0 0 -1.95463 325.405 89.344)"/><path d="m0 0-.58-.004s.066.654-.316 1.152c-.204.258-.573.614-1.366.614-.892 0-1.47-.492-1.47-1.26 0-.516.212-.947 1.369-1.826l.377-.28C-.328-2.893.256-3.813.256-5.115c0-.586-.172-1.676-1.313-2.432-.603-.377-1.318-.558-2.193-.558-.803 0-1.904.15-2.324.562v2.58h.531s.113-.767.186-1c.328-1.098 1.267-1.254 1.791-1.254 1.086 0 1.679.721 1.679 1.401 0 .628-.222 1.228-1.265 2.035l-.616.486C-4.684-2.191-5.291-1.213-5.291-.029c0 1.55 1.301 2.648 3.209 2.648 1.596 0 2.082-.39 2.082-.39Z" style="fill:#777576;fill-opacity:1;fill-rule:nonzero;stroke:none" transform="matrix(1.95463 0 0 -1.95463 349.754 75.264)"/><path d="M0 0c-.525 0-.986.064-.986.674v8.031c0 .664.314.705 1.134.705v.461h-4.224V9.41h.242c.342 0 .922-.101.922-.705V.674C-2.912.01-3.262 0-4.076 0v-.479H.479V0Z" style="fill:#777576;fill-opacity:1;fill-rule:nonzero;stroke:none" transform="matrix(1.95463 0 0 -1.95463 378.936 89.817)"/><path d="M0 0c-.533 0-.998.07-.998.684v7.58c0 .664.314.705 1.139.705v.461h-4.227v-.461h.24c.342 0 .924-.102.924-.705V.232c0-.664-.346-.673-1.164-.673V-.92h7.117v2.285h-.486C2.545.35 2.148 0 1.453 0Z" style="fill:#777576;fill-opacity:1;fill-rule:nonzero;stroke:none" transform="matrix(1.95463 0 0 -1.95463 426.141 88.954)"/><path d="M0 0c-.525 0-.994.064-.994.674v8.031c0 .664.318.705 1.14.705v.461h-4.22V9.41h.236c.34 0 .918-.101.918-.705V5.592h-5.031v3.113c0 .664.318.705 1.138.705v.461h-4.222V9.41h.242c.338 0 .92-.101.92-.705V.674c0-.664-.344-.674-1.162-.674v-.479h4.553V0h-.473c-.525 0-.996.064-.996.674v3.949h5.031V.674C-2.92.01-3.256 0-4.074 0v-.479H.479V0Z" style="fill:#777576;fill-opacity:1;fill-rule:nonzero;stroke:none" transform="matrix(1.95463 0 0 -1.95463 310.394 89.817)"/><path d="M0 0v-.479h4.568V0H4.18c-.563 0-1.092.045-1.092.689v8.254h2.029c.928 0 1.033-.504 1.133-1.199h.549L6.5 9.871h-8.73l-.301-2.127h.551c.091.695.201 1.199 1.121 1.199h2.025V.67C1.166.08.902 0 .271 0Z" style="fill:#777576;fill-opacity:1;fill-rule:nonzero;stroke:none" transform="matrix(1.95463 0 0 -1.95463 386.308 89.817)"/><path d="M0 0v-.461h.248c.336 0 .914-.102.914-.705v-8.031c0-.664-.336-.674-1.162-.674v-.479h4.564v.479H4.08c-.525 0-.996.064-.996.674v8.396h.471c.484 0 .922-.174 1.279-.492.51-.463.768-1.107.768-1.961 0-1.461-1.079-2.131-2.079-2.131h-.101v-.476h.101c2.395 0 3.881 1.257 3.881 3.302C7.404-.928 6.195 0 4.102 0Z" style="fill:#777576;fill-opacity:1;fill-rule:nonzero;stroke:none" transform="matrix(1.95463 0 0 -1.95463 353.74 70.523)"/><path d="M0 0h-2.303l1.172 3.131zm-6.293-3.893v-.478h3.613v.478c-.884 0-1.011.194-.791.801l.817 2.168H.35l.857-2.238c.158-.412.367-.731-.107-.731v-.478h3.798v.478c-.615 0-1.259-.046-1.658.811 0 0-3.191 7.867-3.654 9.035h-.75l-3.674-9.142c-.291-.643-.683-.704-1.098-.704z" style="fill:#777576;fill-opacity:1;fill-rule:nonzero;stroke:none" transform="matrix(1.95463 0 0 -1.95463 408.652 82.209)"/><path d="m0 0-.571-.004S-.52.65-.899 1.148c-.203.258-.571.614-1.358.614-.9 0-1.476-.492-1.476-1.26 0-.516.215-.947 1.378-1.826l.37-.28C-.327-2.893.253-3.813.253-5.115c0-.586-.172-1.676-1.311-2.432-.594-.377-1.315-.558-2.193-.558-.8 0-1.914.15-2.317.562v2.58h.525s.12-.767.19-1c.323-1.098 1.261-1.254 1.792-1.254 1.084 0 1.667.721 1.667 1.401 0 .628-.208 1.228-1.266 2.035l-.609.486C-4.696-2.191-5.297-1.213-5.297-.029c0 1.55 1.297 2.648 3.213 2.648 1.597 0 2.084-.39 2.084-.39Z" style="fill:#777576;fill-opacity:1;fill-rule:nonzero;stroke:none" transform="matrix(1.95463 0 0 -1.95463 124.91 75.264)"/><path d="M0 0c.919 0 .953-.518.953-1.213h.473V.908h-6.658V.447h.304c.458 0 1.033-.152 1.033-.914v-7.447c0-.988-.287-1.055-.912-1.049h-.223v-.482h6.8v2.289h-.498c0-1.016-.391-1.365-1.094-1.365h-2.134v4.13H.039c.68 0 .697-.228.697-.939h.478v2.803H.736c0-.721-.017-.944-.697-.944h-1.995V0Z" style="fill:#777576;fill-opacity:1;fill-rule:nonzero;stroke:none" transform="matrix(1.95463 0 0 -1.95463 138.848 72.298)"/><path d="M0 0c.914 0 .952-.518.952-1.213h.475V.908h-6.66V.447h.312c.449 0 1.025-.152 1.025-.914v-7.447c0-.988-.292-1.055-.91-1.049h-.229v-.482h6.801v2.289h-.491c0-1.016-.401-1.365-1.098-1.365h-2.134v4.13h1.99c.682 0 .697-.228.697-.939h.485v2.803H.73c0-.721-.015-.944-.697-.944h-1.99V0Z" style="fill:#777576;fill-opacity:1;fill-rule:nonzero;stroke:none" transform="matrix(1.95463 0 0 -1.95463 174.596 72.298)"/><path d="M0 0c.918 0 .955-.518.955-1.213h.479V.908h-6.666V.447h.302c.459 0 1.034-.152 1.034-.914v-7.447c0-.988-.286-1.055-.907-1.049h-.22v-.482h6.798v2.289h-.484c0-1.016-.418-1.365-1.109-1.365h-2.133v4.13h1.99c.686 0 .695-.228.695-.939h.483v2.803H.734c0-.721-.009-.944-.695-.944h-1.99V0Z" style="fill:#777576;fill-opacity:1;fill-rule:nonzero;stroke:none" transform="matrix(1.95463 0 0 -1.95463 274.138 72.298)"/><path d="M0 0v-.479h-3.823V0c.602 0 1.22-.061 1.22 1.086v8.785h.64c1.209-1.242 6.985-7.213 7.179-7.4v5.914c0 1.051-.834 1.025-1.356 1.025v.461h3.533V9.41c-.564 0-1.105.026-1.105-1.025V-.479h-.705l-7.122 7.276.008-5.711C-1.531.105-.961 0-.372 0Z" style="fill:#777576;fill-opacity:1;fill-rule:nonzero;stroke:none" transform="matrix(1.95463 0 0 -1.95463 226.488 89.817)"/><path d="M0 0c-.221-.156-.375-.207-.893-.207h-.957v4.471h.645c.723 0 1.946-.471 1.946-2.33C.741.736.279.215 0 0m5.093-4.75c-.202.051-.735.146-1.444.887-.68.717-1.464 1.707-2.446 2.945 0 0-.304.4-.398.508 1.202 1 1.733 1.908 1.733 3.015a2.406 2.406 0 0 1-.954 1.909c-.774.517-1.71.582-2.535.597h-3.983V4.65h.226c.336 0 .931-.105.931-.726V-4.09c0-.594-.271-.67-.913-.67h-.254v-.478h4.563v.478h-.443c-.534 0-1.026.065-1.026.69v3.019h1.215L.73-2.953c.79-1.092 1.297-1.701 1.879-2.004.368-.209.728-.281 1.477-.281h1.38v.453l-.373.035" style="fill:#777576;fill-opacity:1;fill-rule:nonzero;stroke:none" transform="matrix(1.95463 0 0 -1.95463 191.056 80.514)"/><path d="M0 0v.461h-3.454V0h.399c.129 0 .251-.086.266-.209.033-.174-.034-.43-.112-.684 0 0-2.32-5.935-2.44-6.234-.109.254-2.466 6.553-2.466 6.553-.024.066-.116.26-.073.381A.374.374 0 0 0-7.589 0h.393v.461h-3.915V0s.538 0 .812-.189c.228-.131.444-.487.613-.932l3.706-8.883h.437l4.091 9.195S-1.088 0-.381 0z" style="fill:#777576;fill-opacity:1;fill-rule:nonzero;stroke:none" transform="matrix(1.95463 0 0 -1.95463 164.755 71.424)"/><path d="M0 0h-2.304l1.172 3.131zm-6.292-3.893 1.135-.478h2.477v.478c-.888 0-1.013.194-.792.801l.817 2.168H.348l.862-2.238c.144-.412.361-.731-.114-.731v-.478h3.802v.478c-.609 0-1.248-.046-1.654.811 0 0-3.202 7.867-3.661 9.035h-.748l-3.67-9.142c-.294-.643-.683-.704-1.106-.704z" style="fill:#777576;fill-opacity:1;fill-rule:nonzero;stroke:none" transform="matrix(1.95463 0 0 -1.95463 209.937 82.209)"/><path d="M0 0c-1.83 0-3.326-.422-4.404-1.396-1.076-.985-1.622-2.258-1.622-3.801 0-1.715.59-3.092 1.734-4.092 1.145-.994 2.751-1.467 4.626-1.467 2.049.026 3.248.563 3.248.563v2.224h-.428S2.994-9.691.32-9.691c-1.074.037-1.939.332-2.816 1.164-.953.904-1.439 2.009-1.439 3.476 0 1.559.385 2.766 1.234 3.461.654.555 1.447.752 2.515.752C3.176-.838 3.08-2.75 3.08-2.75h.449v2.207S1.82 0 0 0" style="fill:#777576;fill-opacity:1;fill-rule:nonzero;stroke:none" transform="matrix(1.95463 0 0 -1.95463 254.466 70.214)"/><path d="M279.62 341.874h3.992v24.841h-3.991z" style="fill:#777576;fill-opacity:1;fill-rule:nonzero;stroke:none" transform="matrix(1.95463 0 0 -1.95463 -394.516 726.397)"/><path d="M0 0c-.409.37-.842.726-1.317 1.051-.467.32-.95.634-1.465.914.757 1.309 1.369 2.786 1.853 4.441.495 1.634.739 3.512.739 5.634h-5.764v-.563c.242-.021.517-.208.825-.554.307-.345.449-.949.411-1.807a11.977 11.977 0 0 0-.454-3.025 32.715 32.715 0 0 0-1.013-2.969A15.88 15.88 0 0 0-8.37-.68c-.942-1.213-1.873-2.234-2.789-3.061l1.774-1.776a15.29 15.29 0 0 1 2.824 2.34c.838.873 1.6 1.817 2.29 2.806.396-.279.764-.584 1.132-.914.357-.329.683-.659 1.002-.994A42.756 42.756 0 0 0-.472-4.223C.152-4.995.625-5.645.965-6.193l2.212 2.929c-.362.523-.829 1.061-1.367 1.62A24.415 24.415 0 0 1 0 0" style="fill:#777576;fill-opacity:1;fill-rule:nonzero;stroke:none" transform="matrix(1.95463 0 0 -1.95463 131.85 34.338)"/><path d="M0 0c.239 0 .454-.163.62-.482.188-.345.278-.721.278-1.147v-4.644h-3.946v-3.072H.898v-14.938h3.739V.559H0Z" style="fill:#777576;fill-opacity:1;fill-rule:nonzero;stroke:none" transform="matrix(1.95463 0 0 -1.95463 139.787 10.696)"/><path d="M287.757 344.147h23.195v3.097h-23.195zM294.239 358.06h10.988v-4.477h-10.988zm-4.283 6.833c.172-.34.256-.675.256-1.06v-13.37h18.979v15.51h-3.964v-4.898h-10.988v4.898h-4.93v-.573c.26 0 .48-.158.647-.507" style="fill:#777576;fill-opacity:1;fill-rule:nonzero;stroke:none" transform="matrix(1.95463 0 0 -1.95463 -394.516 726.397)"/><path d="M0 0h-4.894v-.558a.897.897 0 0 0 .692-.533c.138-.31.209-.574.209-.818v-6.086h18.996v3.102H0Z" style="fill:#777576;fill-opacity:1;fill-rule:nonzero;stroke:none" transform="matrix(1.95463 0 0 -1.95463 237.77 42.672)"/><path d="M0 0h-4.898v-.563c.253 0 .48-.168.646-.498.166-.329.252-.71.252-1.142v-15.8h4v9.73h3.902v3.122H0Z" style="fill:#777576;fill-opacity:1;fill-rule:nonzero;stroke:none" transform="matrix(1.95463 0 0 -1.95463 265.873 9.555)"/><path d="M0 0v3.147h-11.587v2.68h9.425v8.746h-13.526v-3.152h9.532V8.776h-10.319v-.528c.259 0 .475-.178.646-.538.158-.355.256-.715.256-1.096V0Z" style="fill:#777576;fill-opacity:1;fill-rule:nonzero;stroke:none" transform="matrix(1.95463 0 0 -1.95463 254.412 39.32)"/><path d="M343.53 344.127h23.202v3.097H343.53z" style="fill:#777576;fill-opacity:1;fill-rule:nonzero;stroke:none" transform="matrix(1.95463 0 0 -1.95463 -394.516 726.397)"/><path d="M0 0a24.212 24.212 0 0 1 4.129 3.889c1.502-.766 2.988-1.711 4.48-2.833a16.522 16.522 0 0 0 3.787-4.04l3.12 2.786c-1.217 1.31-2.709 2.508-4.483 3.6-1.779 1.09-3.566 1.928-5.39 2.527.65.96 1.214 1.96 1.66 3.015a16.74 16.74 0 0 1 1.017 3.203H1.586v-.559c.365 0 .68-.248.935-.73.262-.493.292-1.021.084-1.574C1.934 7.457.775 5.589-.857 3.65a21.491 21.491 0 0 0-5.707-4.776l1.656-1.802A26.057 26.057 0 0 1 0 0" style="fill:#777576;fill-opacity:1;fill-rule:nonzero;stroke:none" transform="matrix(1.95463 0 0 -1.95463 292.508 34.409)"/><path d="M0 0c-1.061-.431-2.379-.65-3.928-.65-1.547 0-2.843.219-3.904.65-1.061.442-1.594.944-1.594 1.527 0 .579.533 1.087 1.594 1.518 1.061.437 2.357.64 3.904.64 1.549 0 2.867-.203 3.928-.64 1.076-.431 1.607-.939 1.607-1.518C1.607.944 1.076.442 0 0m3.066 5.004c-1.927.965-4.252 1.447-6.994 1.447-2.73 0-5.051-.482-6.97-1.447-1.922-.948-2.891-2.106-2.891-3.477 0-1.374.969-2.537 2.891-3.497 1.919-.954 4.24-1.426 6.97-1.426 2.742 0 5.067.472 6.994 1.426 1.918.96 2.879 2.123 2.879 3.497 0 1.371-.961 2.529-2.879 3.477" style="fill:#777576;fill-opacity:1;fill-rule:nonzero;stroke:none" transform="matrix(1.95463 0 0 -1.95463 366.185 52.584)"/><path d="M375.836 359.451h5.906v-3.045h-5.906zm9.935.67h4.635v-2.477h-4.635zm0-6.832v1.213h4.635v-3.07h3.998v15.308h-4.902v-.564c.263 0 .48-.167.656-.497.17-.329.248-.71.248-1.142v-1.279h-4.635v2.858h-4.03v-3.579h-5.905v3.58h-4.897v-.569c.246 0 .465-.158.635-.482a2.32 2.32 0 0 0 .269-1.122V353.29z" style="fill:#777576;fill-opacity:1;fill-rule:nonzero;stroke:none" transform="matrix(1.95463 0 0 -1.95463 -394.516 726.397)"/><path d="M0 0h-3.596v3.082H0v4.527c0 .421-.082.797-.256 1.127-.191.355-.394.517-.635.517v.564h4.893V-9.471H0Zm-13.957 6.701c-.689-.518-1.023-1.132-1.023-1.843 0-.741.334-1.366 1.023-1.883.682-.513 1.5-.771 2.461-.771.957 0 1.771.258 2.445.771.67.517 1.018 1.142 1.018 1.883 0 .711-.348 1.325-1.018 1.843-.674.513-1.488.766-2.445.766-.961 0-1.779-.253-2.461-.766m18.35-18.72v-3.097h-20.448v5.873c0 .427-.097.822-.279 1.153-.187.319-.393.482-.625.482v.563h4.898v-4.974zM-16.768 1.077c-1.484 1.03-2.214 2.284-2.214 3.781 0 1.477.73 2.731 2.214 3.771 1.467 1.051 3.225 1.574 5.272 1.574 2.064 0 3.814-.523 5.275-1.574 1.451-1.04 2.176-2.294 2.176-3.771 0-1.497-.725-2.751-2.176-3.781C-7.682.02-9.432-.497-11.496-.497c-2.047 0-3.805.517-5.272 1.574m5.914-5.604h-8.767v3.131H-1.99v-3.131h-4.889v-4.771h-3.975z" style="fill:#777576;fill-opacity:1;fill-rule:nonzero;stroke:none" transform="matrix(1.95463 0 0 -1.95463 425.24 28.744)"/></svg>